<!----><svg viewBox="0 0 65 48" fill="currentColor" xmlns="http://www.w3.org/2000/svg" role="img" preserveAspectRatio=""><title><!---->Croatia<!----></title><rect x="0.5" width="64" height="48" rx="4" fill="#D8D8D8"></rect><mask id="HR_svg__a" maskUnits="userSpaceOnUse" x="0" y="0" width="65" height="48" style="mask-type:alpha"><rect x="0.5" width="64" height="48" rx="4" fill="#fff"></rect></mask><g mask="url(#HR_svg__a)"><path d="M.5 0h64v48H.5V0Z" fill="#171796"></path><path d="M.5 0h64v32H.5V0Z" fill="#fff"></path><path fill-rule="evenodd" clip-rule="evenodd" d="M64.5 0H.5v16h22.67v11.08c0 5.14 4.2 9.34 9.33 9.34v-.01c5.13 0 9.33-4.2 9.33-9.33V16H64.5V0Z" fill="red"></path><path d="M32.5 36.26a9.18 9.18 0 0 0 9.16-9.15V16.18H23.35V27.1a9.18 9.18 0 0 0 9.15 9.15v.01Z" fill="#fff"></path><path fill-rule="evenodd" clip-rule="evenodd" d="M27.21 16.52H23.7v3.87h3.5l.01 3.87H23.7v2.83c0 .35.02.7.06 1.04h3.44l.01 3.87H25.2a8.923 8.923 0 0 0 2.01 2.12V32h3.53v3.71c.376.078.757.132 1.14.16.41.03.82.02 1.23 0 .4-.03.77-.08 1.15-.16V32h-3.52v-3.87h-3.52v-3.87h3.52v-3.87h-3.52l-.01-3.87Zm7.06 7.74h-3.52v3.87h3.52V32h3.52v-3.87h-3.52v-3.87Zm3.52 9.86.01-.008v.008h-.01Zm.01-.008V32h2a8.92 8.92 0 0 1-2 2.112Z" fill="red"></path><path fill-rule="evenodd" clip-rule="evenodd" d="M34.26 16.52h-3.52v3.87h3.52v3.87h3.52v3.87h3.46c.04-.34.06-.69.06-1.04v-2.83h-3.52v-3.87h3.52v-3.87h-3.52v3.87h-3.52v-3.87Z" fill="red"></path><path d="m41.5 15.88 2.18-4.95-1.66-2.68-2.76 1.02-1.94-2.22-2.54 1.47-2.28-1.87-2.27 1.86-2.55-1.46-1.94 2.22-2.76-1.03-1.66 2.7 2.18 4.94a21.78 21.78 0 0 1 9-1.93c3.2 0 6.25.69 9 1.93Z" fill="#fff"></path><path d="m25.8 9.48-2.74-1-1.53 2.47.59 1.33 1.48 3.37a21.968 21.968 0 0 1 3.46-1.2L25.8 9.48Z" fill="#0093DD"></path><path d="M25.64 11.93c.103.19.158.403.16.62a1.338 1.338 0 0 1-2.65.25c.236.425.684.69 1.17.69a1.34 1.34 0 0 0 1.32-1.56Z" fill="#fff" stroke="#000" stroke-width="0.3"></path><path d="m23.26 11.4.1-.49-.38-.32-.01-.01.02-.01.46-.16.1-.48v-.02l.02.01.37.32.46-.16h.02v.02l-.1.48.37.32.02.02h-.03l-.46.16-.1.48v.02l-.01-.01-.37-.32-.46.16h-.03l.01-.01Z" fill="#000"></path><path fill-rule="evenodd" clip-rule="evenodd" d="m23.82 10.73-.26-.76-.09.45.35.31Zm.55-.61-.43.15-.09.45.52-.6Zm-1.34.46.78.15-.35-.3-.43.15Zm1.61.32-.78-.16.44-.14.34.3Zm-.43.16-.35-.3.78.15-.43.15Zm-1.18-.46.78.15-.44.15-.34-.3Zm.78.16-.52.6.09-.45.43-.15Zm.01.01-.52.6.43-.15.09-.45Zm.04-.04.52-.6-.09.45-.43.15Zm-.02.05.25.75-.34-.3.09-.45Zm.01-.01.26.75.09-.45-.35-.3Zm-.02-.05-.25-.75.35.3-.1.45Z" fill="#F7DB17"></path><path d="M30.25 8.74 27.71 7.3 25.8 9.49l1.26 4.96c1.185-.3 2.392-.5 3.61-.6l-.42-5.11Z" fill="#171796"></path><path fill-rule="evenodd" clip-rule="evenodd" d="M30.36 10.02c-1.43.115-2.849.35-4.24.7l-.32-1.23c1.46-.37 2.949-.618 4.45-.74l.11 1.27Zm.21 2.56c-1.289.107-2.567.32-3.82.64l-.32-1.26a24.564 24.564 0 0 1 4.04-.67l.1 1.29Z" fill="red"></path><path d="m34.769 8.743-.006.003-2.255-1.847-2.25 1.843.423 5.11a22.22 22.22 0 0 1 3.662 0l.426-5.11Z" fill="#0093DD"></path><path d="M32.503 11.04c-.004 0-.01.003-.016.011-.044.06-.085.111-.13.17-.046.015-.057.044-.039.083-.062-.006-.069.046-.072.103-.059-.09-.123-.114-.192-.073-.003-.054-.045-.08-.105-.093a.196.196 0 0 1-.103-.034c-.014-.01-.026-.015-.04-.025-.03-.021-.054-.002-.04.017.062.103.126.206.19.309a.044.044 0 0 0 .02.048l.033.094-.007.027c-.053-.025-.105-.028-.158-.031-.04-.002-.068-.012-.085-.033-.013-.015-.022-.006-.022.02 0 .126.038.24.142.353a6.48 6.48 0 0 0-.165.005c-.018.001-.022.01-.017.025.03.072.08.137.195.181a.155.155 0 0 0-.085.123c-.002.053-.017.091-.05.108-.014.008-.02.016-.006.025.06.044.134.046.212.027a.331.331 0 0 0-.046.201.25.25 0 0 0 .145-.012.23.23 0 0 0-.012.073.19.19 0 0 1-.025.082c-.008.007-.015.02.001.024.08.021.154.012.217-.011 0 .057 0 .115.018.172.004.014.017.024.03.006a.429.429 0 0 1 .125-.123c.007.022.017.04.036.052.023.012.035.04.037.08 0 .008 0 .015.008.022.035.002.122-.09.14-.141.048.028.067.058.104.109.013.018.023.007.03-.006a.67.67 0 0 0 .016-.172.351.351 0 0 0 .217.011c.016-.004.008-.016 0-.024a.224.224 0 0 1-.026-.086c-.003-.032-.004-.054-.01-.068a.247.247 0 0 0 .145.012.331.331 0 0 0-.05-.201c.078.019.155.017.215-.027.014-.01.008-.017-.005-.025-.033-.017-.049-.055-.05-.108a.154.154 0 0 0-.085-.123.314.314 0 0 0 .194-.182c.006-.015.002-.023-.017-.024-.055-.003-.114-.006-.168-.007a.498.498 0 0 0 .143-.354c0-.026-.01-.035-.022-.02-.018.021-.043.033-.083.035-.052.004-.103.006-.155.03l-.008-.026c.011-.031.026-.062.037-.093.02-.013.024-.03.02-.049.064-.103.122-.205.186-.308.012-.019-.011-.039-.04-.018-.015.01-.027.015-.041.025a.199.199 0 0 1-.104.035c-.06.013-.099.04-.101.094-.07-.042-.134-.018-.193.072-.003-.056-.01-.108-.072-.102.018-.04.004-.069-.042-.083-.044-.06-.108-.112-.152-.17-.008-.01-.013-.012-.017-.012Z" fill="#000"></path><path fill-rule="evenodd" clip-rule="evenodd" d="M31.923 11.376c.023-.025.056.017.073.093.017.075.018.16-.006.185-.023.025-.046-.024-.064-.1-.017-.075-.027-.152-.004-.178Zm1.22 0c-.023-.025-.056.017-.073.093-.017.075-.015.164.008.19.018.02.038-.006.054-.055l.01-.035.002-.008c.017-.076.022-.159-.001-.183v-.002Zm-.165.936c0-.031.023-.058.05-.058.028 0 .05.027.05.058 0 .032-.022.057-.05.057-.028 0-.05-.026-.05-.057Zm-.906-.058c-.028 0-.05.026-.05.058 0 .031.023.057.05.057.028 0 .05-.026.05-.057 0-.032-.022-.058-.05-.058Zm.446-.424c.179 0 .357.041.536.13.005.003.002.085-.008.08a1.183 1.183 0 0 0-.528-.124c-.177 0-.355.038-.534.11-.009.003-.01-.076-.004-.084.18-.072.36-.112.538-.112Z" fill="#F7DB17"></path><path fill-rule="evenodd" clip-rule="evenodd" d="M32.518 11.466c-.18 0-.36.01-.542.027l-.025-.038a.03.03 0 0 0 .008-.002c.018-.01.022-.039.009-.065-.014-.027-.04-.042-.057-.033a.028.028 0 0 0-.013.013l-.1-.161.007.004a.292.292 0 0 0 .131.056c.067.01.098.032.093.072-.006.037.008.032.043.013.074-.04.131.017.158.084.017.044.037.043.04-.003 0-.017 0-.034.003-.05.005-.053.018-.066.049-.052.037.018.041.006.032-.014l-.007-.011c-.007-.011-.015-.024-.012-.04.002-.016.016-.022.036-.023l.066-.086.066-.087c.022.03.05.058.077.087.028.028.055.057.077.086.02.001.033.007.036.023.003.017-.004.03-.011.043a.113.113 0 0 0-.005.01c-.01.02-.006.032.032.013.03-.015.047 0 .051.053a.286.286 0 0 1 .002.048c.002.046.023.047.04.003.026-.067.08-.124.154-.084.035.019.057.024.048-.013-.01-.04.02-.063.087-.072a.298.298 0 0 0 .133-.057c.002 0 .003-.002.005-.003l-.106.175c-.001-.012-.006-.023-.016-.027-.018-.009-.043.006-.057.033-.013.026-.01.056.009.065a.027.027 0 0 0 .021 0l-.026.044a4.48 4.48 0 0 0-.536-.031Zm.496.244h.002a.375.375 0 0 1 .154-.038c.029-.002.059-.004.085-.017a.237.237 0 0 1-.03.054.098.098 0 0 1-.05.035c-.001 0-.004.004-.004.006a.193.193 0 0 1-.04.091.151.151 0 0 1-.045.036.235.235 0 0 0 .04-.06.19.19 0 0 0 .02-.1c-.001-.003-.002-.007-.009-.006-.007 0-.007.004-.007.008a.177.177 0 0 1-.017.092.244.244 0 0 1-.066.081c-.005.005 0 .015.007.013a.178.178 0 0 0 .13-.148.113.113 0 0 0 .053-.04c.01-.013.02-.03.027-.046a.498.498 0 0 1-.108.268.175.175 0 0 1-.06.05c-.021.01-.022.024.005.025h.025a.37.37 0 0 0-.055.025c-.03.017-.051.038-.053.065 0 .003-.001.007.007.008.007 0 .007-.003.008-.007.001-.02.02-.038.045-.053a.496.496 0 0 1 .095-.038h.109a.321.321 0 0 1-.112.049.203.203 0 0 0-.055.022.157.157 0 0 0-.042.036c-.003.003-.005.006 0 .01.007.005.01.002.011 0a.143.143 0 0 1 .038-.033.186.186 0 0 1 .051-.02.326.326 0 0 0 .13-.06.285.285 0 0 1-.199.164.25.25 0 0 1-.03.007c-.015.003-.025.004-.025.013 0 .01.013.009.027.008a.16.16 0 0 1 .017 0c.055.003.1.053.103.117v.004a.399.399 0 0 0-.065-.05.112.112 0 0 0-.086-.017c-.004.001-.007.002-.005.01.002.007.005.006.009.005.025-.007.05 0 .075.015a.45.45 0 0 1 .075.06c.006.035.02.067.049.09l-.005.002c-.012.008-.022.014-.034.008a.65.65 0 0 0-.062-.026.233.233 0 0 0-.067-.013c-.004 0-.007 0-.008.007 0 .008.004.008.008.008a.224.224 0 0 1 .062.013.59.59 0 0 1 .053.021.288.288 0 0 1-.158-.019l-.013-.005c-.013-.006-.027-.011-.036-.012a.09.09 0 0 1-.01-.007.08.08 0 0 0-.013-.007.173.173 0 0 0-.043-.014c-.004 0-.008 0-.009.007 0 .007.003.008.007.008a.172.172 0 0 1 .046.015l.008.003c0 .006.014.017.029.027l.02.016c.023.02.034.043.045.068a.263.263 0 0 1 .016.053.366.366 0 0 0-.048-.072.25.25 0 0 0-.082-.063c-.003-.002-.007-.003-.01.004-.003.006 0 .008.003.01.03.014.056.034.077.059a.363.363 0 0 1 .053.081l.004.012.003.007a.507.507 0 0 0-.074-.07c-.031-.025-.063-.038-.095-.032-.004 0-.008.001-.006.009.001.007.005.006.008.006.028-.005.056.007.084.028a.637.637 0 0 1 .087.086.28.28 0 0 1-.128-.02.113.113 0 0 1-.032-.02c-.012-.01-.021-.017-.027-.01-.005.005.005.016.016.03.012.014.026.03.03.045a.35.35 0 0 1 .009.056.235.235 0 0 0 .02.081.137.137 0 0 1-.042-.032.167.167 0 0 1-.03-.054.175.175 0 0 0-.102-.105c-.004-.001-.007-.003-.01.004-.002.007 0 .009.004.01.022.008.041.02.057.037a.163.163 0 0 1 .036.059c.009.024.02.043.034.059.01.012.022.022.037.03a.21.21 0 0 1-.095-.03.12.12 0 0 1-.037-.049c-.001-.003-.003-.006-.01-.003-.006.003-.005.006-.003.01.01.022.023.04.04.054.014.01.03.018.047.022a.342.342 0 0 1-.107-.023c-.008-.004-.013-.016-.018-.027-.005-.012-.01-.023-.016-.024a.237.237 0 0 0-.025-.036.106.106 0 0 0-.038-.03c-.004-.002-.007-.003-.01.004s0 .008.004.01a.086.086 0 0 1 .033.025c.009.01.017.023.024.036 0 .01.003.024.008.038a.154.154 0 0 1 .007.034.486.486 0 0 1-.016.145c-.003-.005-.006-.01-.01-.013a.377.377 0 0 0-.026-.034v-.001a.76.76 0 0 1-.01-.079.438.438 0 0 1 .002-.078c0-.003.001-.007-.006-.008-.008-.001-.008.003-.009.006a.722.722 0 0 0 .005.141.302.302 0 0 0-.016-.015l-.001-.006a.19.19 0 0 1-.016-.056.153.153 0 0 1 .003-.054c0-.004.001-.008-.006-.01-.007-.001-.008.002-.009.006a.174.174 0 0 0 .007.102.4.4 0 0 0-.02-.013l-.006.005a.04.04 0 0 1-.005.005.104.104 0 0 0-.012-.044c-.002-.004-.003-.007-.01-.004-.007.004-.005.007-.003.01a.084.084 0 0 1 .006.018c.006.072-.047.113-.075.135l-.008.006a.448.448 0 0 0 .003-.116.243.243 0 0 0-.029-.093c-.002-.003-.004-.007-.01-.003-.007.004-.005.007-.003.01a.224.224 0 0 1 .027.088.425.425 0 0 1 0 .095.1.1 0 0 0-.045-.065c-.018-.011-.028-.035-.03-.055a.744.744 0 0 1 .003-.1c.001-.004.002-.01-.007-.01-.01-.002-.01.002-.012.007a.645.645 0 0 0-.004.099.587.587 0 0 0-.041.029.21.21 0 0 0 .011-.047.167.167 0 0 0-.003-.06c0-.004-.002-.007-.009-.006-.007.002-.007.006-.006.01a.176.176 0 0 1-.013.11v.001c-.005.011-.005.012-.018.023a.442.442 0 0 0 .005-.144c0-.004 0-.008-.008-.007-.007.001-.007.005-.006.009a.422.422 0 0 1 .001.078.753.753 0 0 1-.009.078v.004a.515.515 0 0 0-.039.045.484.484 0 0 1-.012-.145.17.17 0 0 1 .006-.031c.004-.015.008-.031.006-.041a.205.205 0 0 1 .024-.035c.01-.011.02-.02.032-.025.004-.002.007-.003.005-.01-.003-.007-.007-.006-.01-.004a.104.104 0 0 0-.04.03.227.227 0 0 0-.034.057c-.005.012-.01.026-.02.03a.34.34 0 0 1-.11.023.12.12 0 0 0 .046-.022.135.135 0 0 0 .04-.055c.002-.003.004-.007-.003-.01s-.009 0-.01.004a.122.122 0 0 1-.037.049.154.154 0 0 1-.066.028h-.017l-.011.002a.154.154 0 0 0 .07-.09.16.16 0 0 1 .093-.095c.004-.002.007-.003.004-.01-.002-.007-.006-.006-.01-.005a.171.171 0 0 0-.1.105.165.165 0 0 1-.031.055.146.146 0 0 1-.042.032c.014-.03.017-.055.02-.081a.348.348 0 0 1 .01-.056c.003-.015.019-.033.032-.048a.488.488 0 0 0 .008-.009c.003 0 .004-.002.006-.004a.348.348 0 0 1 .044-.049c.003-.002.006-.005.001-.01-.005-.006-.008-.004-.01-.001a.234.234 0 0 0-.038.04c-.006.001-.014.007-.022.014-.01.008-.023.017-.035.021a.284.284 0 0 1-.128.02.65.65 0 0 1 .087-.085c.028-.021.06-.034.087-.029.004 0 .008.001.009-.006 0-.007-.003-.008-.006-.009-.032-.005-.068.008-.1.032a.547.547 0 0 0-.076.073.057.057 0 0 1 .005-.013s.002-.001.005-.008a.35.35 0 0 1 .052-.082.226.226 0 0 1 .076-.059c.004-.002.007-.003.004-.01-.003-.006-.007-.005-.01-.003a.248.248 0 0 0-.082.063.354.354 0 0 0-.047.071.288.288 0 0 1 .016-.053.176.176 0 0 1 .065-.084l.009-.005c.011-.007.02-.014.02-.017a.093.093 0 0 1 .053-.02c.005 0 .008 0 .007-.008 0-.007-.004-.007-.008-.006a.178.178 0 0 0-.043.013l-.01.005a.257.257 0 0 0-.031.014.077.077 0 0 0-.023.007l-.009.003a.29.29 0 0 1-.158.019.646.646 0 0 1 .053-.022.221.221 0 0 1 .063-.012c.004 0 .007-.001.007-.008 0-.008-.004-.008-.008-.008a.243.243 0 0 0-.067.014.638.638 0 0 0-.062.025c-.012.005-.022 0-.034-.008l-.004-.002a.133.133 0 0 0 .048-.09.45.45 0 0 1 .075-.06c.025-.014.05-.021.075-.014.004 0 .007.002.01-.006.001-.007-.002-.008-.006-.009-.03-.008-.059 0-.086.016a.41.41 0 0 0-.065.05v-.003c.004-.064.048-.114.103-.117l.026-.003a.853.853 0 0 0 .04.008c.022.004.04.007.063.009.004 0 .008 0 .008-.007.001-.008-.003-.008-.007-.008a.733.733 0 0 1-.125-.022h-.002l-.014-.005a.284.284 0 0 1-.198-.163.3.3 0 0 0 .128.06c.02.004.037.01.052.02.015.008.027.019.037.031.003.003.005.006.011.001.006-.004.004-.008.001-.01a.16.16 0 0 0-.042-.036.2.2 0 0 0-.055-.022.323.323 0 0 1-.112-.048l.09-.001h.018c.034.01.069.023.096.038.026.015.044.032.045.053 0 .003 0 .007.008.007s.007-.005.007-.008c-.002-.027-.023-.048-.053-.065a.372.372 0 0 0-.055-.025h.025c.027 0 .026-.016.005-.024a.178.178 0 0 1-.061-.051.463.463 0 0 1-.108-.27.232.232 0 0 0 .028.049.11.11 0 0 0 .052.039c.008.037.022.07.043.094a.186.186 0 0 0 .091.054c.007.002.012-.008.007-.013a.255.255 0 0 1-.07-.082.174.174 0 0 1-.016-.091c0-.004 0-.008-.007-.009-.007 0-.008.003-.008.007a.19.19 0 0 0 .018.1c.01.02.023.04.04.06a.154.154 0 0 1-.044-.036.19.19 0 0 1-.04-.091c0-.003-.003-.006-.005-.006a.096.096 0 0 1-.05-.035.24.24 0 0 1-.03-.054.223.223 0 0 0 .087.017l.022.001a.38.38 0 0 1 .137.035.248.248 0 0 1 .021.022l.01.011c.014.014.03.03.05.045.003.002.006.004.01-.002.005-.006.003-.008 0-.01a.43.43 0 0 1-.07-.068l.064-.006c.021.006.042.014.06.024a.091.091 0 0 1 .032.03c.002.003.004.006.01.002s.005-.007.003-.01a.105.105 0 0 0-.038-.035.21.21 0 0 0-.029-.014l.078-.006h.002a.089.089 0 0 1 .028.028c.002.004.004.007.01.002.007-.004.005-.007.002-.01a.104.104 0 0 0-.015-.018l-.003-.003.058-.003.002.002a.077.077 0 0 1 .022.03c.002.004.003.007.01.004s.005-.006.004-.01a.086.086 0 0 0-.018-.027l.082-.003c0 .002.002.002.004.003a.071.071 0 0 1 .027.027c.002.004.004.007.01.003.007-.004.005-.007.003-.01a.1.1 0 0 0-.014-.018l-.005-.005h.172l-.005.005a.082.082 0 0 0-.014.018c-.002.003-.004.006.002.01.007.004.009 0 .01-.003a.071.071 0 0 1 .028-.027l.003-.002a4.5 4.5 0 0 1 .081.003l-.002.002-.004.005a.1.1 0 0 0-.01.02c-.002.003-.003.006.004.01.006.002.008-.002.01-.005a.081.081 0 0 1 .023-.032l.057.004-.002.002a.114.114 0 0 0-.015.018c-.002.003-.004.006.002.01.006.005.008.002.01-.001a.099.099 0 0 1 .028-.027l.076.005a.21.21 0 0 0-.025.013.106.106 0 0 0-.037.035c-.002.003-.004.007.002.01.007.004.009.001.01-.002a.095.095 0 0 1 .033-.03.228.228 0 0 1 .053-.022l.067.007a.44.44 0 0 1-.067.065c-.003.002-.006.004-.001.01.004.006.008.004.01.002a.423.423 0 0 0 .058-.053c.009-.01.016-.018.024-.021l.004-.002Z" fill="#F7DB17"></path><path d="M33.002 11.7a1.79 1.79 0 0 0-.484-.06c-.162 0-.324.021-.488.058-.004.003-.003.017-.003.024 0 .014.009.018.029.014.152-.031.304-.048.458-.048.16 0 .32.01.483.052.007.005.018-.043.005-.041Z" fill="#F7DB17"></path><path fill-rule="evenodd" clip-rule="evenodd" d="M32.035 12.49c.162-.124.323-.192.483-.192.16 0 .32.07.48.22l.007-.22c-.004.015-.008.026-.013.026-.015 0-.027-.079-.03-.185a.769.769 0 0 1 .022-.235c.014-.029.029.024.034.123l.015-.296c-.172-.146-.343-.212-.515-.212a.92.92 0 0 0-.52.186l.014.285c.005-.056.014-.094.024-.094.016 0 .03.096.03.214s-.014.214-.03.214c-.003 0-.006-.004-.008-.01l.007.163v.012Zm.748-.724c-.028 0-.05.095-.05.213 0 .119.022.215.05.215.02 0 .039-.056.046-.135a.156.156 0 0 0 .02-.08.155.155 0 0 0-.02-.08c-.007-.078-.025-.133-.046-.133Zm.046.133c-.009-.014-.02-.022-.032-.022-.027.003-.048.048-.048.102 0 .055.021.1.048.103.012 0 .023-.008.032-.023a.866.866 0 0 0 0-.16Zm-.303-.18c-.027 0-.05.095-.05.214 0 .118.023.213.05.213.021 0 .04-.055.047-.133a.16.16 0 0 0 .019-.08.16.16 0 0 0-.02-.08c-.007-.079-.025-.134-.046-.134Zm.047.133c-.009-.014-.02-.022-.032-.022-.027 0-.05.046-.05.103 0 .057.023.103.05.103.012 0 .023-.009.032-.023a.843.843 0 0 0 0-.16Zm-.298-.092c-.018-.003-.035.037-.045.105a.857.857 0 0 0 0 .218c.01.068.027.108.045.105.02-.004.037-.057.044-.132a.154.154 0 0 0 .02-.082.155.155 0 0 0-.02-.081c-.007-.075-.024-.129-.044-.133Zm.044.133c-.008-.012-.018-.02-.028-.021-.029 0-.052.045-.052.102 0 .058.023.103.052.103.01-.001.02-.009.028-.021a.83.83 0 0 0 0-.163Z" fill="#F7DB17"></path><path fill-rule="evenodd" clip-rule="evenodd" d="M32.632 11.37a.075.075 0 0 0-.03-.042.123.123 0 0 0-.059-.02c-.01-.002-.012-.014-.002-.017a.096.096 0 0 0 .049-.031.14.14 0 0 0 .03-.06c0-.009.019-.01.02-.001.005.02.016.036.03.05a.152.152 0 0 0 .06.032c.01.003.008.015-.002.016a.074.074 0 0 0-.044.02.126.126 0 0 0-.03.053c-.003.008-.02.007-.022 0Zm.01-.028a.125.125 0 0 1 .025-.035.096.096 0 0 1 .031-.02.175.175 0 0 1-.044-.028.128.128 0 0 1-.023-.028.142.142 0 0 1-.023.038.126.126 0 0 1-.033.027c.015.005.029.011.041.02.01.007.02.016.026.026Zm.088 1.292.16-.072c.005-.002.01-.005.006-.016-.004-.012-.01-.01-.015-.008l-.16.072c-.005.003-.01.005-.006.017s.01.01.015.007Zm.178-.157-.187.08c-.005.002-.01.005-.016-.003-.005-.008 0-.01.005-.013l.187-.08c.004-.002.01-.004.015.004.006.008 0 .01-.004.012Zm-.378.064-.187-.08c-.005-.002-.01-.004-.016.004-.005.008 0 .01.005.012l.187.08c.005.003.01.005.016-.003.005-.008 0-.01-.005-.013Zm-.171-.003.16.072c.005.003.01.005.006.017-.005.012-.01.01-.015.007l-.16-.072c-.005-.002-.01-.004-.006-.016s.01-.01.015-.008Zm.18.11a.374.374 0 0 1-.11-.007c-.007-.002-.012-.003-.015.006-.003.008.003.01.009.01a.38.38 0 0 0 .12.008.104.104 0 0 0 .066-.031.104.104 0 0 0 .067.031.4.4 0 0 0 .12-.008c.006 0 .01-.001.008-.01-.002-.009-.008-.008-.014-.007a.364.364 0 0 1-.11.008c-.027-.004-.047-.014-.058-.034l-.001-.004v-.114a.471.471 0 0 0 .085-.01.15.15 0 0 0 .07-.035c.018-.016.026-.036.023-.055a.044.044 0 0 0-.025-.031.12.12 0 0 0-.052-.012.276.276 0 0 0-.049.004l-.008.001-.014.002c-.006 0-.012.001-.01.01.001.009.007.008.012.008l.025-.004c.015-.002.03-.004.044-.003.014 0 .029.003.04.008.007.005.013.01.014.02.003.013-.004.028-.017.041a.127.127 0 0 1-.06.03.466.466 0 0 1-.189 0c-.025-.006-.04-.018-.047-.032-.01-.021-.006-.048 0-.067.002-.004.003-.009-.008-.01-.011-.003-.013.001-.014.005-.007.023-.012.053.001.079.01.019.029.034.062.042.028.006.06.01.094.01v.116c-.011.02-.032.031-.06.035Zm0 .051.123-.01c.007 0 .012 0 .012.043 0 .046-.005.046-.011.046l-.124.01h-.001c-.006 0-.011 0-.011-.044 0-.045.005-.045.011-.045Zm.313-.81a.868.868 0 0 0-.13.071h-.001c-.004.003-.009.006-.001.012.007.007.012.005.016.002a.824.824 0 0 1 .127-.069.253.253 0 0 1 .1-.023c.005 0 .011 0 .011-.008 0-.01-.005-.01-.01-.01a.274.274 0 0 0-.112.026Zm-.317.084a.652.652 0 0 0-.138-.074.283.283 0 0 0-.112-.024c-.006 0-.012.001-.013-.008 0-.009.005-.01.01-.01a.311.311 0 0 1 .126.026.687.687 0 0 1 .142.077c.005.003.009.006 0 .012-.007.007-.011.004-.015.001Zm-.024.186a.223.223 0 0 0-.042.052c-.003.004-.005.008.005.012.01.003.013 0 .016-.004a.202.202 0 0 1 .038-.048.351.351 0 0 1 .051-.038c.005-.003.009-.006.002-.013-.008-.007-.012-.004-.017-.001a.372.372 0 0 0-.053.04Zm.072-.359a.165.165 0 0 1 .048.12.21.21 0 0 1-.002.058.116.116 0 0 1-.03.059.093.093 0 0 1-.051.026.121.121 0 0 1-.051-.001c.009.023.016.049.002.073-.003.004-.01.006-.016.004a1.146 1.146 0 0 0-.079-.027.518.518 0 0 1-.073-.027.164.164 0 0 1-.047-.03v.001a.087.087 0 0 1-.026-.04.148.148 0 0 1-.007-.041.8.8 0 0 1-.06-.028.31.31 0 0 1-.05-.03c-.004-.004-.008-.007 0-.013.008-.006.012-.003.016 0a.29.29 0 0 0 .047.029c.018.01.04.019.063.028a.441.441 0 0 1 .114.026.677.677 0 0 1 .107.05l.002.002.005.003a.095.095 0 0 0 .047.004.068.068 0 0 0 .038-.02.1.1 0 0 0 .026-.05.194.194 0 0 0 .002-.056.149.149 0 0 0-.042-.109c-.004-.004-.007-.008.002-.013.009-.005.013-.002.016.002Zm-.212.203a.621.621 0 0 1 .096.045l.002.004v.003c.01.021.018.044.012.063a.848.848 0 0 0-.07-.023.524.524 0 0 1-.069-.025.153.153 0 0 1-.04-.025.069.069 0 0 1-.022-.033.13.13 0 0 1-.006-.032.431.431 0 0 1 .097.023Zm.336-.192a.144.144 0 0 0-.042.108.198.198 0 0 0 .002.056.104.104 0 0 0 .026.051c.01.01.023.017.038.02a.095.095 0 0 0 .047-.004l.007-.004.002-.002a.72.72 0 0 0 .328-.132c.004-.003.008-.006.017 0 .008.006.004.01 0 .013a.317.317 0 0 1-.05.03.816.816 0 0 1-.06.028.151.151 0 0 1-.007.041.09.09 0 0 1-.027.04.17.17 0 0 1-.046.03.548.548 0 0 1-.074.026.61.61 0 0 0-.079.027c-.005.002-.013 0-.016-.004-.014-.024-.007-.05.002-.073a.12.12 0 0 1-.05.002.09.09 0 0 1-.051-.027.115.115 0 0 1-.03-.059.214.214 0 0 1-.003-.059c0-.024.005-.046.013-.066a.161.161 0 0 1 .035-.053c.003-.003.007-.007.016-.001.01.005.006.009.002.012Zm.194.192a.428.428 0 0 1 .097-.023.13.13 0 0 1-.005.032.074.074 0 0 1-.022.033.152.152 0 0 1-.041.025.526.526 0 0 1-.07.025.545.545 0 0 0-.04.013l-.03.01c-.005-.02.004-.042.012-.063l.003-.007a.62.62 0 0 1 .096-.045Z" fill="#000"></path><path fill-rule="evenodd" clip-rule="evenodd" d="M33.066 12.487c0-.273.046-.494.103-.494.055.008.099.227.099.494s-.044.486-.1.494c-.056 0-.102-.221-.102-.494Zm.033-.001c0-.185.031-.336.07-.336.038 0 .069.15.069.336 0 .185-.031.335-.07.335-.038 0-.069-.15-.069-.335Zm.079-.199c-.028 0-.05.09-.05.199 0 .11.022.199.05.199.027 0 .05-.09.05-.2 0-.109-.023-.198-.05-.198Zm-.709.21c0-.271-.046-.493-.102-.493-.055.008-.1.227-.1.494 0 .268.045.487.1.495.057 0 .102-.224.102-.496Zm-.102-.335c.038 0 .07.15.07.335 0 .185-.032.336-.07.336-.038 0-.07-.15-.07-.336 0-.185.032-.335.07-.335Zm.052.236c-.009-.062-.025-.1-.043-.1-.028 0-.05.09-.05.2 0 .109.022.198.05.198.018 0 .034-.038.043-.1a.739.739 0 0 0 0-.198Z" fill="#000"></path><path d="M31.46 8.712c-.004 0-.01.003-.016.011l-.122.176c-.046.016-.056.044-.037.084-.062-.004-.067.048-.067.105-.063-.088-.128-.11-.196-.066-.005-.054-.047-.078-.107-.089a.197.197 0 0 1-.105-.03c-.015-.01-.027-.014-.041-.023-.03-.02-.054 0-.04.019l.201.3a.044.044 0 0 0 .023.048l.037.093-.007.027c-.053-.023-.106-.024-.158-.025-.04 0-.069-.01-.087-.03-.013-.014-.022-.005-.02.02a.494.494 0 0 0 .155.349l-.165.01c-.018.003-.022.01-.016.026.033.07.086.134.202.174a.155.155 0 0 0-.08.126c0 .053-.014.092-.046.11-.014.008-.019.016-.005.025.062.042.136.041.213.019a.33.33 0 0 0-.039.203c.05.011.098 0 .145-.018a.232.232 0 0 0-.01.074.19.19 0 0 1-.021.082c-.007.008-.015.02.002.024.08.018.154.006.216-.02a.575.575 0 0 0 .025.172c.004.014.017.023.03.005a.427.427 0 0 1 .12-.127c.008.02.019.039.039.05.023.011.036.038.039.08 0 .006 0 .013.009.02.035 0 .118-.095.134-.147.05.027.07.056.108.105.014.018.024.007.03-.006a.674.674 0 0 0 .01-.173.351.351 0 0 0 .216.003c.017-.005.008-.017 0-.024a.223.223 0 0 1-.03-.085c-.003-.032-.005-.054-.012-.068a.246.246 0 0 0 .145.007.33.33 0 0 0-.057-.2c.079.016.155.012.214-.034.013-.01.007-.018-.007-.025-.033-.016-.05-.053-.054-.106a.155.155 0 0 0-.09-.12.314.314 0 0 0 .188-.189c.005-.016 0-.023-.018-.024h-.169a.498.498 0 0 0 .13-.36c-.002-.025-.01-.034-.023-.018-.017.021-.04.034-.08.038-.053.005-.104.01-.155.036l-.009-.026c.01-.032.023-.063.033-.095.019-.013.023-.03.019-.049.06-.105.114-.21.173-.315.012-.02-.012-.038-.041-.016l-.04.026a.199.199 0 0 1-.102.039c-.058.015-.097.043-.097.097-.071-.038-.134-.012-.19.08-.005-.056-.014-.107-.076-.099.017-.04.002-.069-.045-.082-.046-.057-.113-.107-.16-.164-.007-.008-.012-.011-.016-.01Z" fill="#000"></path><path fill-rule="evenodd" clip-rule="evenodd" d="M30.893 9.07c.023-.027.057.014.077.089.02.075.024.16.001.185-.023.026-.047-.021-.068-.096-.02-.075-.033-.152-.01-.178Zm1.219-.047c-.024-.025-.055.018-.07.095-.014.076-.008.165.017.19.018.018.037-.008.05-.057l.01-.035.001-.01c.015-.075.016-.158-.008-.181v-.002Zm-.129.94c-.001-.03.02-.057.048-.059.028 0 .05.025.052.056.001.032-.02.058-.048.059-.028.001-.05-.024-.052-.055Zm-.907-.022c-.028.001-.05.028-.048.06.001.031.025.056.052.055.028-.001.05-.028.048-.06-.001-.031-.025-.056-.052-.055Zm.43-.44c.178-.007.358.026.54.108.005.003.005.085-.005.082a1.183 1.183 0 0 0-.532-.105 1.45 1.45 0 0 0-.53.13c-.008.004-.013-.075-.007-.083.177-.08.355-.126.533-.133Z" fill="#F7DB17"></path><path fill-rule="evenodd" clip-rule="evenodd" d="M31.491 9.136c-.18.007-.36.024-.54.048h-.001l-.025-.037a.028.028 0 0 0 .007-.003c.018-.01.02-.039.006-.065-.014-.026-.04-.04-.058-.03a.028.028 0 0 0-.012.014l-.105-.158.006.004a.293.293 0 0 0 .134.05c.067.007.098.029.094.07-.003.037.01.03.044.01.073-.043.132.012.161.078.019.044.04.042.04-.004v-.05c.004-.053.017-.067.048-.054.038.017.041.004.032-.015l-.008-.011c-.007-.011-.016-.023-.013-.04.002-.016.015-.022.035-.024.02-.03.042-.06.063-.089l.062-.088a.935.935 0 0 0 .08.083c.029.027.058.055.08.083.02 0 .034.006.037.022.004.017-.003.03-.009.043l-.005.01c-.008.02-.004.032.033.012.03-.016.047-.001.053.051a.496.496 0 0 0 .004.047c.004.046.024.047.04.002.024-.068.075-.127.151-.09.035.018.058.023.047-.014-.011-.04.018-.064.085-.076a.298.298 0 0 0 .13-.061l.005-.004-.099.18c-.002-.013-.008-.023-.017-.027-.019-.008-.044.007-.056.035-.012.027-.007.056.011.064a.028.028 0 0 0 .022 0l-.025.045a4.464 4.464 0 0 0-.537-.01Zm.506.225h.001a.376.376 0 0 1 .152-.044.223.223 0 0 0 .085-.02.237.237 0 0 1-.028.055.098.098 0 0 1-.048.037c-.002 0-.005.004-.005.006a.192.192 0 0 1-.037.093.151.151 0 0 1-.042.037c.017-.02.03-.04.038-.061a.19.19 0 0 0 .015-.1c0-.004-.001-.008-.009-.007-.007.001-.007.005-.006.008.004.03 0 .061-.014.093a.245.245 0 0 1-.062.084c-.006.005 0 .015.007.013a.177.177 0 0 0 .124-.154.113.113 0 0 0 .051-.04.228.228 0 0 0 .026-.049.498.498 0 0 1-.098.272.176.176 0 0 1-.057.054c-.022.009-.022.024.005.023h.025a.386.386 0 0 0-.054.027c-.03.018-.05.04-.05.066-.001.004-.001.008.006.008.008 0 .008-.003.008-.007 0-.02.018-.039.044-.055a.501.501 0 0 1 .093-.041l.018-.001a3.24 3.24 0 0 1 .091-.003.321.321 0 0 1-.11.053.203.203 0 0 0-.055.024.159.159 0 0 0-.04.037c-.003.004-.005.007.001.01.006.005.008.002.01 0a.144.144 0 0 1 .037-.034.186.186 0 0 1 .05-.022.327.327 0 0 0 .127-.065.285.285 0 0 1-.191.171l-.03.008c-.016.004-.025.006-.025.015s.013.008.027.007l.017-.001c.055 0 .102.049.108.113v.004a.39.39 0 0 0-.067-.048.112.112 0 0 0-.087-.013c-.003 0-.007.002-.004.01.002.006.006.005.01.004.024-.008.05-.001.075.012a.45.45 0 0 1 .076.057.134.134 0 0 0 .053.088c-.002 0-.003.002-.005.003-.012.008-.02.014-.033.009-.021-.008-.042-.017-.063-.023a.237.237 0 0 0-.067-.011c-.005 0-.008 0-.008.007 0 .008.004.008.007.008.023 0 .043.004.064.01a.603.603 0 0 1 .053.02.288.288 0 0 1-.172-.018c-.013-.005-.027-.01-.036-.01l-.01-.007a.076.076 0 0 0-.014-.007.179.179 0 0 0-.043-.012c-.004 0-.008 0-.009.007 0 .008.004.008.008.008.01.001.024.006.039.011.003.002.005.002.007.002l.008.003c0 .006.015.016.03.026l.02.015c.024.02.037.041.048.066a.268.268 0 0 1 .018.053.358.358 0 0 0-.05-.07.25.25 0 0 0-.085-.06c-.003-.002-.007-.003-.01.004-.002.007 0 .008.004.01.031.013.057.032.08.056a.367.367 0 0 1 .06.09l.002.008a.505.505 0 0 0-.076-.068c-.032-.023-.064-.035-.096-.028-.004.001-.007.002-.006.01.002.007.005.006.009.005.027-.006.055.005.084.025.03.02.06.05.09.082a.281.281 0 0 1-.128-.015.11.11 0 0 1-.033-.019c-.012-.009-.021-.016-.027-.009-.005.006.005.017.018.03.012.014.026.03.03.044.006.02.01.038.012.055.004.027.007.052.023.08a.14.14 0 0 1-.076-.083.178.178 0 0 0-.105-.1c-.004-.002-.008-.003-.01.004s.001.009.005.01c.022.007.041.019.058.035.016.015.03.035.038.057a.155.155 0 0 0 .074.087.209.209 0 0 1-.096-.027.121.121 0 0 1-.038-.047c-.002-.004-.004-.007-.01-.003-.007.003-.005.006-.004.01.011.022.026.04.044.053.013.01.029.016.047.02a.342.342 0 0 1-.109-.02c-.007-.003-.013-.015-.018-.026-.005-.011-.01-.022-.017-.023a.23.23 0 0 0-.026-.035.105.105 0 0 0-.04-.029c-.003 0-.007-.002-.01.005-.002.007.001.008.005.01a.086.086 0 0 1 .034.024c.009.01.017.022.025.035 0 .01.005.024.01.038.003.012.008.024.008.033a.487.487 0 0 1-.01.145l-.01-.013-.028-.032v-.002a.775.775 0 0 1-.013-.078.425.425 0 0 1-.001-.078c0-.003 0-.007-.007-.008-.007 0-.008.003-.008.007a.42.42 0 0 0 .002.081l.009.06a.335.335 0 0 0-.018-.015l-.001-.005a.192.192 0 0 1-.018-.056.154.154 0 0 1 0-.055c.002-.003.002-.007-.005-.008-.007-.002-.008.002-.009.005a.174.174 0 0 0 .01.102.54.54 0 0 0-.014-.01l-.005-.002s-.004.002-.006.005a.038.038 0 0 1-.006.005.104.104 0 0 0-.014-.044c0-.003-.003-.006-.01-.003-.006.004-.004.007-.002.01a.083.083 0 0 1 .007.018c.01.072-.043.115-.07.137a.408.408 0 0 0-.008.007.447.447 0 0 0-.001-.116.243.243 0 0 0-.033-.092c-.002-.003-.004-.006-.01-.002s-.004.007-.002.01a.224.224 0 0 1 .03.086.43.43 0 0 1 .003.095.1.1 0 0 0-.047-.063c-.018-.01-.03-.034-.031-.053a.76.76 0 0 1-.001-.1c0-.005.001-.01-.009-.011-.009-.001-.01.003-.01.008a.697.697 0 0 0 0 .099.546.546 0 0 0-.041.03.208.208 0 0 0 .01-.047c.002-.02 0-.04-.006-.06 0-.003-.002-.007-.01-.005-.006.002-.006.006-.005.01a.178.178 0 0 1-.008.111c-.005.012-.005.012-.017.024a.72.72 0 0 0 0-.144c0-.004-.001-.008-.009-.006-.007 0-.007.005-.006.008a.425.425 0 0 1 .004.078.768.768 0 0 1-.006.08v.003a.509.509 0 0 0-.037.047.482.482 0 0 1-.018-.145c0-.008.002-.02.005-.032a.135.135 0 0 0 .005-.04.216.216 0 0 1 .022-.036.088.088 0 0 1 .032-.027c.003-.002.006-.003.003-.01s-.006-.005-.01-.004a.104.104 0 0 0-.037.032.236.236 0 0 0-.024.038l-.01.02c-.004.013-.009.027-.018.03a.343.343 0 0 1-.11.028.123.123 0 0 0 .085-.08c.001-.003.003-.007-.004-.01-.007-.002-.009.001-.01.005a.12.12 0 0 1-.035.05.155.155 0 0 1-.065.03l-.017.002a.192.192 0 0 1-.011.001.146.146 0 0 0 .035-.031.175.175 0 0 0 .032-.06.162.162 0 0 1 .089-.1c.003-.001.007-.003.004-.01s-.006-.005-.01-.004a.17.17 0 0 0-.098.109.162.162 0 0 1-.028.055.143.143 0 0 1-.04.034.235.235 0 0 0 .016-.082c.002-.017.003-.036.008-.056.003-.015.018-.034.03-.05a.368.368 0 0 0 .008-.008c.003 0 .004-.002.006-.004a.354.354 0 0 1 .042-.05v-.001c.003-.003.006-.005 0-.01-.004-.006-.007-.004-.01-.001a.239.239 0 0 0-.036.04c-.006.003-.013.01-.021.016-.01.009-.022.019-.034.023a.284.284 0 0 1-.128.025.651.651 0 0 1 .084-.089c.027-.022.058-.036.086-.032.004 0 .008 0 .009-.006 0-.008-.003-.008-.007-.009-.032-.004-.067.01-.098.035a.548.548 0 0 0-.073.076l.005-.012.004-.009a.349.349 0 0 1 .048-.083.227.227 0 0 1 .075-.063c.003-.001.006-.003.003-.01-.003-.006-.007-.005-.01-.003a.246.246 0 0 0-.08.066.355.355 0 0 0-.044.074.292.292 0 0 1 .014-.054.177.177 0 0 1 .062-.086.434.434 0 0 1 .008-.006c.011-.008.02-.014.02-.018a.092.092 0 0 1 .053-.02c.004-.002.007-.002.006-.01-.001-.007-.005-.006-.009-.006a.175.175 0 0 0-.052.02.244.244 0 0 0-.03.016c-.006 0-.013.003-.023.007l-.008.004a.289.289 0 0 1-.158.024.615.615 0 0 1 .052-.023.222.222 0 0 1 .062-.015c.004 0 .008 0 .007-.008 0-.008-.004-.008-.008-.007a.244.244 0 0 0-.066.016c-.02.008-.04.018-.06.028-.013.005-.023 0-.035-.007l-.005-.002a.134.134 0 0 0 .045-.091.449.449 0 0 1 .072-.063c.025-.015.05-.024.075-.018.004 0 .007.002.009-.006.002-.007-.002-.008-.006-.009-.03-.007-.058.003-.085.02a.408.408 0 0 0-.063.053v-.004c.001-.064.044-.116.099-.121a.187.187 0 0 0 .025-.004.991.991 0 0 0 .104.013c.004 0 .007 0 .008-.007 0-.008-.004-.008-.008-.008-.02-.001-.036-.003-.054-.006h-.008a.834.834 0 0 1-.063-.011h-.002l-.015-.004a.284.284 0 0 1-.204-.156.29.29 0 0 0 .13.055c.02.004.038.01.053.017a.135.135 0 0 1 .038.031c.003.003.006.006.011 0 .006-.004.003-.007.001-.01a.16.16 0 0 0-.043-.034.2.2 0 0 0-.056-.02.322.322 0 0 1-.114-.044l.09-.004h.018c.034.008.07.02.097.034.027.014.045.03.047.05 0 .004.001.008.009.007.007 0 .007-.004.006-.008-.002-.026-.024-.047-.055-.063a.377.377 0 0 0-.056-.022l.024-.002c.028 0 .026-.016.004-.024a.18.18 0 0 1-.062-.049.463.463 0 0 1-.118-.265.231.231 0 0 0 .03.048.11.11 0 0 0 .053.037.2.2 0 0 0 .047.092.187.187 0 0 0 .092.051c.008.002.013-.009.007-.013a.255.255 0 0 1-.072-.08.174.174 0 0 1-.02-.09c0-.004 0-.008-.008-.008-.007 0-.008.003-.008.007a.19.19 0 0 0 .022.099c.01.02.025.039.043.057a.152.152 0 0 1-.045-.033.19.19 0 0 1-.044-.09c0-.002-.004-.005-.006-.006a.096.096 0 0 1-.05-.033.237.237 0 0 1-.032-.053.222.222 0 0 0 .086.014h.023a.38.38 0 0 1 .137.03.25.25 0 0 1 .034.032.415.415 0 0 0 .051.043c.003.002.007.004.01-.002.005-.006.002-.008-.001-.01a.437.437 0 0 1-.071-.066l.063-.008a.24.24 0 0 1 .06.022.092.092 0 0 1 .033.028c.002.004.004.006.01.002.007-.004.005-.007.003-.01a.105.105 0 0 0-.039-.033.205.205 0 0 0-.03-.014l.079-.008a.088.088 0 0 1 .03.027c.002.003.005.006.01.001.007-.004.005-.007.002-.01a.1.1 0 0 0-.016-.018l-.003-.003a4.635 4.635 0 0 1 .06-.003.08.08 0 0 1 .023.03c.002.003.003.006.01.003s.005-.006.004-.01a.086.086 0 0 0-.012-.018l-.007-.008a3.15 3.15 0 0 1 .082-.006l.004.003a.072.072 0 0 1 .028.026c.002.003.004.006.01.002s.005-.007.003-.01a.095.095 0 0 0-.02-.022l.085-.004c.028-.002.057-.002.086-.003l-.005.005a.08.08 0 0 0-.013.019c-.002.003-.003.006.003.01.007.003.009 0 .01-.004a.079.079 0 0 1 .026-.028.01.01 0 0 0 .003-.002h.082l-.002.002a.104.104 0 0 0-.014.025c-.001.004-.002.007.005.01.006.002.008-.001.009-.005a.082.082 0 0 1 .02-.03l.003-.002h.057l-.002.003a.115.115 0 0 0-.014.019c-.003.003-.005.006.002.01.006.004.008 0 .01-.002a.084.084 0 0 1 .027-.028l.076.003a.208.208 0 0 0-.025.013.107.107 0 0 0-.036.037c-.001.003-.003.006.003.01.007.004.009 0 .01-.003a.095.095 0 0 1 .032-.03.228.228 0 0 1 .052-.025c.022 0 .045.002.067.004a.43.43 0 0 1-.064.067c-.003.003-.006.005 0 .011.004.006.007.004.01.001a.422.422 0 0 0 .048-.046l.007-.01a.074.074 0 0 1 .028-.023Z" fill="#F7DB17"></path><path d="M31.984 9.35a1.79 1.79 0 0 0-.486-.04 2.204 2.204 0 0 0-.485.077c-.005.003-.003.017-.003.024.002.014.01.018.03.013.15-.037.302-.06.455-.066.16-.006.32-.001.485.034.008.004.017-.044.004-.042Z" fill="#F7DB17"></path><path fill-rule="evenodd" clip-rule="evenodd" d="M31.048 10.177c.157-.13.315-.203.475-.21.16-.006.322.058.488.203v-.221c-.004.016-.009.026-.014.026-.014.001-.03-.077-.036-.183a.766.766 0 0 1 .013-.236c.013-.03.03.023.039.121l.003-.296c-.177-.14-.35-.199-.523-.192a.92.92 0 0 0-.512.206l.025.284c.003-.055.01-.094.02-.094.016-.001.033.094.038.212.004.118-.005.214-.021.215-.003 0-.006-.003-.01-.01l.015.163v.012Zm.72-.751c-.028 0-.047.097-.042.215.004.118.03.213.058.212.02 0 .037-.057.041-.136a.157.157 0 0 0 .017-.08.156.156 0 0 0-.023-.08c-.01-.078-.03-.132-.052-.131Zm.05.131c-.008-.013-.02-.021-.032-.02-.027.003-.047.05-.044.104.002.054.025.098.052.1.012 0 .023-.01.031-.024a.843.843 0 0 0-.006-.16Zm-.309-.169c-.027.002-.046.098-.041.216.004.118.03.213.058.212.02 0 .037-.057.041-.135a.16.16 0 0 0 .016-.081.16.16 0 0 0-.022-.08c-.01-.078-.03-.132-.052-.132Zm.052.132c-.01-.013-.02-.021-.032-.02-.028 0-.049.047-.046.104.002.057.026.102.054.1.012 0 .022-.009.03-.023a.859.859 0 0 0-.006-.16Zm-.301-.08c-.019-.003-.034.038-.041.106a.857.857 0 0 0 .008.218c.012.067.031.107.05.103.02-.004.034-.058.038-.134a.155.155 0 0 0 .017-.082.155.155 0 0 0-.023-.08c-.01-.075-.029-.128-.05-.131Zm.05.13c-.01-.011-.02-.019-.03-.02-.029.002-.05.048-.048.105.003.057.027.102.056.1.01-.001.02-.01.027-.022a.845.845 0 0 0-.006-.163Z" fill="#F7DB17"></path><path fill-rule="evenodd" clip-rule="evenodd" d="M31.602 9.036a.075.075 0 0 0-.033-.04.124.124 0 0 0-.058-.019c-.01 0-.013-.013-.003-.016a.095.095 0 0 0 .047-.033.137.137 0 0 0 .027-.062c.001-.008.02-.01.021-.001.006.02.018.035.032.048.018.015.04.025.061.03.01.003.008.015-.002.016a.074.074 0 0 0-.042.023.126.126 0 0 0-.03.053c-.002.008-.018.008-.02 0Zm.009-.028a.129.129 0 0 1 .023-.036.096.096 0 0 1 .03-.021.176.176 0 0 1-.045-.027.132.132 0 0 1-.024-.026.144.144 0 0 1-.021.038.124.124 0 0 1-.033.029c.016.004.03.01.043.017.01.007.02.016.027.026Zm.137 1.288.156-.078c.006-.003.011-.006.006-.017-.004-.012-.01-.01-.015-.007l-.156.078c-.005.003-.01.005-.006.017.005.012.01.01.015.007Zm.171-.164-.183.087c-.005.002-.01.005-.016-.003s0-.01.004-.013l.184-.087c.005-.002.01-.004.016.003.005.008 0 .01-.004.013Zm-.375.079-.19-.073c-.005-.002-.01-.004-.015.004-.005.008 0 .01.005.012l.19.073c.005.002.01.004.015-.004.006-.009 0-.01-.004-.013Zm-.17.003.161.066c.006.002.011.004.007.016-.003.013-.009.01-.014.008l-.162-.066c-.006-.002-.011-.004-.007-.016.003-.012.009-.01.014-.008Zm.183.103a.37.37 0 0 1-.11-.004c-.006 0-.012-.001-.014.007-.003.009.003.01.009.01.045.007.087.01.12.004a.104.104 0 0 0 .065-.034c.016.017.04.025.068.028a.397.397 0 0 0 .12-.012c.005 0 .01-.002.008-.01-.003-.01-.009-.008-.014-.007a.366.366 0 0 1-.11.012c-.027-.003-.048-.012-.06-.031v-.004l-.005-.114a.476.476 0 0 0 .084-.014.148.148 0 0 0 .07-.037c.016-.017.024-.037.02-.056-.003-.014-.013-.024-.026-.03a.12.12 0 0 0-.052-.01.284.284 0 0 0-.05.006l-.008.001a.283.283 0 0 1-.014.003c-.005 0-.011.001-.01.01.003.008.008.008.014.007l.024-.004a.246.246 0 0 1 .043-.005c.015 0 .03.002.04.007.008.004.014.01.016.018.003.014-.003.03-.016.043a.128.128 0 0 1-.058.03.466.466 0 0 1-.189.008c-.026-.004-.04-.015-.048-.03-.011-.02-.008-.047-.003-.066.002-.005.003-.009-.009-.01-.01-.002-.012.002-.013.006-.007.023-.01.053.004.078.01.019.03.034.064.04a.457.457 0 0 0 .094.006l.004.117c-.01.02-.03.032-.058.037Zm.002.05.123-.015h.001c.006 0 .011 0 .013.044.002.045-.004.045-.01.045l-.123.016c-.007 0-.012 0-.014-.044-.002-.045.004-.045.01-.045Zm.283-.82a.869.869 0 0 0-.128.075c-.005.003-.01.006-.002.013.008.006.012.003.017 0a.818.818 0 0 1 .124-.073.252.252 0 0 1 .098-.027c.006 0 .012 0 .012-.009s-.005-.009-.011-.009c-.033 0-.07.011-.11.03Zm-.315.096a.65.65 0 0 0-.14-.07.282.282 0 0 0-.113-.019c-.006 0-.012.001-.013-.007-.001-.01.004-.01.01-.01a.312.312 0 0 1 .126.02.688.688 0 0 1 .145.072c.005.003.01.005.002.012s-.012.004-.017.001Zm-.016.186a.225.225 0 0 0-.04.054c-.003.004-.005.008.006.011.01.003.012 0 .015-.005a.205.205 0 0 1 .037-.049.355.355 0 0 1 .049-.04c.004-.003.008-.006 0-.012-.006-.007-.011-.004-.015 0a.381.381 0 0 0-.052.041Zm.058-.361a.165.165 0 0 1 .052.117.209.209 0 0 1 0 .059.115.115 0 0 1-.027.06.093.093 0 0 1-.05.028.122.122 0 0 1-.051 0c.01.024.018.049.005.073-.003.005-.01.007-.016.005a1.099 1.099 0 0 0-.08-.024.523.523 0 0 1-.074-.024.17.17 0 0 1-.048-.027.088.088 0 0 1-.028-.039.15.15 0 0 1-.008-.04.774.774 0 0 1-.061-.026.314.314 0 0 1-.051-.03c-.005-.002-.008-.005 0-.012.008-.006.012-.003.016 0a.292.292 0 0 0 .047.027l.064.026a.44.44 0 0 1 .116.021.673.673 0 0 1 .105.045l.003.002.003.001.005.003a.095.095 0 0 0 .047.002.067.067 0 0 0 .037-.022.1.1 0 0 0 .024-.051.198.198 0 0 0 0-.056.148.148 0 0 0-.047-.107c-.003-.004-.007-.007.002-.013.009-.005.012-.002.016.001Zm-.204.21c.033.011.065.025.098.042l.002.004v.003c.01.02.02.043.015.063a.898.898 0 0 0-.071-.02.517.517 0 0 1-.07-.023.153.153 0 0 1-.041-.024.07.07 0 0 1-.024-.032.137.137 0 0 1-.007-.032c.033.003.065.01.098.02Zm.329-.205a.144.144 0 0 0-.038.11v.001c-.001.019 0 .038.004.056a.104.104 0 0 0 .027.05c.01.01.024.015.039.018.015.002.031 0 .047-.006l.007-.005.002-.001a.287.287 0 0 0 .322-.145c.005-.003.009-.006.017 0 .009.005.005.009 0 .012a.316.316 0 0 1-.048.033.83.83 0 0 1-.059.03.145.145 0 0 1-.005.041.089.089 0 0 1-.026.042v-.001a.168.168 0 0 1-.045.031.545.545 0 0 1-.072.03.553.553 0 0 0-.078.03c-.005.002-.013 0-.016-.004-.015-.023-.009-.05 0-.073a.119.119 0 0 1-.051.003.09.09 0 0 1-.052-.024.116.116 0 0 1-.033-.057.216.216 0 0 1-.004-.06.163.163 0 0 1 .043-.12c.003-.004.006-.007.016-.002s.006.008.002.012Zm.2.186a.425.425 0 0 1 .097-.027.133.133 0 0 1-.005.032.073.073 0 0 1-.02.033.149.149 0 0 1-.04.027.526.526 0 0 1-.068.028.557.557 0 0 0-.07.026c-.006-.02.002-.043.01-.064l.002-.007a.628.628 0 0 1 .094-.048Z" fill="#000"></path><path fill-rule="evenodd" clip-rule="evenodd" d="M32.078 10.136c-.01-.273.027-.496.084-.498.055.006.108.223.118.49.01.267-.026.487-.08.498-.057.002-.111-.218-.122-.49Zm.033-.003c-.007-.185.019-.336.057-.338.038-.001.075.148.082.333.007.184-.018.336-.056.338-.039.001-.076-.148-.083-.333Zm.07-.201c-.027 0-.046.09-.041.2.004.11.03.198.057.197.028-.001.047-.091.042-.2-.004-.11-.03-.199-.057-.197Zm-.699.237c-.01-.272-.065-.491-.12-.49-.056.011-.091.231-.081.498.01.268.063.485.118.49.057-.002.094-.227.083-.498Zm-.115-.332c.038-.001.075.148.082.333.007.185-.018.337-.056.338-.038.001-.075-.148-.082-.333-.008-.185.018-.336.056-.338Zm.061.235c-.01-.062-.029-.099-.047-.098-.027 0-.046.09-.042.2.004.11.03.198.058.197.017 0 .032-.04.039-.1a.738.738 0 0 0-.008-.2Z" fill="#000"></path><path d="M33.546 8.719c-.004 0-.01.002-.017.01l-.135.165c-.047.013-.06.04-.043.081-.062-.008-.07.043-.075.1-.056-.092-.12-.12-.19-.08-.001-.055-.042-.082-.1-.097a.196.196 0 0 1-.103-.038c-.014-.011-.025-.017-.04-.027-.028-.022-.053-.003-.04.016l.178.315a.044.044 0 0 0 .019.05l.03.095-.01.026c-.05-.027-.103-.032-.156-.037-.04-.004-.067-.015-.084-.036-.012-.015-.021-.007-.022.019a.493.493 0 0 0 .128.358 6.395 6.395 0 0 0-.165 0c-.018 0-.022.007-.018.023.027.073.075.14.188.189a.155.155 0 0 0-.09.12c-.004.053-.02.09-.054.106-.014.007-.02.014-.006.025.058.046.132.05.21.034a.331.331 0 0 0-.054.2.25.25 0 0 0 .146-.007.232.232 0 0 0-.015.073.19.19 0 0 1-.028.08c-.008.008-.016.02 0 .024a.351.351 0 0 0 .217-.003.573.573 0 0 0 .011.173c.004.014.016.025.03.008a.43.43 0 0 1 .13-.118c.006.021.016.04.034.052.023.014.034.042.033.083 0 .007 0 .014.008.021.035.004.125-.085.145-.136.048.031.065.061.1.114.012.018.023.007.03-.005a.674.674 0 0 0 .022-.171.35.35 0 0 0 .217.02c.016-.004.009-.017.002-.025a.225.225 0 0 1-.024-.087c0-.032-.001-.054-.008-.069.048.019.095.03.145.018a.33.33 0 0 0-.042-.203c.078.022.155.023.216-.018.014-.01.01-.017-.005-.025-.031-.019-.045-.057-.046-.11a.155.155 0 0 0-.08-.126.315.315 0 0 0 .202-.174c.006-.016.003-.024-.016-.026-.055-.004-.113-.01-.168-.013a.498.498 0 0 0 .157-.348c0-.026-.008-.035-.022-.02-.018.02-.043.03-.083.031-.053.002-.104.002-.157.024l-.006-.027c.012-.03.027-.06.04-.091.02-.012.025-.029.022-.048.067-.1.13-.2.197-.301.013-.018-.01-.039-.04-.02-.015.01-.027.015-.041.024a.2.2 0 0 1-.105.03c-.06.011-.1.037-.105.09-.068-.043-.133-.022-.195.066 0-.057-.006-.108-.068-.105.02-.039.007-.069-.039-.085-.042-.06-.104-.115-.146-.176-.007-.009-.012-.012-.016-.012Z" fill="#000"></path><path fill-rule="evenodd" clip-rule="evenodd" d="M32.953 9.032c.025-.024.056.019.07.095.014.076.011.16-.013.185-.025.024-.046-.025-.06-.102-.015-.076-.022-.154.003-.178Zm1.22.047c-.023-.026-.057.014-.077.089-.02.075-.021.164.001.19.017.02.038-.004.056-.052l.01-.034.003-.009c.02-.075.028-.157.007-.182v-.002Zm-.202.928c.002-.031.026-.056.053-.055.027 0 .048.028.047.059 0 .032-.024.056-.052.055-.028-.001-.049-.028-.048-.06Zm-.902-.092c-.028-.001-.051.024-.053.055 0 .032.02.058.048.06.028 0 .051-.024.052-.056.002-.032-.02-.058-.047-.06Zm.462-.407c.178.007.355.055.53.15.005.004-.001.085-.01.081a1.184 1.184 0 0 0-.523-.145 1.45 1.45 0 0 0-.539.089c-.008.003-.006-.076 0-.084a1.45 1.45 0 0 1 .542-.09Z" fill="#F7DB17"></path><path fill-rule="evenodd" clip-rule="evenodd" d="M33.545 9.144a5.507 5.507 0 0 0-.544.007l-.022-.04a.028.028 0 0 0 .008-.002c.018-.008.023-.037.01-.064-.012-.028-.037-.043-.055-.035a.027.027 0 0 0-.013.013l-.093-.165.006.004c.044.03.072.05.13.06.065.013.095.036.088.077-.006.037.008.032.043.014.076-.037.13.022.155.09.015.045.036.044.04-.002 0-.016.002-.033.005-.049.007-.053.021-.066.05-.05.038.02.042.007.033-.012l-.006-.013c-.007-.01-.015-.024-.01-.04.003-.016.016-.02.036-.021l.07-.084.069-.083c.02.03.047.059.073.089.027.03.053.059.074.089.02.002.033.008.035.024.003.018-.005.03-.013.043l-.005.009c-.01.02-.007.032.032.015.03-.014.046.002.049.055v.047c0 .046.02.048.04.005.028-.066.084-.121.157-.078.033.02.056.027.048-.01-.008-.04.023-.063.09-.07a.297.297 0 0 0 .135-.051l.005-.003-.112.17c-.001-.012-.006-.022-.015-.027-.018-.01-.044.004-.058.03-.015.027-.012.056.006.066a.028.028 0 0 0 .02.002l-.027.042a4.465 4.465 0 0 0-.534-.052Zm.486.263h.002a.375.375 0 0 1 .155-.032c.03 0 .06-.002.086-.014a.235.235 0 0 1-.032.053.098.098 0 0 1-.05.033c-.003 0-.006.004-.006.006a.192.192 0 0 1-.044.09.152.152 0 0 1-.046.033.235.235 0 0 0 .043-.058.19.19 0 0 0 .023-.098c0-.004 0-.008-.008-.007-.008 0-.007.004-.007.007a.177.177 0 0 1-.02.092.243.243 0 0 1-.07.079c-.006.004 0 .014.006.013a.178.178 0 0 0 .09-.051.2.2 0 0 0 .046-.093.114.114 0 0 0 .054-.037.225.225 0 0 0 .03-.045.496.496 0 0 1-.119.263.174.174 0 0 1-.061.049c-.023.007-.024.023.003.024l.025.001a.383.383 0 0 0-.056.023c-.03.016-.053.036-.056.063 0 .003 0 .007.007.008.007 0 .008-.003.008-.007.002-.02.021-.037.048-.05a.499.499 0 0 1 .096-.035 11.186 11.186 0 0 0 .11.005.322.322 0 0 1-.114.044.203.203 0 0 0-.057.02.158.158 0 0 0-.043.034c-.003.003-.005.006 0 .01.006.005.009.003.011 0a.143.143 0 0 1 .04-.03.184.184 0 0 1 .051-.019.329.329 0 0 0 .131-.054.285.285 0 0 1-.204.155l-.03.006c-.016.002-.025.004-.026.013-.001.009.012.008.027.008h.016c.055.006.098.058.099.122v.004a.395.395 0 0 0-.063-.053.112.112 0 0 0-.085-.02c-.004.001-.008.002-.006.01.002.006.005.006.009.005.025-.006.05.002.074.018a.45.45 0 0 1 .072.062h.001a.133.133 0 0 0 .045.092.197.197 0 0 0-.005.003c-.012.007-.022.012-.034.006a.695.695 0 0 0-.06-.028.237.237 0 0 0-.067-.016c-.004 0-.008 0-.008.007s.003.008.007.008a.221.221 0 0 1 .062.015.622.622 0 0 1 .052.024.288.288 0 0 1-.157-.025l-.013-.006c-.013-.006-.026-.013-.036-.014l-.01-.006-.012-.009a.177.177 0 0 0-.043-.015c-.004 0-.007 0-.008.007-.002.007.002.008.006.008a.17.17 0 0 1 .038.014l.007.003.008.003c0 .006.014.017.028.028a.27.27 0 0 1 .02.017.177.177 0 0 1 .041.07.27.27 0 0 1 .014.054.358.358 0 0 0-.045-.075.249.249 0 0 0-.08-.066c-.002-.002-.006-.003-.01.003-.002.007 0 .009.004.01.03.016.054.038.075.063.02.025.036.054.049.083l.004.012.002.007a.51.51 0 0 0-.071-.073c-.03-.025-.062-.04-.094-.035-.004 0-.007 0-.006.008 0 .008.004.007.008.007.028-.004.055.009.082.031a.638.638 0 0 1 .084.089.282.282 0 0 1-.127-.025c-.012-.005-.023-.014-.031-.021-.012-.01-.02-.018-.027-.011-.005.005.004.016.015.03a.14.14 0 0 1 .028.047c.005.02.006.038.007.056a.235.235 0 0 0 .017.082.137.137 0 0 1-.07-.09.177.177 0 0 0-.097-.108c-.003-.001-.007-.002-.01.004-.002.007.001.009.004.01a.163.163 0 0 1 .089.1.158.158 0 0 0 .067.092.207.207 0 0 1-.093-.034.12.12 0 0 1-.035-.05c-.001-.004-.003-.007-.01-.004-.006.002-.005.005-.004.009.01.024.022.043.04.057.012.01.027.018.045.023a.342.342 0 0 1-.107-.027c-.007-.005-.012-.016-.016-.028-.005-.012-.009-.023-.016-.024a.226.226 0 0 0-.023-.037.104.104 0 0 0-.037-.032c-.004-.001-.007-.003-.01.004s0 .008.004.01a.086.086 0 0 1 .032.027c.008.01.015.023.022.036 0 .01.003.024.006.039a.157.157 0 0 1 .007.034.486.486 0 0 1-.022.144l-.009-.014-.025-.034v-.002a.777.777 0 0 1-.006-.079c-.001-.026 0-.053.004-.077 0-.004.001-.008-.006-.009-.007-.001-.008.003-.009.006a.423.423 0 0 0-.004.081c0 .02.002.04.004.06a.346.346 0 0 0-.016-.015l-.001-.006a.19.19 0 0 1-.014-.057.153.153 0 0 1 .005-.054c.001-.004.002-.008-.005-.01s-.008.002-.009.005a.173.173 0 0 0 .003.103.376.376 0 0 0-.014-.01l-.005-.004-.007.005a.042.042 0 0 1-.005.004l-.002-.018a.103.103 0 0 0-.008-.026c-.002-.004-.004-.007-.01-.004-.007.003-.005.006-.004.01a.083.083 0 0 1 .006.018c.004.072-.052.11-.08.131l-.009.006a.447.447 0 0 0 .008-.115.242.242 0 0 0-.026-.095c-.001-.003-.003-.006-.01-.003-.006.004-.005.007-.003.01a.224.224 0 0 1 .024.089c.002.028 0 .06-.005.095a.1.1 0 0 0-.041-.067c-.018-.011-.027-.036-.028-.056a.783.783 0 0 1 .007-.099c.001-.005.002-.01-.007-.012-.01-.002-.01.003-.012.007a.686.686 0 0 0-.007.099.595.595 0 0 0-.043.028.211.211 0 0 0 .013-.047.166.166 0 0 0-.001-.06c0-.004-.001-.007-.009-.006-.007.001-.007.005-.006.009a.178.178 0 0 1-.017.11v.001c-.006.011-.006.011-.019.023a.707.707 0 0 0 .011-.144c0-.004 0-.008-.008-.007-.007 0-.007.004-.007.008a.734.734 0 0 1-.014.16.482.482 0 0 0-.04.043.484.484 0 0 1-.007-.145c0-.008.003-.02.007-.031.004-.015.009-.03.008-.04a.207.207 0 0 1 .025-.035.088.088 0 0 1 .033-.024c.004-.001.007-.003.005-.01-.003-.007-.006-.005-.01-.004a.103.103 0 0 0-.04.029.231.231 0 0 0-.037.055c-.005.012-.012.026-.021.029a.345.345 0 0 1-.111.02.122.122 0 0 0 .047-.02.137.137 0 0 0 .043-.054c.002-.003.003-.007-.004-.01-.006-.003-.008 0-.01.003a.123.123 0 0 1-.038.048.155.155 0 0 1-.067.025h-.017l-.012.001a.15.15 0 0 0 .038-.029.176.176 0 0 0 .036-.058.161.161 0 0 1 .096-.092c.004-.001.007-.002.005-.01-.002-.006-.006-.005-.01-.004a.17.17 0 0 0-.105.1.164.164 0 0 1-.032.054.145.145 0 0 1-.043.03.235.235 0 0 0 .023-.08c.002-.017.005-.035.011-.055.005-.015.021-.033.035-.047a.543.543 0 0 0 .014-.012.342.342 0 0 1 .046-.047c.003-.003.006-.005.002-.011-.005-.006-.008-.004-.01-.001a.228.228 0 0 0-.04.038c-.006.001-.014.007-.023.013-.01.008-.023.017-.035.02a.283.283 0 0 1-.13.016.654.654 0 0 1 .09-.082c.03-.02.062-.032.09-.026.003.001.007.002.008-.005.002-.008-.002-.009-.005-.01-.032-.006-.069.006-.1.028a.55.55 0 0 0-.08.07.049.049 0 0 1 .006-.012l.005-.008a.348.348 0 0 1 .055-.08.227.227 0 0 1 .079-.056c.003-.002.006-.003.004-.01-.003-.006-.007-.005-.01-.004a.247.247 0 0 0-.084.06.356.356 0 0 0-.05.07.29.29 0 0 1 .017-.053.176.176 0 0 1 .069-.08.416.416 0 0 1 .009-.006c.011-.007.021-.013.022-.016a.093.093 0 0 1 .053-.017c.004 0 .007 0 .007-.008s-.004-.007-.008-.007a.18.18 0 0 0-.044.012l-.01.004a.243.243 0 0 0-.031.013c-.006 0-.014.002-.024.006l-.008.002a.288.288 0 0 1-.159.013.657.657 0 0 1 .053-.02.227.227 0 0 1 .064-.01c.004 0 .007 0 .007-.007 0-.008-.004-.008-.007-.008a.246.246 0 0 0-.068.011c-.021.006-.042.015-.063.023-.012.004-.021-.002-.033-.01l-.005-.002a.134.134 0 0 0 .052-.087.45.45 0 0 1 .077-.057c.025-.014.05-.02.076-.012.003 0 .007.002.01-.005.002-.007-.002-.009-.006-.01-.03-.009-.058-.002-.087.013a.403.403 0 0 0-.066.048v-.004c.006-.063.053-.112.108-.113.01 0 .019 0 .025-.002l.04.01c.022.004.04.008.063.011.004 0 .007 0 .008-.006.001-.008-.002-.008-.006-.009-.02-.002-.036-.006-.054-.01h-.008a.854.854 0 0 1-.062-.016h-.002l-.015-.006a.284.284 0 0 1-.191-.17.297.297 0 0 0 .126.064c.02.005.036.012.05.022.015.009.027.02.037.033.002.003.005.006.01.002.006-.005.004-.008.002-.011a.159.159 0 0 0-.04-.037.201.201 0 0 0-.055-.024.322.322 0 0 1-.11-.053l.09.003h.018a.472.472 0 0 1 .094.042c.026.016.043.034.044.055 0 .003 0 .007.007.007.008 0 .008-.004.008-.008-.001-.026-.022-.048-.051-.067a.38.38 0 0 0-.054-.027l.025.001c.027 0 .027-.015.005-.024a.178.178 0 0 1-.058-.053.463.463 0 0 1-.098-.274.23.23 0 0 0 .026.05.11.11 0 0 0 .051.04.2.2 0 0 0 .04.097.186.186 0 0 0 .088.058c.007.002.013-.008.007-.013a.255.255 0 0 1-.065-.085.174.174 0 0 1-.014-.092c0-.004 0-.008-.006-.008-.008-.001-.008.002-.009.006a.19.19 0 0 0 .015.1c.008.02.021.041.038.061a.152.152 0 0 1-.043-.037.189.189 0 0 1-.037-.093c0-.002-.003-.005-.005-.006a.096.096 0 0 1-.048-.037.235.235 0 0 1-.027-.055.221.221 0 0 0 .085.02l.022.003c.052.007.09.017.135.04a.937.937 0 0 0 .03.034c.014.015.03.03.05.047.002.002.005.005.01-.001.004-.006.002-.008-.001-.01a.43.43 0 0 1-.066-.072 2.77 2.77 0 0 1 .063-.003c.021.007.041.016.058.027.014.008.025.019.031.03.002.004.004.007.01.004.007-.004.005-.007.004-.01a.104.104 0 0 0-.037-.037.203.203 0 0 0-.028-.016l.079-.002a.087.087 0 0 1 .028.03c.002.002.004.006.01.002.007-.004.005-.008.003-.01a.105.105 0 0 0-.015-.02l-.003-.003a4.597 4.597 0 0 1 .06.002.074.074 0 0 1 .021.03c.001.004.003.008.01.005.007-.002.005-.006.004-.01a.085.085 0 0 0-.01-.019l-.006-.008h.081l.004.003a.08.08 0 0 1 .026.028c.002.004.004.007.01.003.007-.003.005-.006.003-.01a.094.094 0 0 0-.013-.018l-.004-.005h-.001a5.028 5.028 0 0 1 .172.006l-.005.005a.081.081 0 0 0-.015.017c-.002.004-.004.007.002.01.007.005.009.002.01-.002a.066.066 0 0 1 .013-.014.08.08 0 0 1 .016-.012l.003-.002.081.006-.002.002a.101.101 0 0 0-.016.024c-.001.004-.003.007.004.01s.008 0 .01-.004a.08.08 0 0 1 .023-.029l.002-.001.057.005-.002.002a.115.115 0 0 0-.016.018c-.003.003-.005.006.001.01.006.005.009.002.01-.001a.101.101 0 0 1 .03-.026l.075.009a.208.208 0 0 0-.025.012.106.106 0 0 0-.039.033c-.002.003-.004.006.002.01.007.004.009.001.01-.002a.095.095 0 0 1 .034-.028.229.229 0 0 1 .054-.02c.022.002.044.006.067.01a.437.437 0 0 1-.069.062c-.003.001-.006.004-.002.01s.007.004.01.002a.41.41 0 0 0 .052-.043l.008-.008a.074.074 0 0 1 .025-.02l.004-.002Z" fill="#F7DB17"></path><path d="M34.02 9.396a1.79 1.79 0 0 0-.482-.077 2.204 2.204 0 0 0-.49.039c-.005.003-.004.017-.004.023 0 .015.008.018.028.015.154-.025.306-.036.46-.03.16.006.32.023.48.07.008.006.02-.042.007-.04Z" fill="#F7DB17"></path><path fill-rule="evenodd" clip-rule="evenodd" d="M33.023 10.148c.166-.117.33-.179.49-.172.16.006.317.081.47.239l.017-.22c-.005.015-.01.025-.015.025-.015 0-.024-.08-.022-.186a.764.764 0 0 1 .03-.234c.015-.028.028.025.03.124l.026-.295c-.166-.153-.335-.225-.506-.232a.921.921 0 0 0-.527.166l.003.285c.007-.055.017-.093.028-.092.016 0 .025.096.02.214-.004.118-.02.214-.037.213-.003 0-.006-.004-.008-.01l.001.163v.012Zm.775-.694c-.028-.001-.054.094-.059.212-.004.118.015.214.042.215.021.001.041-.054.052-.132a.157.157 0 0 0 .022-.079.157.157 0 0 0-.016-.081c-.005-.079-.02-.134-.041-.135Zm.04.135c-.007-.014-.018-.023-.03-.023-.027.002-.05.046-.053.1-.002.055.018.1.045.105.012 0 .023-.008.033-.022a.854.854 0 0 0 .006-.16Zm-.295-.192c-.027 0-.053.094-.058.212-.005.118.014.215.042.216.02 0 .04-.054.051-.132a.16.16 0 0 0 .022-.08.16.16 0 0 0-.016-.08c-.004-.08-.02-.135-.04-.136Zm.041.136c-.008-.015-.018-.024-.03-.024-.028-.001-.052.044-.054.1-.002.058.019.104.046.105.012 0 .023-.007.032-.02a.831.831 0 0 0 .006-.161Zm-.294-.104c-.018-.004-.036.036-.048.103a.852.852 0 0 0-.009.218c.007.068.023.109.041.106.02-.002.04-.055.05-.13a.155.155 0 0 0 .023-.08.156.156 0 0 0-.017-.083c-.005-.075-.02-.13-.04-.134Zm.04.134c-.008-.012-.017-.02-.028-.022-.029-.001-.053.043-.055.1-.003.058.018.104.047.105.01 0 .02-.008.03-.02a.85.85 0 0 0 .006-.163Z" fill="#F7DB17"></path><path fill-rule="evenodd" clip-rule="evenodd" d="M33.662 9.053a.074.074 0 0 0-.029-.043.123.123 0 0 0-.057-.023c-.01-.001-.011-.014-.002-.016a.095.095 0 0 0 .05-.03.137.137 0 0 0 .032-.06c.002-.007.02-.007.021.001.004.02.015.037.028.05a.152.152 0 0 0 .059.036c.01.003.007.015-.003.016a.074.074 0 0 0-.045.018.126.126 0 0 0-.033.052c-.002.007-.02.006-.021-.002Zm.012-.028a.13.13 0 0 1 .026-.034.096.096 0 0 1 .031-.018.173.173 0 0 1-.043-.03.132.132 0 0 1-.021-.029.144.144 0 0 1-.025.037.124.124 0 0 1-.034.026.143.143 0 0 1 .04.021c.01.008.02.017.026.027Zm.038 1.295.162-.066c.005-.002.01-.004.007-.016-.004-.013-.01-.01-.015-.008l-.162.066c-.005.002-.01.004-.007.016.004.013.01.01.015.008Zm.183-.15-.19.072c-.005.002-.01.004-.015-.004-.005-.008 0-.01.005-.012l.19-.073c.005-.002.01-.004.015.005.005.008 0 .01-.005.012Zm-.38.05-.183-.088c-.006-.002-.01-.004-.016.003-.006.008-.001.01.004.013l.183.087c.006.002.01.005.016-.003s.001-.01-.004-.012Zm-.17-.01.156.078c.005.002.01.005.006.017-.005.012-.01.01-.016.007l-.156-.078c-.005-.003-.01-.006-.006-.017.005-.013.01-.01.015-.007Zm.175.116a.369.369 0 0 1-.11-.011c-.006-.002-.012-.003-.014.005-.004.009.002.01.008.011.044.01.085.016.12.012a.104.104 0 0 0 .067-.028.104.104 0 0 0 .065.034.4.4 0 0 0 .12-.003c.006-.001.011-.002.01-.01-.003-.01-.009-.009-.014-.008a.364.364 0 0 1-.111.003c-.027-.004-.046-.015-.057-.035v-.004l.004-.114c.03 0 .06-.002.085-.007a.15.15 0 0 0 .072-.032c.018-.016.027-.035.025-.054-.002-.015-.011-.025-.024-.033a.119.119 0 0 0-.051-.014c-.017 0-.033.001-.05.003h-.008l-.014.002c-.006 0-.012 0-.01.01 0 .008.006.008.012.007a.79.79 0 0 0 .024-.002.234.234 0 0 1 .044-.002.093.093 0 0 1 .04.01c.007.005.013.011.014.02.002.014-.005.029-.02.041a.128.128 0 0 1-.06.027.472.472 0 0 1-.189-.007c-.025-.006-.039-.019-.045-.033-.01-.022-.005-.048.002-.068.002-.004.003-.008-.008-.01-.01-.003-.012 0-.014.005-.008.022-.014.053-.002.078.009.02.027.036.06.045.028.007.06.012.094.013l-.005.117c-.012.02-.033.03-.06.032Zm-.003.051.125-.006c.006 0 .012 0 .01.045-.001.045-.007.045-.013.044l-.125.006c-.006 0-.011 0-.01-.044.002-.045.008-.045.013-.045Zm.345-.797a.868.868 0 0 0-.133.066c-.005.002-.01.005-.002.012.007.007.012.005.016.002a.817.817 0 0 1 .13-.064.252.252 0 0 1 .1-.019c.005 0 .011.001.012-.008 0-.009-.005-.009-.01-.01a.273.273 0 0 0-.113.021Zm-.32.072a.648.648 0 0 0-.135-.08.282.282 0 0 0-.111-.028c-.006 0-.012 0-.012-.008-.001-.01.005-.01.01-.01a.311.311 0 0 1 .124.03c.047.02.096.05.14.083.004.004.008.007 0 .013-.008.006-.012.003-.016 0Zm-.031.185a.226.226 0 0 0-.044.05c-.003.004-.005.008.005.012s.013 0 .015-.004a.205.205 0 0 1 .04-.046.356.356 0 0 1 .053-.036c.005-.003.009-.006.002-.013-.007-.007-.012-.004-.016-.001a.386.386 0 0 0-.055.038Zm.086-.356a.165.165 0 0 1 .043.12c0 .02 0 .04-.005.06a.116.116 0 0 1-.032.057.093.093 0 0 1-.052.024.122.122 0 0 1-.05-.003c.008.024.013.05-.002.073-.002.004-.01.006-.015.003a1.082 1.082 0 0 0-.078-.03.52.52 0 0 1-.072-.029.169.169 0 0 1-.046-.031.088.088 0 0 1-.025-.041.154.154 0 0 1-.005-.041.793.793 0 0 1-.059-.03.31.31 0 0 1-.048-.033c-.005-.004-.008-.007 0-.013.009-.005.013-.002.016.001a.766.766 0 0 0 .107.062.44.44 0 0 1 .114.03c.032.013.064.03.096.05l.005.002.003.002.003.002.005.003a.094.094 0 0 0 .047.006.067.067 0 0 0 .038-.019.1.1 0 0 0 .028-.05.191.191 0 0 0 .004-.055.148.148 0 0 0-.038-.11c-.003-.004-.007-.008.003-.013.009-.005.012-.001.016.002h-.001Zm-.22.195c.032.012.063.029.095.048v.004l.002.003c.007.021.016.045.009.064a.822.822 0 0 0-.07-.026h.001a.519.519 0 0 1-.068-.027.153.153 0 0 1-.04-.027.069.069 0 0 1-.02-.034.128.128 0 0 1-.005-.032.43.43 0 0 1 .096.027Zm.343-.18a.143.143 0 0 0-.046.107.195.195 0 0 0 0 .056c.003.018.01.036.024.052.01.01.022.018.037.021a.094.094 0 0 0 .047-.002l.008-.004.002-.001a.29.29 0 0 0 .333-.12c.004-.003.008-.006.016 0 .008.007.004.01 0 .013a.315.315 0 0 1-.052.03.838.838 0 0 1-.06.024.148.148 0 0 1-.009.041.088.088 0 0 1-.029.04.168.168 0 0 1-.047.027.542.542 0 0 1-.074.023.575.575 0 0 0-.08.024c-.006.002-.014 0-.016-.004-.013-.025-.005-.05.005-.073a.118.118 0 0 1-.05 0 .091.091 0 0 1-.05-.03.115.115 0 0 1-.029-.059.212.212 0 0 1 0-.059.166.166 0 0 1 .052-.117c.004-.003.007-.007.017 0 .008.005.005.008.001.011Zm.187.2a.425.425 0 0 1 .097-.02h.001a.132.132 0 0 1-.007.032.074.074 0 0 1-.023.032.15.15 0 0 1-.042.024.517.517 0 0 1-.07.023.571.571 0 0 0-.042.01l-.029.01c-.005-.02.005-.042.014-.063l.003-.007a.624.624 0 0 1 .098-.041Z" fill="#000"></path><path fill-rule="evenodd" clip-rule="evenodd" d="M34.053 10.186c.01-.273.065-.493.122-.49.054.01.09.23.08.497-.01.267-.063.485-.119.49-.056-.002-.093-.225-.083-.497Zm.033 0c.007-.185.044-.334.082-.333.039.001.064.153.057.338-.007.185-.044.334-.082.333-.039-.002-.064-.153-.057-.338Zm.086-.196c-.027 0-.053.087-.057.197-.005.11.014.2.042.2.027.001.053-.087.057-.196.005-.11-.014-.2-.042-.2Zm-.715.183c.01-.272-.028-.495-.084-.497-.055.006-.108.223-.118.49-.01.267.025.488.08.498.057.002.111-.22.121-.491Zm-.09-.34c.038.002.064.154.056.339-.007.184-.044.334-.082.332-.038-.001-.063-.153-.056-.338.007-.184.044-.334.082-.332Zm.043.239c-.006-.062-.021-.1-.04-.101-.027-.001-.053.087-.057.196-.004.11.015.2.042.201.018 0 .036-.036.047-.098a.742.742 0 0 0 .008-.198Z" fill="#000"></path><path d="m39.22 9.49-1.93-2.2-2.52 1.45-.43 5.11c1.221.099 2.432.3 3.62.6l1.26-4.95v-.01Z" fill="#171796"></path><path d="M35.27 9.8c.08-.02.17-.02.26.03.03.01.06.03.08.06.04-.03.07-.06.12-.08a.4.4 0 0 1 .18-.1c.09-.05.18-.08.27-.09h.28c.08 0 .16.02.23.06l.2.1c.08.04.15.08.22.1a.91.91 0 0 0 .45.05c.04-.02.07.01.02.04-.33.2-.59.02-.81-.06.075.05.145.108.21.17.08.08.18.16.35.24a.84.84 0 0 0 .5.07l.04.01-.01.05a.48.48 0 0 1-.26.07 1 1 0 0 1-.52-.13c-.14-.07-.23-.16-.33-.24a.75.75 0 0 0-.3-.14.6.6 0 0 0-.29 0c.03.01.05.02.06.04.05.03.1.04.2.05.04 0 .02.03-.05.07a.2.2 0 0 1-.16.08c-.1.06-.13.02-.17-.02 0 .03 0 .05-.02.08a.06.06 0 0 1 0 .04l.02.07c0 .02 0 .03.02.04.02.02.03.04.03.07 0 .02.01.03.03.04l.06.06c.06.02.08.07.1.12.04.02.06.05.07.09.02 0 .04.02.06.04l.26.01c.08.01.14.06.2.12h.12a.399.399 0 0 1 .13-.03h.23c.05.02.09.04.12.08.05.05.12.04.18.02a.27.27 0 0 1 .24 0 .23.23 0 0 1 .1-.02c.04-.03.07-.04.1-.04.06 0 .1 0 .09.08 0 .02-.02.04-.03.04-.03.06-.07.07-.13.07-.01.04-.03.07-.05.08.03.09 0 .13-.07.12 0 .03-.03.04-.06.04a.14.14 0 0 1-.1.05l.04.06c.04.07-.02.1-.08.1v.12c.07.04.08.08.02.12.04.07.03.13-.05.16 0 .04 0 .08-.03.1-.02.02-.05.03-.03.06.03.05.02.11-.02.12l-.02.01-.02.02a.957.957 0 0 0-.15.1c-.01 0-.02.01-.02 0a.963.963 0 0 1-.18.24c0 .05-.04.1-.1.11a.04.04 0 0 1-.03.04c.03.03.05.06.02.1a.3.3 0 0 1-.13.08c-.1.03-.17.02-.2-.02-.04-.03-.03-.06 0-.07-.07 0-.08-.02-.08-.07 0-.02.01-.02.03-.01.04 0 .07-.02.1-.03l.05-.06c0-.07.05-.1.11-.13.05-.02.1-.06.14-.12l.09-.15a.12.12 0 0 1-.03-.07.15.15 0 0 1-.05-.06c-.05 0-.07-.02-.07-.05a.108.108 0 0 1-.03 0c-.03.01-.05.03-.07.02a.691.691 0 0 1-.11.1c-.02.03-.04.05-.07.05-.1.01-.15.12-.2.17-.02.01-.03.04-.04.07 0 .06-.01.1-.04.1h-.04a.122.122 0 0 0-.04 0c.03.03.03.06 0 .09-.01.03-.04.04-.08.04a.36.36 0 0 1-.16-.02c-.04-.02-.05-.05-.05-.07-.03-.02-.04-.03-.03-.05 0-.02.02-.03.04-.02l.06-.02a.52.52 0 0 1 .18-.14.3.3 0 0 1 .07-.07c0-.05.05-.1.1-.14l.01-.06v-.03c-.02-.03-.03-.07-.01-.1a.13.13 0 0 1 0-.06c-.11.06-.15.04-.16-.01-.04.03-.08.05-.1 0-.04.01-.08.03-.12.01l-.08.02-.04.07c0 .05-.02.1-.05.15a.93.93 0 0 1-.07.15.1.1 0 0 1-.01.05c0 .06-.02.09-.05.1a.24.24 0 0 1-.04.08v.02c.01.03.01.07-.02.1l-.1.06h-.1c-.04-.03-.04-.04-.03-.06a.06.06 0 0 1-.05 0l-.04-.03c-.01-.02-.01-.04.01-.05l.09-.06c0-.02.02-.03.04-.04.02-.04.04-.06.06-.07l.07-.15c.01-.01.02-.03.01-.04l.01-.03s.02-.01 0-.02a.14.14 0 0 1 .02-.12c.03-.04.06-.14.03-.2v-.08h-.03c-.02-.02-.04 0-.06.02l-.04.06c-.01.08-.05.15-.1.16v.12c0 .04 0 .07-.02.07s-.04.02-.05.05a.1.1 0 0 0-.01.03c.03.03.02.07-.01.1-.06.06-.14.05-.22.03-.06-.03-.08-.05-.07-.08-.08 0-.07-.07 0-.09a.33.33 0 0 0 .19-.14c0-.08.02-.13.07-.14 0-.05.02-.1.04-.14.02-.04.03-.08.02-.13-.04-.03-.04-.06 0-.1.01 0 .01 0 0-.02-.03 0-.03-.03-.03-.05 0-.02 0-.02-.02-.02-.06-.01-.05-.04-.02-.07.01 0 .02-.03 0-.04l-.01-.04c-.04-.03-.02-.06 0-.09l-.04-.08c-.07 0-.1-.04-.06-.09a.337.337 0 0 1 .07-.06c.01-.03.03-.06.02-.08-.02-.06.05-.1.1-.14a.09.09 0 0 1-.01-.04c-.03-.03-.02-.06.01-.08a.1.1 0 0 1-.01-.05c-.08.02-.08-.03-.04-.1-.05-.03-.04-.08.05-.15a.1.1 0 0 1 0-.04.2.2 0 0 0-.1.03c-.03.03-.06.02-.09.01a.15.15 0 0 0-.04-.04.06.06 0 0 1-.02-.06c-.1 0-.11-.07-.06-.1.03-.03.06-.06.07-.09.02-.06.07-.1.13-.15v-.05a.16.16 0 0 0-.07-.03.12.12 0 0 0-.06-.07c-.01 0-.02-.02 0-.04-.06-.04-.05-.07-.03-.1Z" fill="#000"></path><path d="M36.95 12.2h-.02a.844.844 0 0 1-.08.07c-.02-.03-.05 0-.02.01l-.02.02c0 .03-.02.04-.05.04h-.01a.3.3 0 0 1 0-.03v-.04a.365.365 0 0 0-.01.04.267.267 0 0 0 0 .04c-.08.03-.13.11-.19.17l-.04.08c0 .02 0 .09-.03.09h-.02c0-.01-.02-.01-.04 0h-.1c-.02.02.04.02.07.03.01.01.02.03.01.05-.02.07-.18.05-.23.02-.02-.01-.02-.03-.02-.05h.03c.02 0 .04 0 .05-.02 0 0 .01 0 0-.01 0-.01 0-.01 0 0a.131.131 0 0 1-.05 0 .261.261 0 0 1-.05 0h-.02c0-.01.02 0 .02 0l.07-.03a.53.53 0 0 1 .19-.14l.08-.07c0-.07.04-.1.08-.15l.03-.07v-.03c-.02-.04-.03-.07-.01-.1a.149.149 0 0 1 0-.08v-.01a.616.616 0 0 1 .08-.06v.08a.129.129 0 0 0-.02.03.048.048 0 0 0 0 .02v.01a.04.04 0 0 1 0-.03l.03-.02.07-.04.07-.06v.1l-.06.07v.01h.01a.23.23 0 0 1 .05-.07.32.32 0 0 1 .1-.06v.1a.15.15 0 0 0 .05.09Z" fill="#F7DB17"></path><path d="m35.4 11.3.02-.02.04-.06a.399.399 0 0 1 .05-.06.394.394 0 0 0-.04.07.565.565 0 0 0-.04.05v.02c.01.03.01.05.03.07l.03-.04a.158.158 0 0 1 .04-.04.181.181 0 0 0 .05-.06h.01l-.02.04a.203.203 0 0 1-.03.03l-.04.03a.13.13 0 0 0-.02.04v.03c-.02.03-.05.05 0 .07a.06.06 0 0 0 .01.05l-.01.07c-.03.02 0 .02.01.02l.04-.04a.417.417 0 0 1 .03-.04l.04-.05.01-.05h.01a.14.14 0 0 1-.01.06.201.201 0 0 1-.05.05.373.373 0 0 0-.02.04.255.255 0 0 0-.03.04c.02.01.02.04.02.07h.01l.02-.02.02-.04h.01l-.02.04-.02.03c.02.01.02.03 0 .05-.04.03-.03.04 0 .07v.12l.01.03h-.01v-.03a.45.45 0 0 0-.07.18c-.06.01-.05.08-.06.13a.39.39 0 0 1-.19.15c-.01 0-.05.01-.05.03 0 .01.02.03.04.02.04-.05.07-.02.02.02v.03c.05.04.16.05.22.02.03-.03.05-.05.02-.09 0-.05.02-.1.08-.12v-.04l.01-.13.02-.01c.02 0 .06-.07.07-.13v-.04c.01-.02.02-.02.03 0 0-.02 0-.03.02-.04.02-.03.05-.06.08-.04a.3.3 0 0 1-.01-.08.271.271 0 0 1 0-.1l.02-.02.03-.07.03-.07h.01l-.03.07-.03.08v.01a.249.249 0 0 0-.01.1l.02.09.02.04v.06c.04.06 0 .17-.03.22a.1.1 0 0 0-.01.08c.02.02 0 .04-.01.06v.01c0 .02 0 .04-.02.05l-.07.16c-.04.01-.05.03-.06.07-.03.01-.03.02-.04.04a.27.27 0 0 1-.09.06c-.03.01 0 .02.02.04.02.01.04-.02.06-.04.02-.03.03-.02.02 0a.199.199 0 0 0-.02.07l.07.03c.04 0 .09-.04.12-.06.03-.02.02-.05.01-.08a.2.2 0 0 1-.05 0 .347.347 0 0 1-.05-.03.28.28 0 0 0 .1.02v-.03a.27.27 0 0 0 .05-.08c.04-.02.04-.04.04-.09l.01-.05c.028-.051.051-.105.07-.16.04-.04.05-.09.05-.14 0-.02.01-.03.03-.03a.378.378 0 0 0 .03-.05l.01-.04a.08.08 0 0 1 .02-.02.1.1 0 0 0 0-.05.111.111 0 0 0-.01-.04.05.05 0 0 1-.01-.02v-.02h.01c.01 0 0 0 0 0v.01a.048.048 0 0 0 0 .02c.02.02.02.03.02.05a.1.1 0 0 1 0 .05.068.068 0 0 0-.02.02v.03l.06-.01.04-.05.02-.06c.01 0 0 0 0 0a.2.2 0 0 1-.01.07l-.03.03c.04.02.07 0 .1 0v-.13l.04-.07c.01 0 .01 0 0 0l-.02.08v.1c.01.04.02.05.05.03l.04-.02v-.01a1.81 1.81 0 0 1 .18-.16c.01.01 0 .01 0 .01a.649.649 0 0 0-.08.07l-.08.07v.03c0 .03.01.05.06.03l.06-.02a.816.816 0 0 1 .08-.05l.05-.03a.297.297 0 0 1 .01-.06l.07-.13a.23.23 0 0 0 .11-.11h.01l-.04.07a.25.25 0 0 1-.07.05l-.07.12a.267.267 0 0 0-.01.05v.01a.282.282 0 0 0 0 .08c.02 0 .04 0 .07-.03l.07-.07a.17.17 0 0 1 .02-.05.1.1 0 0 1 .04-.04h.01v.01a.09.09 0 0 0-.04.03.17.17 0 0 0-.02.05v.11l.1-.05v.1c0 .03.02.06.04.08a.282.282 0 0 1 .05-.06l.03-.03.02-.02.03-.02-.02.03-.02.02-.03.02v.05h.06c0 .05 0 .06.05.06a.321.321 0 0 1 0-.05l.01-.05h.01a.298.298 0 0 0-.01.1c.02.03.03.04.07.06l.02-.05a.141.141 0 0 0 0-.04h.01v.05l-.03.05v.05a.3.3 0 0 1 .02-.03l.03-.04c.01 0 .01 0 0 0 0 .02 0 .03-.02.04a.393.393 0 0 0-.02.04l.02.02c-.06.1-.13.25-.25.3-.06.02-.09.05-.1.12a.1.1 0 0 0-.05.06l-.12.03c0 .03 0 .04.03.04l.07-.03c.01 0 0 .05-.05.08v.01c.04.06.14.04.19.02.04 0 .1-.05.12-.09.01-.02 0-.04-.02-.06-.08.01-.06-.06 0-.03.02 0 .03 0 .03-.03.06-.02.09-.05.1-.1.06-.07.12-.14.16-.21.01-.02.02-.04.01-.05a.1.1 0 0 0 .02-.05l.01-.04h.01v.05a.434.434 0 0 1-.02.03c0 .01 0 .02.02.02l.15-.1c0-.03.02-.04.04-.04l.02-.01c.01-.04 0-.06-.02-.08-.01-.04.01-.05.04-.07.02-.02.02-.07.02-.1V12l.01.03v.01c.03-.01.06-.03.07-.06 0-.03-.01-.06-.03-.08a.98.98 0 0 1-.06.02 1.053 1.053 0 0 0 .1-.06c.02-.03-.03-.05-.05-.06l-.07-.07v-.01l.07.06v-.11l-.02-.04a.11.11 0 0 1-.05-.04.1.1 0 0 1-.01-.05l.02.04.04.04h.1c.03-.03-.02-.07-.03-.09l-.01-.05h.01a.1.1 0 0 0-.02-.02h-.01v-.02a.068.068 0 0 1 .02.01l.02.02h.01c.03 0 .05-.02.07-.05a.366.366 0 0 0-.03-.04 1.017 1.017 0 0 0-.05-.03v-.01h.01c.03.023.057.05.08.08.04 0 .04 0 .06-.03a.249.249 0 0 0-.05-.08c0-.01 0 0 0 0 .02 0 .03.02.04.03l.02.05.04-.01c.03-.02 0-.08 0-.1h-.01l-.02-.02c0-.01 0 0 0 0h.02l.02.01.04-.06c0-.04 0-.02.05-.03.04 0 .06 0 .09-.06.01 0 .02 0 .02-.03s0-.04-.03-.04c-.05 0-.08 0-.1.03v.03c0 .01 0 0 0 0l-.02-.02c-.04 0-.07 0-.11.02h-.02l.02.03.01.04a.1.1 0 0 0-.02-.04.18.18 0 0 0-.03-.04.26.26 0 0 0-.1-.02l.02.01.02.02v.01a.629.629 0 0 1-.04-.04.27.27 0 0 0-.09.02l-.06.02.04.05.02.06a.192.192 0 0 0-.07-.1.182.182 0 0 1-.05 0l.02.03-.03-.04a.141.141 0 0 1-.05-.02c.011.05.018.1.02.15a.79.79 0 0 0-.02-.09.47.47 0 0 0-.01-.07.172.172 0 0 1-.02-.02.212.212 0 0 0-.06-.04.1.1 0 0 1-.02.07c-.01 0 0 0 0 0a.08.08 0 0 0 .01-.08.311.311 0 0 0-.1-.02.533.533 0 0 1 .05.08l.03.05v.05a.204.204 0 0 0-.01-.05.07.07 0 0 0-.03-.04.538.538 0 0 0-.06-.09h-.04.01a.06.06 0 0 1 0 .03.052.052 0 0 0 0-.02.068.068 0 0 0-.02-.01h-.08a.5.5 0 0 1 .1.23.48.48 0 0 0-.04-.12.515.515 0 0 0-.07-.1h-.06a.169.169 0 0 1 .04.04c0 .01 0 .01 0 0a.16.16 0 0 0-.03-.01.24.24 0 0 0-.03-.02.5.5 0 0 0-.03 0l-.01.01a.47.47 0 0 1 .1.11c0 .01 0 0 0 0a.378.378 0 0 0-.12-.1h-.06a.5.5 0 0 1 .05.17h-.01a.35.35 0 0 0-.02-.08.621.621 0 0 0-.03-.09h-.04a.906.906 0 0 1 .03.16v.01a.917.917 0 0 0-.02-.1.95.95 0 0 0-.03-.08.39.39 0 0 0-.13-.1c.026.03.04.07.04.11v.01a.16.16 0 0 0-.02-.07.17.17 0 0 0-.04-.06h-.03a1.516 1.516 0 0 0-.1 0c.02.01.04.04.04.06 0-.02-.03-.05-.06-.07h-.06l.03.03.02.05.02.06.04.04s.01 0 0 0c0 .01 0 .01 0 0a.11.11 0 0 1-.05-.03.15.15 0 0 1-.02-.07.271.271 0 0 0-.05-.08h-.07l.02.08.01.1h-.01a.726.726 0 0 0 0-.1.448.448 0 0 0-.03-.08.1.1 0 0 0-.06-.05.06.06 0 0 1 0 .03h-.01a.05.05 0 0 0 0-.03c-.02-.05-.03-.07-.06-.08v.04l-.02.04h-.01l.01-.05v-.04c0-.06-.02-.1-.08-.12v.02l-.01.05h-.01v-.08l-.05-.05a.228.228 0 0 1 0 .07.303.303 0 0 1-.04.08h-.01a.297.297 0 0 0 .03-.08.221.221 0 0 0 .01-.08.101.101 0 0 1-.02-.03v.02h-.01v-.02l.01-.01v-.01a.07.07 0 0 0-.03-.05.15.15 0 0 1-.02.05h-.01c-.01 0 0 0 0 0l.01-.03.01-.03a.101.101 0 0 1-.01-.02.083.083 0 0 1-.01.02.126.126 0 0 1-.02.02c-.01-.01 0-.01 0-.01l.01-.02a.068.068 0 0 0 .01-.02v-.02c0-.03 0-.04-.02-.07a.089.089 0 0 0-.03 0 .283.283 0 0 0-.05.04v-.01a.316.316 0 0 1 .04-.03.09.09 0 0 1 .04-.01.04.04 0 0 0 0-.02l-.1.03a.16.16 0 0 1-.09-.02h.08c.03 0 .07 0 .11-.02l.02-.06a.168.168 0 0 1-.05 0l.06-.01v-.02c0-.02.03-.02.04 0 .02 0 .03.02.04.03.03.02.06 0 .09-.02h-.02v-.01h.03c.06 0 .1 0 .14-.05a.695.695 0 0 1-.1 0c-.02 0-.04 0-.06-.02l.07.01h.1l.05-.03a.54.54 0 0 1-.2-.06.14.14 0 0 0-.06-.03c-.05 0-.1 0-.14.03l-.03-.03-.04-.02h-.06s-.01 0 0 0h.12a.45.45 0 0 1 .17-.03.57.57 0 0 1 .17-.02v-.02c.03-.03.04-.06.03-.09a.19.19 0 0 0-.08-.07h-.13a.4.4 0 0 0-.08.01l.06.04.04.1v.01h-.02a.2.2 0 0 0-.04-.1c-.01-.02-.06-.03-.07-.04l-.13.02-.07.04c.03-.01.06 0 .08 0 .03.02.05.04.06.08v.01h-.02a.1.1 0 0 0-.05-.07c-.04-.02-.12 0-.16.03a.417.417 0 0 0-.06.06h-.02v-.02l.07-.06.07-.04a.2.2 0 0 1 .1-.05l.13-.02a.1.1 0 0 0-.05-.05.14.14 0 0 0-.08 0c-.05.01-.1.04-.15.07h.05l.01.02h-.05a.14.14 0 0 0-.04 0l-.15.12c-.05 0-.08 0-.1.02l-.01.06-.02.07c-.05.05-.1.09-.13.15a.14.14 0 0 1-.03.05.05.05 0 0 1 .03.01v-.02l.02-.04h.01a.12.12 0 0 0-.01.04v.05h-.02a.03.03 0 0 0-.01-.02.05.05 0 0 0-.03 0l-.03.02-.02.03c0 .03.02.03.05.03.06 0 .01.04.04.07l.05.04h.05c0-.04 0-.06.02-.06a.08.08 0 0 1 .02-.04v.02a.08.08 0 0 0-.01.02v.04a.239.239 0 0 1 .1-.02c.07-.08.1-.06.04 0l-.01.02a.14.14 0 0 0-.02.06c-.02.01-.1.08-.07.1.02 0 .04 0 .03.02-.01.02-.04.06-.03.09h.03a.616.616 0 0 0 .07-.06.383.383 0 0 0 .05-.08h.01a.885.885 0 0 1 .03-.08c0-.02.01-.05.03-.07l.03.03a.04.04 0 0 0 .02 0 .04.04 0 0 0 .03 0l.02-.03h.01a.12.12 0 0 1-.03.04.05.05 0 0 1-.03 0 .052.052 0 0 1-.02 0 .111.111 0 0 1-.03-.03c-.02.046-.036.092-.05.14v.01a.559.559 0 0 1-.12.14l.02.05.1-.1.08-.1a.61.61 0 0 1-.03.06v.11h-.01v-.09l-.03.03a1.18 1.18 0 0 1-.1.1c-.03.03-.06.03-.02.07l.03-.03.04-.03h.01v.01l-.04.03-.04.03c0 .01.004.021.01.03h.01l.08-.06c.01 0 0 .01 0 .01l-.07.06h-.01c-.03.03-.12.08-.1.12l.06-.02.06-.05c.01 0 0 0 0 .01a.25.25 0 0 1-.06.05v.02-.01a.36.36 0 0 1-.07.01c.01.04 0 .07-.03.1 0 .01-.1.09-.06.1a.101.101 0 0 0 .03.02Z" fill="#F7DB17"></path><path d="M35.44 10.01a.22.22 0 0 0-.06-.03.14.14 0 0 0-.05-.05c-.02-.02-.02-.01-.01-.03l.02-.01a.09.09 0 0 1 .03 0 .04.04 0 0 1 .02.02h.01c.01 0 0 0 0 0a.05.05 0 0 0-.02-.02.1.1 0 0 0-.04-.01.07.07 0 0 0-.04 0l-.02-.05.04.01.02.01a.069.069 0 0 0-.02-.02h-.02a.29.29 0 0 1 .21.02c.04.01.06.03.08.06l-.02.02c-.05 0-.08 0-.1.02-.02.01-.02.04-.02.06h-.01Z" fill="#F7DB17"></path><path fill-rule="evenodd" clip-rule="evenodd" d="M37.88 11.17h-.01v.02h.01v-.02Zm-.52.1c.04.02.06.04.08.07.02.02.03.05.03.09l-.06-.02v.18c-.02.05-.05.08-.1.1a.38.38 0 0 0 0-.18h.01a.36.36 0 0 1 0 .16.15.15 0 0 0 .07-.08.37.37 0 0 0 .01-.19l.06.02c0-.03-.01-.05-.03-.08a.25.25 0 0 0-.07-.06v-.01Zm.2.15v-.01a.09.09 0 0 0-.03.04.141.141 0 0 0 0 .06h.01a.141.141 0 0 1 0-.06.08.08 0 0 1 .02-.03Zm-.12.26c.03.05.04.1.04.15a.722.722 0 0 1 .01-.06.14.14 0 0 0 .03-.11c0-.01.01 0 .01 0v.06a.17.17 0 0 1-.03.06l-.02.1h-.01v-.01c0-.06 0-.12-.04-.18v-.01h.01Zm-.44.5-.01-.02v-.02c-.003.007-.008.012-.012.018-.01.01-.018.022-.018.042l.04-.02Zm.16.46a.23.23 0 0 0 .04-.04l-.01-.01-.04.04-.04.04v.01a.4.4 0 0 0 .05-.04Zm.17-.2-.02.03h-.01l.02-.03h.01Zm-.09.03a.11.11 0 0 0 .02-.03l-.01-.01h-.01a.1.1 0 0 1-.01.04.1.1 0 0 1-.04.03v.01a.1.1 0 0 0 .05-.04Zm.14-.19a.101.101 0 0 0-.01.02.107.107 0 0 0-.01.02h-.01a.11.11 0 0 1 .03-.05v.01Zm.1.05v-.05l-.02.05-.01.05.03-.05Zm-.12-.52v-.04h-.01v.04h.01Zm-.02.11a.619.619 0 0 1 .02.14.094.094 0 0 1 .01-.01l.03-.03h.01a.101.101 0 0 0-.03.03.07.07 0 0 0-.02.04.596.596 0 0 0-.03-.17h.01Zm.11.17a.362.362 0 0 0 0-.06v.06Zm.09-.14v.06a.232.232 0 0 0 0-.06Zm0 .06a.15.15 0 0 1 0 .05.12.12 0 0 0 0 .06l.01.06a.248.248 0 0 1-.03-.06.13.13 0 0 1 0-.06.141.141 0 0 0 .02-.05Zm.04-.18.01-.03-.01-.01h-.01v.06h.01v-.02Zm.18-.66.03.01a.083.083 0 0 1 .01.02v.01a.08.08 0 0 0-.02-.02.06.06 0 0 0-.02-.02Zm-.15.1-.03-.05h-.01a.1.1 0 0 1 .03.05l.01.06v-.06Zm-.63.04-.01.01v-.05h.01v.04Zm.12-.06-.02-.04v.01l.01.03v.01h.01v-.01Zm.22.12v.01h-.01v-.01h.01Zm0 .01Zm.08-.18v.01c-.01-.01-.01-.01 0-.01Zm0 .03a.02.02 0 0 0 0-.02.01.01 0 0 1 .01.01.01.01 0 0 1-.01.01Zm-.55-.01a.1.1 0 0 0 .02.07c.013.006.017.017.021.026.003.005.005.01.009.014v.04h-.01v-.04a.092.092 0 0 0-.02-.03.1.1 0 0 1-.02-.04.11.11 0 0 1-.01-.04h.01Zm.24.22-.02-.07v.01s-.01-.01-.01 0a.18.18 0 0 1 .02.06v.07a.13.13 0 0 0 .02.08c.02.03.04.06.08.08h.01c-.02-.04-.02-.07-.02-.1a.16.16 0 0 1 .03-.09.148.148 0 0 0 .03-.05v-.04h-.01v.04a.046.046 0 0 0-.008.012c-.004.01-.009.018-.022.018l-.03.1a.29.29 0 0 0 .01.1l-.06-.07c-.02-.02-.02-.05-.02-.08v-.07Zm-.11.07c0 .02 0 .05-.02.07a.34.34 0 0 1-.04.06h.03l-.04.02v-.01l.04-.07.02-.07h.01Zm-.03.13a.22.22 0 0 0 .07-.06l.03-.03a.355.355 0 0 1-.02.04.24.24 0 0 1-.03.02v.04-.02a.157.157 0 0 0-.01-.01.22.22 0 0 1-.04.02Zm-.07-.12v-.01l-.01-.01v.02h.01Z" fill="#000"></path><path fill-rule="evenodd" clip-rule="evenodd" d="M35.66 10.07a.2.2 0 0 0-.1.05h.01c0 .007-.005.009-.004.01h.004a.2.2 0 0 1 .1-.04.19.19 0 0 1 .1.01c-.04.04-.08.05-.1.05a.1.1 0 0 1-.09 0 .1.1 0 0 0 .09.02c.03 0 .07-.02.11-.07-.04-.03-.08-.03-.12-.03Zm.22.59v-.01h-.01v.01c0 .02 0 .05-.02.06a.1.1 0 0 0-.03.04.167.167 0 0 0 0 .04h.01a.159.159 0 0 1 .01-.04.08.08 0 0 1 .02-.03c.02-.01.02-.04.02-.07Zm.07.07a.08.08 0 0 0-.05.04l-.02.07.02.05-.03-.04a.2.2 0 0 0-.05.12c0 .05.01.1.05.15h-.01a.27.27 0 0 1-.05-.15c0-.05.02-.09.06-.13 0-.03 0-.06.02-.08a.1.1 0 0 1 .05-.04l.01.01Zm-.05.23a.241.241 0 0 0 0-.07v.07Zm.2-.17v-.05h-.01a.06.06 0 0 1 0 .04.1.1 0 0 1-.03.04.1.1 0 0 0-.03.05.192.192 0 0 0 0 .07v-.07a.08.08 0 0 1 .03-.04l.04-.04Zm.1.01a.23.23 0 0 0 .03.15.259.259 0 0 1-.04-.07.229.229 0 0 1 0-.08h.01Zm.5.2a.19.19 0 0 1 .01.1.182.182 0 0 0 0-.05.15.15 0 0 0-.02-.04l.01-.01Zm.09.13a.089.089 0 0 0 .01-.03l-.01-.01-.01.01a.08.08 0 0 1 0 .03l-.02.03h.01a.144.144 0 0 0 .02-.03Zm.03.34c0-.04 0-.07-.02-.1h-.01c.02.03.02.06.02.09l-.04.08-.05.06c-.02.03-.02.06-.02.1a.23.23 0 0 1 .04-.05.1.1 0 0 1 .04-.03.399.399 0 0 0 .12-.1h-.01a.46.46 0 0 1-.11.09l-.05.03-.02.03a.19.19 0 0 1 .07-.12.19.19 0 0 0 .04-.08Zm.21.25h-.01c-.01.01 0 .02.02.04l.01.02a.13.13 0 0 1 .01.07c.002.02.002.04 0 .06l-.03-.06a.218.218 0 0 0-.09-.07v.01c.03.016.056.036.08.06a.18.18 0 0 1 .04.1h.01l.01-.1c0-.03-.01-.05-.03-.08l-.01-.01-.01-.04Zm.11.02h-.01l-.02-.02h.02l.01.02Zm.16.41v.01a.03.03 0 0 1 0-.02v.01Zm-.07-.09v-.04h-.01l-.01.04v.04l.02-.04Zm-.1-.03h.01v.01h-.01v-.01Zm-.12-.04a.745.745 0 0 0 .01-.02H37a.667.667 0 0 0 0 .04h.01v-.02Zm-.16.16a.068.068 0 0 0-.01.02v.02s-.01.01-.02 0v-.02a.08.08 0 0 1 .02-.03h.01v.01Zm-.48.48v-.02h-.01a.08.08 0 0 1-.01.03.107.107 0 0 0 .02-.01Zm.08-.06a.03.03 0 0 1-.01.02.061.061 0 0 1-.02 0 .04.04 0 0 0 .01-.01v-.01h.02Zm.1-.05v-.01h-.02a.04.04 0 0 1 0 .02.05.05 0 0 0 .02-.01Zm.15-.39-.01.04a.141.141 0 0 0 0 .04h-.01a.141.141 0 0 1 0-.04v-.05h.01l.01.01Zm-.18-1a.15.15 0 0 0 .04.04l-.03-.04-.02-.04a.07.07 0 0 0 .01.04Zm.18.3h.01v.02h-.01v-.02Zm-.13-.1-.06-.1v.01a.2.2 0 0 1 .05.1c.02.04.02.08.02.12h.01v-.04l.04-.03.01-.1a.198.198 0 0 0 .03-.05v-.04c.012.02.022.04.03.06a.29.29 0 0 1 .03.09h.01l-.03-.09-.04-.08h-.01a.354.354 0 0 1-.01.05.191.191 0 0 1-.03.06v.09c-.01.02-.02.03-.04.03l-.01-.08Zm.06.4v.03l-.01.04h-.01v-.08h.01l.01.01Zm-.22.12v-.03s-.01-.01-.01 0l.01.03Zm.19-.28a.231.231 0 0 1-.02.06l-.03.05a.11.11 0 0 0-.03.06.18.18 0 0 0 0 .07.189.189 0 0 1-.01-.07c0-.02.01-.05.03-.07a.208.208 0 0 0 .03-.05.212.212 0 0 0 .02-.06l.01.01Zm-.1.04a.222.222 0 0 0 .05-.06v-.06h-.01a.1.1 0 0 1-.01.06.198.198 0 0 1-.03.05l-.05.05-.02.06h.01l.02-.05a.18.18 0 0 1 .04-.05Zm-.19 0c0 .04 0 .07-.02.1-.01.03-.03.06-.06.08h-.01v-.01c.03-.02.05-.05.06-.08.02-.02.02-.06.02-.1l.01.01Zm-.3.17H36v.02l.01.02h.01v-.01l-.01-.01v-.02Zm-.13 0a.273.273 0 0 0 0 .07.267.267 0 0 1-.01-.07h.01Zm.05.18a.182.182 0 0 0-.02-.04.2.2 0 0 1-.03-.07l.04.06.01.05Zm0 0v.05h.01l.05-.06a.16.16 0 0 0 0-.06.14.14 0 0 1-.02.06l-.04.05a.32.32 0 0 0 0-.04Zm-.02.16a.258.258 0 0 0-.01.08h.01a.252.252 0 0 1 .01-.08h-.01Zm-.02.19h-.01v-.04s0-.01.01 0v.04Zm-.07.17-.02.03h.01l.02-.02a.393.393 0 0 0 .02-.04h-.01l-.02.03Zm-.13-.63v.02h-.01v-.02h.01Zm-.2.44v.01h.01v-.03h-.01v.02Zm.5-.79-.03.1c0 .03.01.06.03.07.03.02.04.04.05.07l-.05-.06c-.03-.02-.04-.04-.04-.08l.02-.1h.02Zm.05.26v-.06a.03.03 0 0 0 0-.04h.01a.271.271 0 0 1 0 .1h-.01Zm-.09-.31a.25.25 0 0 0 0-.08h-.02c.007.02.005.035.002.052l-.002.028a.378.378 0 0 1-.02.07.25.25 0 0 0 .02.21v-.01a.169.169 0 0 1-.03-.1c0-.034.006-.068.02-.1a.404.404 0 0 0 .03-.07Zm-.23.25a.08.08 0 0 0 0 .04l.01.05a.148.148 0 0 1-.03-.05.09.09 0 0 1 .01-.05h.01v.01Zm-.1-.01v-.03h-.01v.03a.083.083 0 0 1-.01.02.05.05 0 0 0 0 .04.08.08 0 0 0 .02.03v-.01l-.01-.02a.04.04 0 0 1 .01-.03.089.089 0 0 0 0-.03Zm.56-.65a.4.4 0 0 0-.05-.17h-.01v.01a.38.38 0 0 1 .05.16h.01Zm-.41-.16c-.033.042-.046.083-.055.113l-.005.017.02.09a.17.17 0 0 1-.03-.1c0-.03.02-.07.06-.12h.01Zm-.04.3a.229.229 0 0 0 0-.08l.02.08a.26.26 0 0 1-.02.08v-.08Zm.02-.41v.07c0 .02-.02.04-.04.06a.12.12 0 0 0-.04.06.29.29 0 0 0-.01.07h-.01a.3.3 0 0 1 .01-.08c0-.02.02-.04.04-.06l.04-.06a.1.1 0 0 0 0-.06h.01Zm.2.03v-.02h-.01a.08.08 0 0 0 0 .03.06.06 0 0 0 .02.02.05.05 0 0 1-.01-.03Zm.5.45.01.05a.192.192 0 0 0-.02-.04h.01v-.01Zm.01.05v.04a.141.141 0 0 0 0-.04Zm-.01.21V11.44h-.01a.212.212 0 0 1-.02.13l-.02.06.03-.06.02-.06Zm-.12-.24a.25.25 0 0 1 .07.25h-.01a.24.24 0 0 0-.06-.24v-.01Zm-.1.34a.531.531 0 0 0 .1-.14h-.02l-.03.07a.503.503 0 0 1-.05.06.26.26 0 0 0-.05.08.2.2 0 0 0-.03-.08c-.02-.02-.02-.05-.02-.08a.1.1 0 0 1 .03-.07.26.26 0 0 0 .03-.13h-.01a.24.24 0 0 1 0 .06l-.03.06-.03.08c0 .033.01.064.03.09a.192.192 0 0 1 .02.04.14.14 0 0 1 .01.06.25.25 0 0 1 .05-.1Zm-.22-.24c0 .05.015.098.04.14v.01h-.01a.23.23 0 0 1-.03-.07.303.303 0 0 1 0-.07v-.01Zm-.17.13v-.03h-.01v.03h.01Zm.06-.19-.01.05a.14.14 0 0 1-.03.05l.02-.05a.14.14 0 0 0 0-.05h.02Zm-.19.14a.33.33 0 0 0 .03.17h.01c-.03-.07-.03-.12-.03-.17a.19.19 0 0 1 .05-.1l.06-.07v-.1s-.02-.05-.01 0 0 .08-.01.1l-.04.07c-.03.02-.06.05-.06.1Zm-.07.06a.069.069 0 0 0 0 .03l.01.04a.1.1 0 0 1-.02-.04.08.08 0 0 1 0-.04h.01v.01Zm.466-.308-.006-.012h-.01a.15.15 0 0 1 .03.08l-.02.09h.01c.02-.03.02-.06.02-.09 0-.024-.013-.049-.024-.068Zm.134-.122a.24.24 0 0 1 0 .17.18.18 0 0 0-.02-.08.151.151 0 0 0-.05-.05v-.007a.16.16 0 0 1 .07.107v-.06a.23.23 0 0 0-.01-.08h.01Zm.12-.04-.04-.08v.01c-.005 0-.008-.003-.009-.004l-.001.004a.15.15 0 0 1 .04.07.35.35 0 0 1 .01.069v.031-.1Zm-.26-.1a.1.1 0 0 0-.03.05c0-.02 0-.04.02-.05h.01Zm-.03.05v.07a.2.2 0 0 1 0-.07Zm-.44.35a.2.2 0 0 0 .03-.1v-.01l-.01.01c0 .04-.01.07-.03.1l-.07.07a.25.25 0 0 0 .08-.07Zm.03-.26v.05a.22.22 0 0 1-.03.05l.01-.05v-.05h.02Zm.29.08v-.1h-.01v.1h.01Zm.07-.23c-.02.03-.03.05-.03.08l.02.07.01.043a.185.185 0 0 0-.02-.043l-.02-.07c0-.03 0-.06.03-.08h.01Zm0 .193.008.03a.185.185 0 0 0-.007-.03Zm.008.03a.19.19 0 0 1 .002.047l-.03.11.01-.02a.19.19 0 0 0 .03-.09l-.012-.047Z" fill="#000"></path><path fill-rule="evenodd" clip-rule="evenodd" d="M35.48 9.89a.07.07 0 0 0-.05-.04v.01a.07.07 0 0 1 .02.01.07.07 0 0 1 .02.03h.01v-.01Zm.27.12a.03.03 0 0 1 .02-.01.04.04 0 0 0-.02 0 .05.05 0 0 0-.02.03h.01a.04.04 0 0 1 .01-.02Zm.26.1a.08.08 0 0 1 .022-.034.07.07 0 0 0-.022.044v-.01Zm.03-.04Zm.042-.006a.1.1 0 0 0-.042.006l.042-.006Zm0 0c.01 0 .019.003.028.006v-.01l-.028.004Zm.158.036a.05.05 0 0 0-.03 0v.01l.01.01a.052.052 0 0 1 .02 0 .069.069 0 0 1 .03 0 .08.08 0 0 0-.03-.02Zm-.58 0a.03.03 0 0 1 .03.03.03.03 0 0 1-.03.02.03.03 0 0 1-.02-.02.03.03 0 0 1 .02-.03Zm.18.16a.22.22 0 0 0 .08-.07h.004v.001c-.002.002-.004.004-.004.009a.24.24 0 0 1-.02.03l-.05.04c-.01-.01 0-.01 0-.01h-.01Zm.19-.14a.04.04 0 0 0 0 .03h.01a.03.03 0 0 1 0-.02.05.05 0 0 1 .03-.02h-.01a.06.06 0 0 0-.03.01Zm-.36.14-.01.03a.08.08 0 0 0 0 .03l-.01.01a.1.1 0 0 1 0-.04c0-.01 0-.02.02-.03Zm.04-.06a.1.1 0 0 0 .03 0h.03a.14.14 0 0 1-.03.01.1.1 0 0 1-.03 0s-.01 0 0-.01Zm-.04-.18h-.02a.03.03 0 0 0 0 .02h-.01a.04.04 0 0 1 0-.02.089.089 0 0 1 .03-.01v.01Zm-.08.01a.079.079 0 0 1 .01-.01v-.01a.09.09 0 0 0-.02.02.068.068 0 0 0-.01.02h.01a.068.068 0 0 1 .01-.02Zm-.07.06a.169.169 0 0 0-.04.04v-.01a.2.2 0 0 1 .04-.04v.01Zm0 .1v-.02l-.02.02v.02l.02-.02Zm-.07.01v.03l-.01.01v-.04h.01Zm.1.2v-.06h-.01v.06h.01Zm-.06-.1v.03h-.01v-.03h.01Zm.45.22h.01a.16.16 0 0 1 0 .14h-.01a.16.16 0 0 0 0-.13v-.01Zm-.14.147c-.01.015-.02.031-.02.053h.01l.03-.07a.64.64 0 0 1 .04-.05.2.2 0 0 0 .03-.15h-.01a.18.18 0 0 1 0 .07c0 .03-.01.05-.03.07l-.04.06-.01.017Zm-.24-.007a.07.07 0 0 1 .02-.03.089.089 0 0 1 .03-.01.08.08 0 0 0-.02.02.06.06 0 0 0-.02.02h-.01Zm-.01-.05-.03.03.01.01a.193.193 0 0 1 .02-.03.101.101 0 0 1 .03-.02v-.01l-.03.02Zm.2-.19h.02a.08.08 0 0 0 .03 0v.01a.08.08 0 0 1-.06 0l.01-.01Zm-.11-.02-.01.01h.01v-.01Zm2.41.71a.11.11 0 0 1 .02.03h-.01v-.01a.08.08 0 0 0-.02-.02h.01Zm-2.65 1.28-.03-.03-.01.01a.17.17 0 0 0 .04.03.1.1 0 0 0 .05 0v-.01a.1.1 0 0 1-.05 0Z" fill="#000"></path><path fill-rule="evenodd" clip-rule="evenodd" d="M36.213 9.671a.257.257 0 0 0-.013.009v-.025l.013.016Zm0 0c.014.021.027.05.037.083l.01.198h.01a.252.252 0 0 1 .16 0 .535.535 0 0 1 .15.099l.01.025.16.148.05.05c.044.039.088.086.13.132.093.1.184.198.28.215v-.05a.271.271 0 0 0 .02-.074.274.274 0 0 0-.01-.1.566.566 0 0 1-.13-.098l-.04-.025a.298.298 0 0 1 0 .074c-.01.05-.03.1-.06.1-.01-.026 0-.026 0-.026.02-.024.03-.049.03-.099v-.074l-.12-.148a.357.357 0 0 1 0 .099c-.01.05-.03.099-.06.099l-.01-.025v-.025c.02-.012.037-.038.05-.074a.29.29 0 0 0 0-.124l-.17-.198a.439.439 0 0 1 0 .074l-.03.174h-.02v-.05l.03-.124c.01-.05 0-.074-.02-.124-.065-.087-.137-.138-.21-.148h-.02a.167.167 0 0 1 .03.05l.01.247h-.01l-.01-.025a.617.617 0 0 0-.01-.198.205.205 0 0 0-.05-.099c-.066 0-.123 0-.187.041Zm1.037.752h.003a.36.36 0 0 1-.003.074.413.413 0 0 1-.03.124.23.23 0 0 0 .13 0c-.01-.025 0-.025 0-.025.02-.025.02-.074.02-.074v-.1h-.117a.392.392 0 0 0-.003-.024v.024Zm.14.024a.335.335 0 0 0 .17 0c-.06.075-.12.149-.2.174a.28.28 0 0 0 .03-.1.237.237 0 0 0 0-.074Z" fill="red"></path><path fill-rule="evenodd" clip-rule="evenodd" d="M36.19 9.65a.644.644 0 0 0-.23.114v.022a.104.104 0 0 1 .035.023c.034.023.063.072.08.136a.266.266 0 0 1 .195-.045v-.136c-.011-.046-.034-.091-.08-.114Zm.563.91c.02.028.039.058.058.09h.011v-.046h.103c.035-.045.035-.09.035-.181l-.115-.182-.115-.136v.181c-.011.069-.034.137-.08.16-.012-.023 0-.023 0-.023a.244.244 0 0 0 .057-.16.403.403 0 0 0 .003-.111c-.002-.023-.003-.047-.003-.07a.646.646 0 0 0-.23-.137h-.115a.419.419 0 0 1 .08.182c.012.068 0 .16-.034.25a.54.54 0 0 1 .345.182Z" fill="red"></path><path d="m36.9 10.24-.18-.14c.04 0 .07 0 .1-.02a.12.12 0 0 0 .03-.08l.11.1.06.05v.04a.052.052 0 0 1 0 .02.06.06 0 0 1-.04.02h-.07l-.01.01Z" fill="red"></path><path d="M37.12 10.38a1.18 1.18 0 0 1-.2-.13h.07a.08.08 0 0 0 .04-.02l.01-.04v-.02c.064.055.135.102.21.14 0 .03 0 .04-.03.05a.302.302 0 0 1-.1.01v.01Z" fill="red"></path><path d="M37.34 10.47a1.187 1.187 0 0 1-.2-.08c.04 0 .07 0 .1-.02.02 0 .03-.02.03-.05.042.023.085.043.13.06v.04l-.05.04s-.01 0 0 0l-.01.01Z" fill="red"></path><path fill-rule="evenodd" clip-rule="evenodd" d="M35.67 9.96v.01c-.01-.02-.04-.03-.07-.04l.13-.1h.01a.14.14 0 0 1 .04 0h.04l-.01-.02h-.05l.15-.08.08.01a.1.1 0 0 1 .05.05l-.13.02a.2.2 0 0 0-.1.05l-.07.04-.07.06Zm.23.05h.03l.06.01a.45.45 0 0 1 .17-.03.57.57 0 0 1 .17-.02v-.02c.03-.03.04-.06.03-.09a.19.19 0 0 0-.08-.07h-.13a.4.4 0 0 0-.08.01l.06.04.04.1c-.02.01-.02 0-.02 0 0-.027-.009-.044-.018-.062-.004-.01-.009-.018-.012-.028l-.08-.04a.9.9 0 0 0-.13.02.097.097 0 0 0-.053.02.19.19 0 0 1-.017.01l.08.01c.03.01.05.04.06.08-.01.01-.01 0-.01 0a.1.1 0 0 0-.05-.06c-.04-.02-.13 0-.17.02a.418.418 0 0 0-.06.06l.2.04h.01Zm1.92.41s.04-.01.02 0c-.14.1-.31.1-.48.05.03-.01.05-.02.06-.04a.06.06 0 0 0 0-.05l.17.04a.04.04 0 0 1-.01.03l-.05.03s-.01 0 0 .01c.03 0 .05-.02.06-.03a.06.06 0 0 0 .02-.04.904.904 0 0 0 .2 0h.01Zm-.97 2.4-.02.04-.12.03c0 .03 0 .04.03.04l.07-.03c.01 0 0 .05-.05.08v.01c.04.06.14.04.19.03a.3.3 0 0 0 .13-.1l-.03-.06c-.04.01-.06 0-.05-.02a.39.39 0 0 0-.15-.02Zm-1.61-.42c.03-.01.07-.03.1-.06l.04.04.04.03h.06v.02c.04.04.01.07-.02.09-.06.03-.17.02-.22-.02v-.03c.05-.04.02-.07-.02-.02-.02.01-.04-.01-.04-.02 0-.02.04-.03.06-.03Zm1.1.29h-.01c-.014.014.007.018.03.023a.24.24 0 0 1 .03.007c.02.01.02.03.02.05-.03.07-.19.05-.24.02-.02-.01-.02-.03-.02-.05h.03c.02 0 .04 0 .06-.02v-.02h-.02a.13.13 0 0 1-.04.02.261.261 0 0 1-.05 0l-.02-.02h.02l.07-.02.01-.01c.05 0 .1 0 .13.02Zm-.74-.01.02-.03.07.02a.338.338 0 0 0 .05.03.2.2 0 0 0 .05 0c.01.03.02.06-.01.08-.02.02-.08.06-.12.06l-.07-.03.02-.07c.01-.02 0-.03-.02 0-.01.02-.04.05-.06.04l-.013-.012c-.014-.012-.023-.02-.007-.028a.27.27 0 0 0 .09-.06Z" fill="red"></path><path d="m41.4 15.65 2.08-4.7-1.53-2.47-2.73 1-1.27 4.98c1.181.3 2.335.698 3.45 1.19Z" fill="#0093DD"></path><path d="M38.76 11.3c1.356.346 2.68.804 3.96 1.37l-.8 1.82a23.2 23.2 0 0 0-3.65-1.27l.49-1.92Z" fill="#fff"></path><path d="m42.04 14.2.54-1.22a24.86 24.86 0 0 0-3.9-1.35l-.32 1.24c1.267.323 2.504.752 3.7 1.28l-.01.04-.01.01Z" fill="red"></path><path d="M39.06 12.58c.03-.03.07-.02.11-.01.03-.02.07-.02.1-.02l.06-.02c.02 0 .02-.02 0-.03a.06.06 0 0 1 0-.03c-.07-.04-.1-.1-.12-.15-.03 0-.05-.02-.05-.03h-.05c-.08 0-.1-.03-.13-.05a.1.1 0 0 1-.06-.04l-.03-.03c-.02-.03-.01-.07.02-.07h.07a.2.2 0 0 1 .09-.01c.03 0 .05-.03.09-.06v-.04s0-.02.02-.01a.1.1 0 0 1 .08.05c.05 0 .1.03.12.07.07 0 .11.03.12.05 0 .02-.02.04-.05.06v.02l.04.04.1.07c.1-.01.26.06.48.2.14.024.278.064.41.12h.09c.24-.04.47 0 .68.15.08.01.15.04.22.07.05.02.1.03.16.03a.8.8 0 0 1 .26.07c.1.02.19.06.24.12.04.05.03.1-.02.12-.03.06-.09.06-.18.03-.06.01-.13-.04-.2-.09-.08-.02-.16-.08-.24-.13l-.13-.06h-.08v.02c.02.02.04.04.04.08v.1c0 .04.03.06.07.09l.1.04c.02 0 .03.01.03.03l.04.17.04.03c.06.05.02.1-.03.1a.31.31 0 0 1-.13.08c-.04.02-.06 0-.07-.02a.05.05 0 0 1-.04-.02c-.05-.04-.01-.1.1-.07l.02-.02a.15.15 0 0 1 0-.09l-.03-.02a.28.28 0 0 1-.1-.06c-.06-.05-.15-.1-.24-.14-.07 0-.12-.04-.18-.07h-.08c-.02 0-.04 0-.05.02-.02.03-.05.02-.08.02h-.16c-.04 0-.07 0-.1.03-.02.02-.04.02-.07 0a.101.101 0 0 1-.03-.02c-.03 0-.05 0-.05-.02-.05-.01-.06-.02-.06-.04-.06-.01-.03-.06 0-.06l.14.01c.04.01.1 0 .12-.02l.05-.05a.4.4 0 0 1-.18-.05c-.11-.07-.2-.09-.28-.03-.02.02-.03.02-.06.01a.1.1 0 0 0-.05 0c-.05.01-.09 0-.13-.01a.4.4 0 0 1-.18 0c-.06.03-.1.04-.12.02a.856.856 0 0 1-.06-.04c-.04-.01-.05-.02-.05-.03-.04 0-.05-.02-.05-.04-.02-.02 0-.03 0-.04.04-.02.07-.02.1 0 .03 0 .05.02.06.03h.06c.01-.02.05-.02.1-.02l.07-.02v-.02c-.04 0-.06-.04-.09-.07a.3.3 0 0 1-.15-.05c-.04 0-.07-.01-.1-.03h-.07a.25.25 0 0 1-.14 0h-.08a.1.1 0 0 1-.1.02.15.15 0 0 0-.08-.05c-.03-.01-.04-.02-.04-.04-.04-.02-.03-.04 0-.05.03-.01.05-.02.1 0l.05.02Z" fill="#000"></path><path d="M40.62 13.05s0-.02-.03 0c-.08 0-.16 0-.22-.04-.07-.04-.13-.08-.2-.08l.07-.04h.15c.07 0 .14.02.2.04.04.02.08.05.1.08.03.019.057.043.08.07a.249.249 0 0 1-.07 0 .29.29 0 0 1-.08-.03Z" fill="#fff"></path><path d="M40.8 9.47v.02l.09.49-.37.32-.02.01.02.01.47.16.1.49v.02l.02-.01.37-.33.46.16h.03v-.01l-.1-.49.37-.32.02-.02h-.03l-.46-.16-.1-.49V9.3l-.02.01-.37.33-.47-.16-.01-.01Z" fill="#000"></path><path fill-rule="evenodd" clip-rule="evenodd" d="m41.65 9.36.1.46-.35.3.25-.76Zm-.8.16.43.14.08.46-.51-.6Zm.9.31-.34.3.78-.15-.44-.15Zm-.84.17-.35.3.79-.16-.44-.14Zm1.28 0-.34.3-.44-.15.78-.15Zm-1.19.46.35-.3-.78.15.43.15Zm.84-.15-.44-.15.53.6-.09-.45Zm.07.46-.43-.15-.09-.45.52.6Zm-.99-.79.43.15-.52-.6.09.45Zm.54.65-.08-.46-.26.76.34-.3Zm-.36.29-.09-.45.35-.3-.26.75Zm.19-1.26.09.46.26-.76-.35.3Z" fill="#F7DB17"></path></g></svg>