<!----><svg viewBox="0 0 65 48" fill="currentColor" xmlns="http://www.w3.org/2000/svg" role="img" preserveAspectRatio=""><title><!---->Cyprus<!----></title><rect x="0.5" width="64" height="48" rx="4" fill="#D8D8D8"></rect><mask id="CY_svg__a" maskUnits="userSpaceOnUse" x="0" y="0" width="65" height="48" style="mask-type:alpha"><rect x="0.5" width="64" height="48" rx="4" fill="#fff"></rect></mask><g mask="url(#CY_svg__a)"><path d="M.5 0h64v48H.5V0Z" fill="#fff"></path><path fill-rule="evenodd" clip-rule="evenodd" d="M17.78 31.87h.01a.09.09 0 0 0 .04 0 .07.07 0 0 0 .03-.04c.018-.036.012-.072.003-.122l-.003-.018a2.196 2.196 0 0 0-.16-.46c-.15-.32-.32-.65-.35-.69 0 0-.25-.32-.57-.64a3.964 3.964 0 0 0-.52-.44c-.2-.14-.36-.2-.5-.2a.329.329 0 0 0-.11.01l-.002.034c-.004.084-.015.298.002.546.03.42.14.74.31.94a4.37 4.37 0 0 0 1.82 1.08Zm.84.06a4.258 4.258 0 0 1-.24-.34c-.13-.2-.24-.4-.24-.56 0-.134-.025-.368-.045-.559l-.015-.141-.06-.45c.03 0 .66.24.66.84s-.06 1.2-.06 1.2v.01Zm1.98 1.78c.228.2.484.364.76.49h.01c-.29-.91-.62-1.57-1-1.97-.32-.35-.61-.44-.81-.44h-.06c-.14.01-.23.06-.23.06a4.85 4.85 0 0 0 1.33 1.86Zm-.39.53a3.859 3.859 0 0 1-.96-.42c-.44-.27-.99-.75-1.05-1.5l.1-.01h.03c.13 0 .4.03.73.28.42.32.8.88 1.15 1.65Zm1.51.15a.34.34 0 0 0 .25.1v-.01c.09 0 .16-.04.19-.11.02-.06.02-.14-.02-.24-.07-.17-.23-.35-.43-.35h-.01a.349.349 0 0 0-.12.03v.01c-.002.043-.006.187.03.33a.52.52 0 0 0 .11.24Zm1.21.51a3.08 3.08 0 0 0 1.89.93c-.47-1.43-1.4-1.66-1.9-1.67a1.39 1.39 0 0 0-.1 0c-.18.01-.3.04-.3.04.086.26.226.498.41.7Zm.53 1.05h-.01c-1.01-1.19-1.88-1.37-2.3-1.37h-.04c-.18 0-.3.02-.3.04s.02.1.07.2c.085.163.2.31.34.43.32.3.976.658 2.23.7h.01Zm2.02 0c.06.06.16.1.26.1l-.01-.01c.1 0 .17-.04.2-.1.02-.07.01-.15-.03-.25-.06-.17-.23-.34-.43-.34a.35.35 0 0 0-.13.02c-.007.114.003.229.03.34a.52.52 0 0 0 .11.24Zm-4.43.2a.26.26 0 0 1-.2-.1.47.47 0 0 1-.08-.2 1.17 1.17 0 0 1-.02-.283v-.007a.239.239 0 0 1 .1-.02c.09 0 .16.05.2.1a.56.56 0 0 1 .14.2c.02.09.03.16 0 .22 0 .04-.06.1-.13.1l-.01-.01Zm5.52.34c.25.39.84.89 2.23 1.09v-.01c-.91-1.71-1.85-1.9-2.23-1.9-.12 0-.2.02-.2.02s-.06.39.2.8Zm-1.9 1.57c-.1 0-.2-.04-.26-.1a.52.52 0 0 1-.11-.24 1.168 1.168 0 0 1-.03-.34.35.35 0 0 1 .13-.02c.2 0 .36.17.43.34.04.1.05.18.02.25-.02.06-.1.1-.18.1v.01Zm.75.07a3.17 3.17 0 0 0 1.6.45v-.01a2.88 2.88 0 0 0 1.48-.4c-.75-.35-1.41-.54-1.95-.54-.46.01-.74.14-.9.26-.16.11-.23.24-.23.24Zm5.84 1.71a.08.08 0 0 0 .02.02h.01l.16-.02-.08-.06-.07.05c.102-.124.213-.24.33-.35l.33-.29-1.15-.85-.62-.13-.84-.35-.24.27.46.21.62.19.06.09.49.63.38.45.13.14h.01Zm-5.31-2.54c-.59 0-1.04-.1-1.34-.3a.83.83 0 0 1-.3-.33.543.543 0 0 1-.04-.16c.228-.095.473-.143.72-.14a2.7 2.7 0 0 1 1.89.87c-.34.04-.65.06-.93.06Zm-4.89-.83c.54.53 1.4.73 2.02.73v-.01h.05c.34 0 .58-.06.72-.16.06-.05.09-.11.08-.17-.01-.07-.07-.14-.17-.22-.3-.23-.75-.34-1.34-.34h-.12c-.65.02-1.24.17-1.24.17Zm-1.44-1.14c-.32.003-.638-.03-.95-.1-.53-.14-.76-.34-.86-.49a.5.5 0 0 1-.08-.2.345.345 0 0 1 0-.08s.35-.1.84-.11c.248-.006.496.014.74.06.51.108.965.395 1.28.81 0 0-.4.12-.97.12v-.01Zm-1.25-1.22c-.39 0-.52-.2-.56-.3a.6.6 0 0 1-.04-.3.846.846 0 0 1 .2-.02.8.8 0 0 1 .65.3l.005.01c.024.046.071.137.025.22-.04.06-.13.1-.28.1v-.01Zm-1.75-1.15c.297.05.598.073.9.07v.01c.22 0 .38-.02.38-.02a.94.94 0 0 0-.26-.55c-.23-.26-.74-.57-1.8-.6 0 0 .04.25.14.5.11.24.3.53.64.59Z" fill="#435125"></path><path fill-rule="evenodd" clip-rule="evenodd" d="M42.59 31.87h-.01a.09.09 0 0 1-.04 0 .07.07 0 0 1-.03-.04c-.018-.036-.012-.072-.003-.122l.003-.018c.036-.159.09-.313.16-.46.15-.32.32-.65.35-.69 0 0 .25-.32.57-.64.16-.161.334-.308.52-.44.2-.14.36-.2.5-.2a.329.329 0 0 1 .11.01l.002.034c.004.084.015.298-.002.546-.03.42-.14.74-.31.94a4.37 4.37 0 0 1-1.82 1.08Zm-.84.06c.086-.11.166-.223.24-.34.13-.2.24-.4.24-.56 0-.134.025-.368.045-.559l.015-.141.06-.45c-.03 0-.66.24-.66.84s.06 1.2.06 1.2v.01Zm-1.98 1.78a3.12 3.12 0 0 1-.76.49H39c.29-.91.62-1.57 1-1.97.32-.35.61-.44.81-.44h.06c.14.01.23.06.23.06a4.85 4.85 0 0 1-1.33 1.86Zm.39.53c.338-.096.66-.237.96-.42.44-.27.99-.75 1.05-1.5l-.1-.01h-.03c-.13 0-.4.03-.73.28-.42.32-.8.88-1.15 1.65Zm-1.51.15a.34.34 0 0 1-.25.1v-.01c-.09 0-.16-.04-.19-.11a.347.347 0 0 1 .02-.24c.07-.17.23-.35.43-.35h.01a.349.349 0 0 1 .12.03v.01c.002.043.006.187-.03.33a.52.52 0 0 1-.11.24Zm-1.21.51a3.08 3.08 0 0 1-1.89.93c.47-1.43 1.4-1.66 1.9-1.67a1.768 1.768 0 0 1 .4.04 1.94 1.94 0 0 1-.41.7Zm-.53 1.05h.01c1.01-1.19 1.88-1.37 2.3-1.37h.04c.18 0 .3.02.3.04s-.02.1-.07.2c-.085.163-.2.31-.34.43-.32.3-.976.658-2.23.7h-.01Zm-2.02 0a.38.38 0 0 1-.26.1l.01-.01c-.1 0-.17-.04-.2-.1-.02-.07-.01-.15.03-.25.06-.17.23-.34.43-.34a.35.35 0 0 1 .13.02c.007.114-.003.229-.03.34a.52.52 0 0 1-.11.24Zm4.43.2a.26.26 0 0 0 .2-.1.47.47 0 0 0 .08-.2 1.17 1.17 0 0 0 .02-.283v-.007a.239.239 0 0 0-.1-.02.26.26 0 0 0-.2.1.56.56 0 0 0-.14.2c-.02.09-.03.16 0 .22 0 .04.06.1.13.1l.01-.01Zm-5.52.34c-.25.39-.84.89-2.23 1.09v-.01c.91-1.71 1.85-1.9 2.23-1.9.12 0 .2.02.2.02s.06.39-.2.8Zm1.9 1.57c.1 0 .2-.04.26-.1a.52.52 0 0 0 .11-.24c.027-.111.037-.226.03-.34a.35.35 0 0 0-.13-.02c-.2 0-.36.17-.43.34-.04.1-.05.18-.02.25.02.06.1.1.18.1v.01Zm-.75.07a3.17 3.17 0 0 1-1.6.45v-.01a2.88 2.88 0 0 1-1.48-.4c.75-.35 1.41-.54 1.95-.54.46.01.74.14.9.26.16.11.23.24.23.24Zm-5.84 1.71a.08.08 0 0 1-.02.02h-.01l-.16-.02.08-.06.07.05a3.713 3.713 0 0 0-.33-.35l-.33-.29 1.15-.85.62-.13.84-.35.24.27-.46.21-.62.19-.06.09-.49.63-.38.45-.13.14h-.01Zm5.31-2.54c.59 0 1.04-.1 1.34-.3a.83.83 0 0 0 .3-.33.543.543 0 0 0 .04-.16 1.819 1.819 0 0 0-.72-.14 2.7 2.7 0 0 0-1.89.87c.34.04.65.06.93.06Zm4.89-.83c-.54.53-1.4.73-2.02.73v-.01h-.05c-.34 0-.58-.06-.72-.16-.06-.05-.09-.11-.08-.17.01-.07.07-.14.17-.22.3-.23.75-.34 1.34-.34h.12c.65.02 1.24.17 1.24.17Zm1.44-1.14c.32.003.638-.03.95-.1.53-.14.76-.34.86-.49a.5.5 0 0 0 .08-.2.345.345 0 0 0 0-.08s-.35-.1-.84-.11a3.498 3.498 0 0 0-.74.06 2.17 2.17 0 0 0-1.28.81s.4.12.97.12v-.01ZM42 34.11c.39 0 .52-.2.56-.3a.6.6 0 0 0 .04-.3.846.846 0 0 0-.2-.02.8.8 0 0 0-.65.3l-.005.01c-.024.046-.071.137-.025.22.04.06.13.1.28.1v-.01Zm1.75-1.15a5.11 5.11 0 0 1-.9.07v.01c-.22 0-.38-.02-.38-.02a.94.94 0 0 1 .26-.55c.23-.26.74-.57 1.8-.6 0 0-.04.25-.14.5-.11.24-.3.53-.64.59Z" fill="#435125"></path><path d="m52.4 7.64-.18.07-.08.03-.22-.01-.22.1-.38.26-.01.01-.15.04-.13-.06-.07.04-.03.15-.07.11-.09.06-.3.03-.25.14-.34-.1-.15.07-.33.3-.17.07h-.05l-.23-.01-.09.03-.14.13-.26.02-.09.06-.13.26-.14.16-.08.01-.08-.03-.07.01-.03.17-.06.07-.18.06-.14.12-.13.06h-.2l-.17.1-.31.02-.13.12-.03.03-.06.03-.1.06-.02.02-.12-.02-.14.05-.06-.08-.1.05-.12.01-.16-.07-.13-.06-.09.02-.03.15v.02l-.1.12-.17.11-.02.03-.2.26-.38.4-.32.16-.33.1-.23.19-.6.3-.97.48-.2.06-.28.04-.5.19-.44.13-.03.01-.08.03-.63.19-.29-.04-.17.07-.45-.05h-.31l-.2.04-.37.18-.63.3-.2.2-.32.16-.38.12v-.16l-.13.04-.1.03-.3.04h-.17l-.11-.03h-.02l-.62.21-.7.07-.35.11h-.26l-.16.05-.32.04-.12-.03-.02-.01-.94.04-.43-.05-.2.05-.35-.12-.5-.06-.12-.03-.26-.08-.12.07-.1.01-.2-.08h-.08l-.18.06-.1-.02-.1-.08-.21-.03-.14-.11-.75.1-.2-.06-.69-.2h-.1l-.14.1-.2.08-.19.04-.24.01-.28-.07-.28-.14-.11-.03-.24.03h-.07l-.44-.23-.56-.35-.38-.19-.15-.02-.02.07.07.22.03.23v.2l-.01.13.03.11.14.16.06.15.04.42v.43l-.07.68-.02.1-.08.36-.07.33-.29.87-.07.1-.2.13-.43.3-.32.18-.1.04-.26.02h-.16l-.2-.11-.2-.05-.26-.19-.28-.06-.32-.18-.08-.1-.17-.02-.24-.07-.09-.03-.06-.01-.3-.01-.29-.13-.15-.04h-.2l-.21.1-.11.04-.14-.05H19l-.1.17-.02.03-.08.04h-.17l-.08.03-.11.05-.1.04-.05.02h-.03l-.05.02h-.06l-.12-.06-.06-.03-.1-.02-.05.03-.01.19-.05.11-.16.14-.16.14-.1.16-.3.67-.19.27-.05.07-.2.21-.17.13-.39.3-.37.15-.32.06h-.16l-.3-.04-.26-.08-.3-.18-.31-.26-.47-.45-.06-.04-.02-.01-.14-.1h-.11l-.04.08-.03.1-.02.09-.05.5v.03l.03.21.36.5.1.26.02.03.07.12.06.1.13.36-.09.2.04.14-.1.08-.02.12.31.4.07.17-.07.24-.13.14-.03.03.02.1.14.14.25.22.13.32.1.1.12-.03.06.05h.1l.1.1.06.02.1.05.08.1.01.32.15.38v.25l.1.15.02.12-.05.33.12.1.12-.02.08.01.13.11.16.24.16-.02.1.04.47.43.1.06.09.04.1.1.14-.1h.02l.16-.02.07.05.14.09h.17l.4.12.16.04.34.21.15.09.08.07.12.1.22.1.2.04.1.02.09.03.42.17.23.05.2.08.16.05h.12l.16-.13h.15l.13.02.13-.02.2-.12.03-.06.14-.06.48-.06.14.04.36-.15.24.06.2-.07.47.1.12.09.14.15h.17l-.07.11.2.22.19.27.01.04.13.39.1.14.07.19v.12l-.1.09-.02.04v.02l.02.05.04-.02.07-.04.1-.02.16.02.11.01.17-.08.12-.06.18.08h.2l.09.03.24.11.12.01.04-.03.03-.06-.01-.08-.1-.11-.2-.24-.08-.12-.06-.17-.02-.22-.02-.15.03-.2.05-.07.04-.16.01-.04.12-.15.3-.2.32-.28.25-.17.26-.11v-.03l.04.01.66-.23.3-.05 2 .14.07-.02.07-.19.03-.03.03-.02.22-.1.1-.02.28.07.12.03.19-.1h.13l.27-.15h.17l.07-.02.33-.24.31-.09.08-.04.03-.02.33-.17.2-.16.18-.1.2-.04.5-.04.11-.17.22-.03.13-.15.15-.06.11-.16.1-.13.12-.07.41-.03.48.06.07-.04.1-.39.12-.07.3-.45v-.16l.01-.14.05-.2-.03-.34.04-.36.19-.45.17-.18.27-.19.14-.06.2-.03h.02l.05-.02h.92l.23-.01.57.1h.04l.19.07.22.17.24.23.04.04.15.07.05.02.12-.02.18-.1.14-.1.18-.1v-.02l.11-.15.04-.07.36-.14.42-.02.05-.03h.02l.11-.14h.1l.26.1.17-.04.14.05.11-.01.2-.03.23.16.13.02.45.26h.04l.02.01.05-.02.08-.02h.01l.01.01.06.07.07.01.08-.1-.03-.06-.01-.02-.17-.03-.14-.25.14-.15-.22-.26-.04-.05v-.01l-.08-.12-.38-.58-.5-.4-.17-.13-.06-.05-.27-.27-.19-.25-.02-.05-.04-.09-.11-.24-.2-.15-.16-.18-.34-.46-.05-.07-.08-.05h-.17l-.01-.02h-.01v-.01l.08-.08.1-.02.03-.09-.17-.49v-.02l-.01-.15.13-.71.02-.09.24-.47.14-.12.16-.31.14-.2.13-.13.02-.01.23-.14.2-.03.19-.03.33.1h.3l.07-.01.14-.02.23-.07.11-.07.06-.08.12-.4.04-.13.07-.14.43-.49.32-.3.72-.52.35-.21.18-.11 1.61-.72.42-.42.22-.22.38-.26.45-.19.4-.3.08-.11.1-.35.1-.02.07-.17.03-.05.31-.22.04-.02 1.23-.62.18.03.1-.15.35-.06h.07l.09-.05.07-.13v-.03l.01-.34.08-.09.04-.22.04-.06.04-.05.1-.07-.02-.04v-.01Z" fill="#D47600"></path></g></svg>