<!----><svg viewBox="0 0 64 48" fill="currentColor" xmlns="http://www.w3.org/2000/svg" role="img" preserveAspectRatio=""><title><!---->Greece<!----></title><g clip-path="url(#GR_svg__a)"><path fill-rule="evenodd" clip-rule="evenodd" d="M0 0h64v5.33H0V0Z" fill="#0D5EAF"></path><path fill-rule="evenodd" clip-rule="evenodd" d="M0 5.33h64v5.34H0V5.33Z" fill="#fff"></path><path fill-rule="evenodd" clip-rule="evenodd" d="M0 10.67h64V16H0v-5.33Z" fill="#0D5EAF"></path><path fill-rule="evenodd" clip-rule="evenodd" d="M0 16h64v5.33H0V16Z" fill="#fff"></path><path d="M0 0h26.67v26.67H0V0Z" fill="#0D5EAF"></path><path fill-rule="evenodd" clip-rule="evenodd" d="M0 21.33h64v5.34H0v-5.34Z" fill="#0D5EAF"></path><path fill-rule="evenodd" clip-rule="evenodd" d="M0 26.67h64V32H0v-5.33Z" fill="#fff"></path><path fill-rule="evenodd" clip-rule="evenodd" d="M0 32h64v5.33H0V32Z" fill="#0D5EAF"></path><path fill-rule="evenodd" clip-rule="evenodd" d="M0 37.33h64v5.34H0v-5.34ZM10.67 0H16v26.67h-5.33V0Z" fill="#fff"></path><path fill-rule="evenodd" clip-rule="evenodd" d="M0 10.67h26.67V16H0v-5.33Z" fill="#fff"></path><path d="M0 42.67h64V48H0v-5.33Z" fill="#0D5EAF"></path></g><defs><clipPath id="GR_svg__a"><rect width="64" height="48" rx="3" fill="#fff"></rect></clipPath></defs></svg>