<!----><svg viewBox="0 0 64 48" fill="currentColor" xmlns="http://www.w3.org/2000/svg" role="img" preserveAspectRatio=""><title><!---->Liechtenstein<!----></title><g clip-path="url(#LI_svg__a)"><path d="M0 0h64v24H0V0Z" fill="#002B7F"></path><path d="M0 24h64v24H0V24Z" fill="#CE112A"></path><path d="m17.312 9.784-.152 5h-5.072c-.624-1.216-1.136-2.24-1.136-3.64 0-1.168.92-2.096 2.24-2.096 1.4 0 2.944.472 4.12.736ZM11.56 10.017v2.88Zm.4-.297v3.84Zm.416-.2v4.577Zm.4-.096v3.593Zm.408-.016v3.625Zm.408-.136v3.76Zm.408 0v3.76Zm.408.04v3.76Zm.408.04v3.752Zm.408.232v3.76Zm.4.04v4.232Zm.416 0v3.76Zm.4 0v3.76Z" fill="#FFD83D"></path><path d="M11.56 10.017v2.88m.4-3.177v3.84m.416-4.04v4.577m.4-4.673v3.593m.408-3.609v3.625m.408-3.76v3.76M14 9.273v3.76m.408-3.72v3.76m.408-3.72v3.752m.408-3.52v3.76m.4-3.72v4.232m.416-4.233v3.76m.4-3.76v3.76" stroke="#000" stroke-width="1.2" stroke-linecap="round" stroke-linejoin="round"></path><path d="M14.112 9.44c.864.136 2.752 1.024 2.536 2.216-.304 1.696-1.296 1.016-2.608.776l-.992.328c-.36.36-.88.696-1.232.256h-.592v2.304h6.512V9.76l-3.624-.32Z" fill="#000" stroke="#000" stroke-width="1.2" stroke-linecap="round" stroke-linejoin="round"></path><path d="M17.024 9.432a.392.392 0 1 0 0-.784.392.392 0 0 0 0 .784ZM16.136 9.216a.392.392 0 1 0 0-.784.392.392 0 0 0 0 .784ZM15.232 8.992a.392.392 0 1 0 0-.784.392.392 0 0 0 0 .784ZM14.328 8.84a.392.392 0 1 0 0-.784.392.392 0 0 0 0 .784ZM13.424 8.752a.392.392 0 1 0 0-.784.392.392 0 0 0 0 .784ZM12.543 8.8a.392.392 0 1 0 0-.784.392.392 0 0 0 0 .784ZM11.696 9.088a.392.392 0 1 0 0-.784.392.392 0 0 0 0 .784ZM10.984 9.616a.392.392 0 1 0 0-.784.392.392 0 0 0 0 .784ZM10.48 10.344a.392.392 0 1 0 0-.784.392.392 0 0 0 0 .784ZM10.232 11.208a.392.392 0 1 0 0-.784.392.392 0 0 0 0 .784ZM10.24 12.097a.392.392 0 1 0 0-.784.392.392 0 0 0 0 .784ZM10.415 12.968a.392.392 0 1 0 0-.784.392.392 0 0 0 0 .784Z" fill="#FFD83D" stroke="#000" stroke-width="1.6" stroke-linecap="round" stroke-linejoin="round"></path><path d="m17.2 9.56-.04.52c-.985-.16-2.377-.704-3.68-.704-1.2 0-2.129.48-2.129 1.696 0 1.192.504 2.28 1.176 3.384l-.695.32c-.625-1.2-1.145-2.24-1.145-3.632 0-1.168.92-2.32 2.505-2.32 1.4 0 2.831.48 4.008.736Z" fill="#FFD83D" stroke="#000" stroke-width="1.6" stroke-linecap="round" stroke-linejoin="round"></path><path d="m18.207 9.784.152 5h5.072c.624-1.216 1.136-2.24 1.136-3.64 0-1.168-.92-2.096-2.24-2.096-1.4 0-2.944.472-4.12.736ZM23.96 10.017v2.88Zm-.4-.297v3.84Zm-.416-.2v4.577Zm-.4-.096v3.593Zm-.408-.016v3.625Zm-.408-.136v3.76Zm-.408 0v3.76Zm-.408.04v3.76Zm-.408.04v3.752Zm-.408.232v3.76Zm-.4.04v4.232Zm-.416 0v3.76Zm-.4 0v3.76Z" fill="#FFD83D"></path><path d="M23.96 10.017v2.88m-.4-3.177v3.84m-.416-4.04v4.577m-.4-4.673v3.593m-.408-3.609v3.625m-.408-3.76v3.76m-.408-3.76v3.76m-.408-3.72v3.76m-.408-3.72v3.752m-.408-3.52v3.76m-.4-3.72v4.232m-.416-4.233v3.76m-.4-3.76v3.76" stroke="#000" stroke-width="1.2" stroke-linecap="round" stroke-linejoin="round"></path><path d="M21.408 9.44c-.864.136-2.752 1.024-2.536 2.216.304 1.696 1.296 1.016 2.608.776l.992.328c.36.36.88.696 1.232.256h.592v2.304h-6.512V9.76l3.624-.32Z" fill="#000" stroke="#000" stroke-width="1.2" stroke-linecap="round" stroke-linejoin="round"></path><path d="M18.496 9.432a.392.392 0 1 1 0-.784.392.392 0 0 1 0 .784ZM19.383 9.216a.392.392 0 1 1 0-.784.392.392 0 0 1 0 .784ZM20.288 8.992a.392.392 0 1 1 0-.784.392.392 0 0 1 0 .784ZM21.192 8.84a.392.392 0 1 1 0-.784.392.392 0 0 1 0 .784ZM22.095 8.752a.392.392 0 1 1 0-.784.392.392 0 0 1 0 .784ZM22.976 8.8a.392.392 0 1 1 0-.784.392.392 0 0 1 0 .784ZM23.824 9.088a.392.392 0 1 1 0-.784.392.392 0 0 1 0 .784ZM24.536 9.616a.392.392 0 1 1 0-.784.392.392 0 0 1 0 .784ZM25.04 10.344a.392.392 0 1 1 0-.784.392.392 0 0 1 0 .784ZM25.288 11.208a.392.392 0 1 1 0-.784.392.392 0 0 1 0 .784ZM25.28 12.097a.392.392 0 1 1 0-.784.392.392 0 0 1 0 .784ZM25.104 12.968a.392.392 0 1 1 0-.784.392.392 0 0 1 0 .784Z" fill="#FFD83D" stroke="#000" stroke-width="1.6" stroke-linecap="round" stroke-linejoin="round"></path><path d="m18.32 9.56.04.52c.984-.16 2.376-.704 3.68-.704 1.2 0 2.128.48 2.128 1.696 0 1.192-.504 2.28-1.176 3.384l.696.32c.624-1.2 1.144-2.24 1.144-3.632 0-1.168-.92-2.32-2.504-2.32-1.4 0-2.832.48-4.008.736ZM17.76 4.248l-.416.776.416.768.408-.768-.408-.784v.008Zm0 1.952-.416.768.416.776.4-.784-.408-.768.008.008ZM16.288 6l.648.408.648-.408-.64-.416-.656.416Zm1.64 0 .648.408.656-.408-.656-.416-.64.416h-.008Z" fill="#FFD83D" stroke="#000" stroke-width="1.6" stroke-linecap="round" stroke-linejoin="round"></path><path d="M17.76 6.32a.312.312 0 1 0 0-.624.312.312 0 0 0 0 .624ZM17.76 8.84a.84.84 0 1 0 0-1.68.84.84 0 0 0 0 1.68Z" fill="#FFD83D" stroke="#000" stroke-width="1.6" stroke-linecap="round" stroke-linejoin="round"></path><path d="M17.543 7.192v.528c-.198.01-.396.031-.592.064m1.616 0a4.97 4.97 0 0 0-.6-.064v-.528m-1.024 1.016c.27-.046.543-.07.816-.072.272 0 .544.024.8.072" stroke="#000" stroke-width="1.2" stroke-linecap="round" stroke-linejoin="round"></path><path d="M16.944 9.416c-.08 1.36-.24 2.76-.776 3.768l.864-.352c.304-1.144.368-2.624.456-3.328l-.544-.088Zm1.632 0-.552.088c.096.704.16 2.184.456 3.328l.864.352c-.528-1.008-.688-2.4-.768-3.768Z" fill="#FFD83D" stroke="#000" stroke-width="1.6" stroke-linecap="round" stroke-linejoin="round"></path><path d="M17.76 12.377c-1.04 0-1.8.48-1.84 1.727-.256-.447-1.32-1.84-2.32-1.655-.592.111-1.12.935-1.024 1.871-.496-1.408-1.928-1.64-2.984-.8.936.76 1.352 3.024 2.136 4h12.056c.784-.976 1.2-3.24 2.136-4-1.048-.84-2.488-.607-2.976.8.08-.936-.44-1.76-1.04-1.872-.992-.184-2.056 1.208-2.312 1.656-.04-1.24-.8-1.727-1.84-1.727h.008Z" fill="#FFD83D" stroke="#000" stroke-width="1.6" stroke-linecap="round" stroke-linejoin="round"></path><path d="M23.768 17.52c0 .448-2.688.936-6.008.936s-6.016-.48-6.016-.936c0-.44 2.696-.68 6.016-.68 3.312 0 6.008.24 6.008.68Z" fill="#000" stroke="#000" stroke-width="1.2" stroke-linecap="round" stroke-linejoin="round"></path><path d="M17.76 9.432a.28.28 0 1 0 0-.56.28.28 0 0 0 0 .56ZM17.76 10.056a.296.296 0 1 0 0-.592.296.296 0 0 0 0 .592ZM17.76 10.744a.328.328 0 1 0 0-.656.328.328 0 0 0 0 .656ZM17.76 11.52a.376.376 0 1 0 0-.752.376.376 0 0 0 0 .752ZM17.76 12.36a.408.408 0 1 0 0-.816.408.408 0 0 0 0 .816Z" fill="#FFD83D" stroke="#000" stroke-width="1.2" stroke-linecap="round" stroke-linejoin="round"></path><path d="M17.6 12.736c-.048 0-.088.04-.08.112l.048.344c.016.12.08.08.104 0 .016-.096.008-.16.016-.328 0-.088-.048-.128-.096-.128h.008Zm.32 0c-.048 0-.088.04-.088.128 0 .168 0 .232.016.32.016.096.08.128.104 0l.04-.336c.016-.08-.032-.112-.072-.112Zm-.616.048a.08.08 0 0 0-.08.08c0 .08.024.184.032.304.016.12.104.08.112 0 0-.064.016-.176 0-.312 0-.048-.016-.072-.048-.08h-.016v.008Zm.888 0c-.024 0-.048.024-.056.08-.004.101.001.203.016.304 0 .08.096.12.104 0 0-.12.032-.216.032-.296 0-.048-.04-.08-.08-.088h-.016Zm-1.232.136c-.04.008-.08.056-.064.104.024.104.048.216.048.32 0 .088.072.056.08 0 .006-.107.009-.213.008-.32 0-.08-.04-.112-.08-.104h.008Zm1.568 0c-.024.008-.048.04-.048.104l.016.32c0 .056.08.088.08 0 0-.104.016-.216.04-.32.016-.048-.024-.096-.056-.104a.049.049 0 0 0-.024 0h-.008Zm-4.72.016c-.048 0-.08.056-.048.12.048.112.104.176.152.288.04.104.112.04.088-.032l-.112-.296c-.024-.056-.056-.08-.08-.08Zm7.904 0c-.032 0-.056.024-.08.08-.072.152-.096.224-.12.296-.016.08.048.136.096.032l.144-.288c.032-.064 0-.12-.04-.12Zm-7.584 0c-.04.016-.056.056-.04.104.048.096.104.2.144.304.032.088.112.064.08-.016l-.08-.296c-.032-.08-.08-.104-.104-.096Zm7.24 0c-.032.008-.064.04-.08.096-.056.16-.064.208-.088.296-.032.08.048.104.08.016l.144-.304c.016-.048 0-.088-.032-.104a.049.049 0 0 0-.024 0Zm-6.84.08c-.048.008-.08.072-.048.152.032.096.08.184.128.296.048.112.12.088.104.016-.024-.072-.04-.184-.096-.36-.024-.08-.056-.112-.088-.104Zm6.464 0c-.032 0-.072.024-.096.104-.048.176-.08.288-.088.36-.024.08.056.096.096-.016.048-.112.096-.2.128-.296.032-.08 0-.144-.04-.152Zm-7.456.056c-.048 0-.08.08-.056.136.04.08.072.112.112.208.048.096.096.024.08-.04a1.263 1.263 0 0 1-.064-.224c-.016-.064-.048-.08-.08-.08h.008Zm8.448 0c-.032 0-.056.016-.08.08l-.056.224c-.016.064.032.136.08.04.04-.096.064-.12.112-.208.024-.056-.016-.128-.056-.136Zm-5.36.224c-.056 0-.104.064-.08.12.016.096.064.176.088.296.032.104.104.056.096-.016a2.298 2.298 0 0 0-.04-.32c-.016-.056-.04-.08-.072-.08h.008Zm2.272 0c-.024 0-.056.024-.064.08a2.29 2.29 0 0 0-.048.32c0 .072.072.12.096.016l.096-.296c.016-.056-.032-.12-.08-.12Zm-1.136.096c-.064 0-.072.08-.072.136a.984.984 0 0 1-.16.512c-.08.096-.184.072-.28.016a1.78 1.78 0 0 1-.264-.176c-.112-.08-.192-.032-.064.152.368.528.768.976.768 1.84 0 .104.024.136.072.136.048 0 .064-.032.064-.144 0-.856.4-1.304.768-1.84.128-.176.048-.224-.056-.144-.082.067-.17.126-.264.176-.104.056-.208.08-.28-.016a.984.984 0 0 1-.16-.512c-.008-.056-.016-.136-.08-.136h.008Zm-2.824-.128h-.016c-.024.008-.032.032-.024.08l.088.312c.024.08.112.056.096-.04l-.048-.248c-.016-.064-.064-.104-.096-.104Zm5.648 0c-.04 0-.08.04-.096.104-.032.112-.032.144-.048.24-.024.104.072.12.088.048l.096-.32c0-.04-.008-.064-.032-.072h-.016.008Zm-7.328.032c-.048 0-.08.064-.032.144.048.096.136.208.176.28.04.064.112.016.064-.064s-.064-.184-.128-.304a.08.08 0 0 0-.08-.056Zm9 0c-.024 0-.056.016-.08.056-.056.12-.08.216-.12.304-.048.08.016.128.056.064.04-.072.128-.184.176-.28.048-.08.016-.144-.032-.144Zm-11.536.264c-.048 0-.064.096-.016.16.062.079.132.15.208.216.064.064.08-.016.048-.08l-.144-.216c-.04-.056-.072-.08-.096-.08Zm14.072 0c-.024 0-.056.024-.088.08l-.152.216c-.032.064-.016.144.056.08.076-.065.146-.137.208-.216.048-.064.032-.16-.024-.16Zm-13.664.08c-.048 0-.08.032-.04.104l.152.304c.04.08.16.104.112-.016l-.104-.304a.134.134 0 0 0-.12-.08v-.008Zm13.264 0a.145.145 0 0 0-.128.088l-.096.304c-.048.12.072.096.112.016.04-.08.104-.2.144-.304.04-.072.008-.104-.032-.104Zm-14.048.032c-.064 0-.064.056-.008.096.072.056.16.112.24.184.104.08.136 0 .08-.064-.048-.064-.096-.128-.232-.2-.032-.016-.056-.016-.08-.016Zm14.824 0c-.016 0-.048 0-.08.016-.128.072-.184.136-.24.2-.048.072-.008.144.088.064.08-.072.176-.128.24-.184.064-.04.056-.096 0-.096h-.008Zm-8.768.056c-.04 0-.064.04-.056.096l.08.288c.016.088.12.088.104 0-.016-.08-.024-.184-.056-.312-.008-.048-.032-.072-.064-.08H16.4v.008Zm2.704 0c-.024 0-.048.024-.064.08-.032.12-.04.224-.056.312-.016.08.088.08.104-.008l.08-.288c.016-.056-.016-.096-.048-.096h-.016Zm-5.12-.16c-.024 0-.04.056-.016.136.085.23.128.474.128.72-.024.096-.08.104-.152.08a1.494 1.494 0 0 1-.224-.136c-.064-.04-.136.008-.04.088.48.4.824.856.96 1.408.016.112.088.128.072 0-.112-.696-.136-1.272.032-1.624.064-.136 0-.264-.096-.048-.072.144-.176.2-.264.08a3.828 3.828 0 0 1-.32-.616c-.016-.056-.04-.08-.064-.088h-.016Zm7.528 0c-.024 0-.048.032-.064.08-.056.16-.232.496-.32.624s-.192.064-.256-.08c-.104-.216-.16-.088-.104.048.168.352.144.928.04 1.624-.024.128.048.112.08 0 .148-.562.48-1.058.944-1.408.096-.08.024-.128-.04-.08a1.435 1.435 0 0 1-.224.12c-.08.032-.128.024-.152-.08-.016-.096.016-.312.136-.72.016-.064 0-.12-.024-.128a.024.024 0 0 0-.016 0Zm-9.96.192c-.04 0-.08.032-.056.096.032.112.096.224.12.288.024.072.096.04.08-.056l-.04-.248c0-.048-.056-.08-.104-.08Zm12.408 0c-.048 0-.096.032-.104.08l-.032.248c-.016.096.056.128.08.056.016-.064.08-.176.112-.288.024-.064-.008-.096-.056-.096Zm-10.904-.136c-.048-.008-.056.12-.016.176l.224.248c.064.08.104.008.064-.056l-.208-.304c-.024-.04-.048-.064-.064-.064Zm9.4 0c-.016 0-.04.024-.064.064l-.208.304c-.04.064 0 .136.072.056l.216-.248c.04-.056.04-.184-.016-.176Zm-10.56.32c-.032 0-.056.016-.04.08.016.096.04.16.064.248.024.08.08.072.08-.008l-.024-.256a.088.088 0 0 0-.08-.072v.008Zm11.72 0a.08.08 0 0 0-.08.064l-.024.256c0 .08.064.096.08.008l.072-.24c.016-.072-.016-.096-.048-.096v.008Zm-10.672.112c-.048 0-.088.056-.032.128.088.12.192.2.232.24.032.048.12.032.064-.056l-.184-.28c-.016-.032-.048-.04-.08-.032Zm9.6 0c-.016 0-.04.008-.048.032l-.192.28c-.056.088.032.104.072.064.032-.048.136-.128.232-.248.056-.08.008-.128-.04-.128h-.024Zm-11.256.328c-.032 0-.048.032 0 .104.123.15.213.324.264.512.008.112-.04.112-.088.112-.152 0-.224-.112-.352-.144-.136-.024-.16.04-.064.112.459.29.858.665 1.176 1.104.08.152.184.2.128.064a1.895 1.895 0 0 1-.192-1.008c.04-.224.096-.368.088-.496 0-.12-.08-.112-.104 0l-.08.224c-.032.04-.144.064-.24-.072a3.851 3.851 0 0 0-.448-.464.213.213 0 0 0-.08-.048h-.008Zm12.936 0c-.024 0-.056.016-.088.048a3.86 3.86 0 0 0-.44.464c-.104.136-.216.112-.24.08a.957.957 0 0 1-.08-.232c-.032-.112-.104-.12-.112 0 0 .128.048.272.088.496.04.224 0 .576-.184 1.008-.064.136.048.08.128-.064a4.24 4.24 0 0 1 1.168-1.104c.096-.072.08-.136-.056-.112-.136.032-.208.144-.352.144-.048 0-.104 0-.096-.112.008-.104.144-.352.264-.512.048-.08.04-.104 0-.104Z" fill="#000"></path><path d="m12.008 17.016.16.488Zm.32-.096.144.496Zm.352-.064.096.512ZM13 16.8l.104.504Zm.408-.04.08.512Zm.44 0 .088.504Zm.432-.144.064.512Zm.4.024.064.512Zm.392-.048.064.512Zm.384-.048.04.52Zm.424 0 .032.52Zm.384-.024.024.52Zm.416-.024.024.512Zm.48-.016.024.52Zm6.344.536-.16.488Zm-.32-.096-.136.496Zm-.344-.064-.096.512Zm-.32-.056-.104.504Zm-.424-.04-.08.512Zm-.432 0-.088.512Zm-.424-.144-.064.512Zm-.408.024-.064.512Zm-.384-.048-.072.512Zm-.392-.048-.04.52Zm-.424 0-.032.52Zm-.376-.024-.024.52Zm-.424-.024-.016.512Zm-.48-.016-.016.52Zm-.592-.04v.576Z" fill="#FFD83D"></path><path d="m12.008 17.016.16.488m.16-.584.144.496m.208-.56.096.512M13 16.8l.104.504m.304-.544.08.512m.36-.512.088.504m.344-.648.064.512m.336-.488.064.512m.328-.56.064.512m.32-.56.04.52m.384-.52.032.52m.352-.544.024.52m.392-.544.024.512m.456-.528.024.52m6.32.016-.16.488m-.16-.584-.136.496m-.208-.56-.096.512m-.224-.568-.104.504m-.32-.544-.08.512m-.352-.512-.088.512m-.336-.656-.064.512m-.344-.488-.064.512m-.32-.56-.072.512m-.32-.56-.04.52m-.384-.52-.032.52m-.344-.544-.024.52m-.4-.544-.016.512m-.464-.528-.016.52m-.576-.56v.576" stroke="#000" stroke-width="1.2" stroke-linecap="round" stroke-linejoin="round"></path></g><defs><clipPath id="LI_svg__a"><rect width="64" height="48" rx="3" fill="#fff"></rect></clipPath></defs></svg>