<!----><svg viewBox="0 0 65 48" fill="currentColor" xmlns="http://www.w3.org/2000/svg" role="img" preserveAspectRatio=""><title><!---->Malta<!----></title><rect x="0.5" width="64" height="48" rx="4" fill="#D8D8D8"></rect><mask id="MT_svg__a" maskUnits="userSpaceOnUse" x="0" y="0" width="65" height="48" style="mask-type:alpha"><rect x="0.5" width="64" height="48" rx="4" fill="#fff"></rect></mask><g mask="url(#MT_svg__a)"><path d="M32.5 0h32v48h-32V0Z" fill="#CE0000"></path><path d="M.5 0h32v48H.5V0Z" fill="#fff"></path><path fill-rule="evenodd" clip-rule="evenodd" d="M16.013 14.185c0 .144-.144.24-.32.24-.191 0-.32-.096-.32-.224s.129-.24.32-.24c.176 0 .32.112.32.24v-.016Z" fill="#F1EEEE"></path><path fill-rule="evenodd" clip-rule="evenodd" d="M5.766 13.066v5.947h5.963c0 .99.991 1.982 1.982 1.982v5.947h5.963v-5.947c.991 0 1.982-.991 1.982-1.982h5.947v-5.947H21.64c0-.991-.99-1.982-1.982-1.982V5.137h-5.947v5.947c-1.007 0-1.998.99-1.998 1.982H5.766Z" fill="#C00"></path><path fill-rule="evenodd" clip-rule="evenodd" d="M5.974 13.258v5.563h5.947c0 .991.991 1.982 1.982 1.982v5.947h5.547v-5.93c.992 0 1.983-.992 1.983-1.983h5.962v-5.563H21.45c0-.991-.992-1.983-1.983-1.983V5.33h-5.563v5.946c-.991 0-1.982.992-1.982 1.983H5.974Z" fill="#FFE600"></path><path fill-rule="evenodd" clip-rule="evenodd" d="M6.166 13.466v5.147h5.947c0 .991.99 1.982 1.982 1.982v5.947h5.164v-5.947c.99 0 1.982-.99 1.982-1.982h5.947v-5.147H21.24c0-.992-.991-1.983-1.982-1.983V5.536h-5.164v5.931c-.991 0-1.982.991-1.982 1.982H6.166v.017Z" fill="#707070"></path><path fill-rule="evenodd" clip-rule="evenodd" d="M6.374 13.657v4.764h5.947c0 .991.99 1.983 1.982 1.983v5.93h4.748v-5.947c.99 0 1.982-.99 1.982-1.982h5.947v-4.764h-5.947c0-.99-.991-1.982-1.982-1.982V5.73h-4.748v5.946c-.991 0-1.982.991-1.982 1.982H6.358h.016Z" fill="#A0A0A0"></path><path d="M14.35 11.18c.337.351.065 1.199-.639 1.902-.703.703-1.534.959-1.886.64-.352-.368-.064-1.216.64-1.919.703-.703 1.534-.96 1.886-.623Z" fill="#D0D0D0"></path><path d="M13.92 11.595c.35.352.255 1.007-.209 1.487-.463.48-1.119.56-1.47.208-.352-.352-.256-1.007.207-1.471.464-.464 1.12-.56 1.471-.224Z" fill="gray"></path><path fill-rule="evenodd" clip-rule="evenodd" d="m13.168 11.66-.16.159.847.831.144-.128-.831-.863Zm-.863.862-.128.128 1.119.56-.56-1.12-.144.145.272.56-.56-.273Z" fill="#D0D0D0"></path><path d="M21.529 13.705c-.352.352-1.2.064-1.887-.64-.687-.702-.991-1.534-.64-1.885.352-.352 1.2-.064 1.903.639.703.703.96 1.535.64 1.886h-.017Z" fill="#D0D0D0"></path><path d="M21.113 13.29c-.352.351-1.007.255-1.47-.208-.464-.464-.56-1.12-.225-1.47.352-.353 1.024-.257 1.487.207.464.464.56 1.119.208 1.47Z" fill="gray"></path><path fill-rule="evenodd" clip-rule="evenodd" d="m20.202 11.675-.144-.144-.56 1.12 1.135-.544-.16-.16-.56.288.289-.56Zm.83.831-.127-.127-.847.83.144.145.83-.848Z" fill="#D0D0D0"></path><path d="M19.003 20.899c-.352-.352-.064-1.199.64-1.902.703-.704 1.534-.976 1.886-.64.351.352.063 1.2-.64 1.903-.703.703-1.535.975-1.886.639Z" fill="#D0D0D0"></path><path d="M19.434 20.467c-.351-.351-.256-1.007.208-1.47.464-.464 1.12-.56 1.47-.208.353.351.257 1.007-.207 1.47-.464.464-1.119.56-1.487.208h.016Z" fill="gray"></path><path fill-rule="evenodd" clip-rule="evenodd" d="m21.033 19.572.144-.16-1.12-.56.56 1.12.144-.128-.288-.56.56.288Zm-.831.832.16-.144-.848-.848-.144.144.832.848Z" fill="#D0D0D0"></path><path d="M11.825 18.373c.352-.352 1.199-.064 1.886.624.688.687.976 1.55.64 1.886-.352.352-1.2.08-1.903-.623-.703-.704-.959-1.551-.639-1.887h.016Z" fill="#D0D0D0"></path><path d="M12.24 18.789c.352-.352 1.008-.256 1.471.208.464.463.56 1.119.208 1.47-.335.352-1.007.256-1.47-.207-.464-.464-.56-1.12-.208-1.471Z" fill="gray"></path><path fill-rule="evenodd" clip-rule="evenodd" d="m12.32 19.556.128.144.848-.847-.144-.128-.831.831Zm.832.831.144.16v-.016l.56-1.119-1.136.56.16.144.56-.272-.288.543Z" fill="#D0D0D0"></path><path clip-rule="evenodd" d="M20.853 16.043a4.167 4.167 0 0 1-4.165 4.163 4.159 4.159 0 0 1-4.16-4.163c0-2.3 1.865-4.163 4.166-4.163a4.163 4.163 0 0 1 4.165 4.163h-.006Z" stroke="#707070" stroke-width="0.799"></path><path clip-rule="evenodd" d="M19.842 16.034a3.175 3.175 0 0 1-3.173 3.172 3.172 3.172 0 0 1 .004-6.344 3.172 3.172 0 0 1 3.174 3.172h-.005Z" stroke="#707070" stroke-width="0.799"></path><path fill-rule="evenodd" clip-rule="evenodd" d="M15.294 19.416c0 .112-.09.203-.2.203-.11 0-.2-.091-.2-.203 0-.113.09-.204.2-.204.11 0 .2.091.2.204Zm3.165 0c0 .112-.09.203-.2.203-.11 0-.2-.091-.2-.203 0-.113.09-.204.2-.204.11 0 .2.091.2.204Zm-1.918 0v.211h-.256c-.272 0-.272.211 0 .211h.256v.195c0 .228.24.244.256.017v-.228h.271c.272 0 .272-.195 0-.195h-.255v-.211c0-.212-.272-.212-.272 0ZM15.694 16.47v.129s-.064.08-.464.112-.464 0-.464 0c.016.112.096.303.064.527.016.272-.064.512-.064.512 0 .016-.047.032-.127.016.064-.064.064-.224.064-.48 0-.224-.24-.591-.192-.687.048-.096 1.183-.128 1.183-.128Zm1.566-.415 1.04-.016s.16.32.143.48c0 .16-.064.32-.128.24-.08-.08.032-.064.048-.24 0-.192-.128-.368-.128-.368s-.287.112-.703.096c-.416-.032-.224-.192-.272-.192Z" fill="#D0D0D0"></path><path d="m15.694 16.599.195.156.055-.069V16.6h-.25Zm-.928.112.112-.224-.427-.213.068.472.247-.035Zm.064.527-.247-.035-.004.025.002.025.25-.015Zm-.064.512-.237-.08-.013.04v.04h.25Zm-.127.016-.177-.177-.33.33.457.092.05-.245Zm2.621-1.71-.004-.25.004.5v-.25Zm1.04-.017.223-.112-.07-.14-.157.002.003.25Zm.143.48-.249-.025v.025h.25Zm-.128.24.195-.157-.008-.01-.01-.01-.177.177Zm.048-.24.25.023v-.023h-.25Zm-.128-.368.203-.147-.114-.156-.18.07.091.233Zm-.703.096-.02.25h.01l.01-.25Zm-2.088.224v.128h.5v-.128h-.5Zm.25.128a9.889 9.889 0 0 1-.195-.157l.001-.002.002-.002a.16.16 0 0 1 .039-.036c.006-.004.004 0-.015.006a1.28 1.28 0 0 1-.316.053l.04.499a1.74 1.74 0 0 0 .447-.082.57.57 0 0 0 .16-.089.312.312 0 0 0 .017-.017l.008-.008c0-.002.002-.003.003-.005a.043.043 0 0 0 .003-.003l-.194-.157Zm-.484-.137a2.628 2.628 0 0 1-.347.011c-.024-.001-.033-.003-.03-.003l.013.004a.205.205 0 0 1 .014.005l.009.004c.001 0 .003 0 .004.002h.003l.001.002-.11.224a9.26 9.26 0 0 0-.112.224h.002l.003.002.005.002a.262.262 0 0 0 .068.021c.026.006.059.01.1.012.082.005.21.004.417-.012l-.04-.498Zm-.691.284c.006.043.017.089.026.123.01.039.019.074.026.113a.65.65 0 0 1 .012.22l.495.072c.021-.151.005-.286-.016-.39-.01-.052-.023-.1-.032-.135a.888.888 0 0 1-.016-.074l-.495.071Zm.062.507a1.223 1.223 0 0 1-.052.418l.237.079.238.079v-.002l.002-.004.003-.011a1.451 1.451 0 0 0 .04-.17c.021-.106.04-.255.03-.418l-.498.029Zm-.065.497c0-.13.093-.19.112-.202a.179.179 0 0 1 .06-.024c.016-.003.017 0 0-.003l-.099.49a.504.504 0 0 0 .188.005.323.323 0 0 0 .11-.041.264.264 0 0 0 .13-.225h-.5Zm.3.192c.099-.099.119-.237.127-.32.01-.095.01-.213.01-.336h-.5c0 .133 0 .222-.007.287a.28.28 0 0 1-.008.05c-.002.005.003-.013.024-.034l.353.354Zm.136-.656a.885.885 0 0 0-.048-.265 3.092 3.092 0 0 0-.084-.221 2.074 2.074 0 0 1-.06-.158c-.006-.019-.006-.024-.006-.02v.025a.19.19 0 0 1-.02.064l-.447-.224a.335.335 0 0 0-.03.185.616.616 0 0 0 .024.116c.02.065.05.14.076.201.028.067.053.129.07.185.02.06.026.095.026.112h.5Zm-.218-.575a.224.224 0 0 1-.09.094c-.01.005-.011.004 0 .001a.932.932 0 0 1 .108-.02c.103-.015.242-.028.385-.038a14.61 14.61 0 0 1 .516-.026h.036a.2.2 0 0 1 .009-.001h.002l-.006-.25-.008-.25h-.003a.527.527 0 0 1-.047.002 16.88 16.88 0 0 0-.533.027c-.147.01-.3.023-.423.041-.06.009-.121.02-.173.034a.49.49 0 0 0-.087.033.293.293 0 0 0-.133.129l.447.224Zm2.53-.406 1.04-.016-.008-.5-1.04.016.008.5Zm1.035-.266-.223.112v.002a.494.494 0 0 1 .02.042c.014.03.03.07.048.113.016.044.031.089.04.128.011.043.01.06.01.058l.498.05a.69.69 0 0 0-.022-.227 1.626 1.626 0 0 0-.059-.187 2.576 2.576 0 0 0-.087-.2v-.002h-.001l-.224.111Zm-.106.48a.371.371 0 0 1-.012.093l-.003.009.003-.006a.193.193 0 0 1 .085-.068.22.22 0 0 1 .161-.003.193.193 0 0 1 .084.058l-.39.313a.306.306 0 0 0 .13.097.28.28 0 0 0 .207-.004.34.34 0 0 0 .17-.171.768.768 0 0 0 .065-.318h-.5Zm.3.063c-.004-.003.005.005.015.021a.212.212 0 0 1 .008.2c-.007.015-.014.024-.01.017.007-.009.035-.045.058-.095a.542.542 0 0 0 .048-.184l-.498-.045c-.001.016-.004.02-.003.017l-.011.016c-.002.003-.067.082-.063.193a.32.32 0 0 0 .102.213l.353-.353Zm.12-.063a.867.867 0 0 0-.087-.362 1.103 1.103 0 0 0-.078-.138l-.006-.01a.075.075 0 0 0-.003-.003l-.001-.001-.203.146-.202.147v-.001.002a.476.476 0 0 1 .04.07c.024.052.04.106.04.15h.5Zm-.378-.368-.09-.233c.001 0 0 0 0 0l-.005.002a1.446 1.446 0 0 1-.152.04 1.855 1.855 0 0 1-.446.037l-.02.5a2.35 2.35 0 0 0 .735-.09 1.415 1.415 0 0 0 .068-.022l-.09-.234Zm-.684-.153a.711.711 0 0 1-.096-.013c-.021-.004-.028-.008-.027-.007a.159.159 0 0 1 .074.106c.012.052-.006.093.002.07l.006-.024a.257.257 0 0 0-.25-.324v.5a.243.243 0 0 1-.241-.234c-.001-.034.005-.058.006-.061 0-.005.002-.01 0-.003s-.032.09-.01.187c.026.117.11.192.2.235a.863.863 0 0 0 .298.066l.038-.498Z" fill="#707070"></path><path fill-rule="evenodd" clip-rule="evenodd" d="M17.388 16.359c.384-.016.64.032.64.032s.16.32.16.48c-.017.16-.064.32-.144.24-.064-.065.032-.049.047-.24 0-.176-.127-.368-.127-.368s-.272.112-.688.096c-.415-.032-.288-.048-.335-.064-.048 0-.064.128-.688.144-.64 0-.959-.144-.959-.144s-.064.096-.448.128h-.48c.017.096.097.288.08.527 0 .256-.08.512-.08.512h-.111c.064-.048.048-.224.064-.464 0-.24-.256-.591-.208-.703.064-.096.352 0 .4-.048.048-.064-.256-.432-.192-.767.048-.336.383-.24.783-.24.4.016 1.279.128 1.503 0 .224-.112.128-.544.32-.816a.655.655 0 0 1 .527-.24c.144 0 .32.48.32.592l-.048.064h-.064v.048c-.16.016-.176-.128-.272-.224-.032.16.128.704.128 1.055 0 .288-.112.416-.128.4Z" fill="#D0D0D0" stroke="#707070" stroke-width="0.5"></path><path fill-rule="evenodd" clip-rule="evenodd" d="M16.125 15.847c0 .112-.495.384-.543.48-.032.112.128.16.08.224s-.096.032-.112.048l-.192-.4s.48-.224.463-.32c-.015-.095-.351-.16-.415-.383-.064-.224-.032-.688-.08-.784-.048-.095-.64-.191-.64-.32 0-.16.608-.543.672-.607.064-.064.128.064.064.112-.064.064-.528.432-.528.48 0 .064.384.128.512.128.144 0 .208-.064.208-.128 0-.048-.144-.048-.144-.16s.08-.192.208-.192c.064 0 .191.08.191.176 0 .096-.111.112-.127.176-.016.08.127.128.255.128s.576.335.64.4c.08.047.144.047.08.111-.064.064-.032.128-.096.064a.24.24 0 0 1-.064-.112c0-.048-.48-.287-.56-.24-.064.064 0 .768 0 .832 0 .112.144.112.128.287Z" fill="#D0D0D0" stroke="#707070" stroke-width="0.5"></path><path fill-rule="evenodd" clip-rule="evenodd" d="M15.294 14.489h.8v.815h-.8v-.815Z" fill="#A7A7A7"></path><path fill-rule="evenodd" clip-rule="evenodd" d="M15.196 13.406a.032.032 0 0 1 .044.01l2.568 4.088a.032.032 0 1 1-.054.034l-2.568-4.088a.032.032 0 0 1 .01-.044Z" fill="gray"></path><path fill-rule="evenodd" clip-rule="evenodd" d="M15.5 13.849c0 .065-.058.117-.13.117-.073 0-.132-.052-.132-.117s.06-.118.132-.118c.072 0 .13.053.13.118Z" fill="#D0D0D0" stroke="#707070" stroke-width="0.799"></path><path fill-rule="evenodd" clip-rule="evenodd" d="M17.788 14.904c0 .048-.32.112-.656.112-.351 0-.655-.064-.655-.112s.304.08.64.08c.367 0 .67-.128.67-.08Z" fill="gray"></path><path fill-rule="evenodd" clip-rule="evenodd" d="M15.358 15.304h.655v.24h-.64l-.015-.24Z" fill="#A7A7A7"></path><path fill-rule="evenodd" clip-rule="evenodd" d="M17.652 14.864c-.148.2-.259.325-.296.3 0 0 .074-.2.222-.375l.297-.3c.037.025-.074.2-.223.375Zm.37.5-.295.125c.076-.087.177-.164.296-.225.185-.1.333-.15.333-.125l-.296.2-.037.025Z" fill="gray"></path><path fill-rule="evenodd" clip-rule="evenodd" d="m17.58 14.956.08.272-.128-.227-.08-.273.128.228Zm-.064.727s-.192.045-.448.045c-.255 0-.463-.022-.463-.045l.463-.046c.256 0 .448 0 .448.046Zm-1.503-.09c0 .022-.144.044-.32.044-.191 0-.32 0-.32-.045 0 0 .129-.045.32-.045.176 0 .32.022.32.045Z" fill="gray"></path><path fill-rule="evenodd" clip-rule="evenodd" d="M14.575 17.382s.112.256.575.256c.448 0 .607-.08.432-.208-.176-.128-.544-.096-.48.016.032.128-.144.16-.176.08-.048-.08-.207-.336.08-.352.304-.016.927-.112 1.087.064.16.176-.176.32.08.368.24.032.288-.048.72-.064.431-.032.607.08.75.064.16 0 .129-.272 0-.32-.111-.08-.335-.096-.399-.16-.048-.08-.208 0-.192-.096 0-.08.224.048.224.016l.032-.032h-.048l.016-.031-.032.015.016-.032s-.048.032-.048 0h-.032c.032-.032.016-.032 0-.047h-.048v-.049c-.032 0-.032 0-.048.032v-.08c0-.015.032-.031.08-.031.112 0 .16.128.208.128.032 0 .08-.128.224-.08l.24.096c.08.048-.048.095 0 .16.048.063.335.271.256.51-.08.225-.32.257-.32.353-.032.096.687.064.863.096a.48.48 0 0 1 .304.191l-.32.016s-.16-.08-.56-.096c-.4 0-.543-.16-.703-.191l-.64.032-.479-.048c-.096-.016-.671.255-.671.32h-.384s.048-.145.272-.16c.208-.032.431-.128.415-.192l.064-.416c0-.096.096-.16.08-.192-.016-.064-.271-.112-.511-.112s-.496.016-.544.064c-.032.064 0 .24.048.208.048 0-.016-.128.032-.144.104-.032.211-.048.32-.048.128 0 .336.112.336.16 0 .016.063.128-.032.176a1.31 1.31 0 0 1-.496.064 1.197 1.197 0 0 1-.48-.128.381.381 0 0 1-.111-.176Z" fill="#D0D0D0" stroke="gray" stroke-width="0.5"></path><path d="M17.484 16.982a.048.048 0 1 1-.096 0 .048.048 0 0 1 .096 0Z" fill="#000"></path><path fill-rule="evenodd" clip-rule="evenodd" d="m16.78 12.618.08-.607h.128l-.08.56.48.047v.08l-.607-.08Zm2.43.384-.447.416.08.096.352-.32v.703l.096.096.447-.416-.08-.095-.352.32v-.704l-.096-.096Zm.32 1.343.48-.224-.128-.288.064-.032.32.704-.048.032-.144-.304-.48.24-.064-.128Zm.432 1.886.256.048.431-.288-.032.16-.224.144-.127.064.08.128.143.224-.032.16-.271-.464-.256-.048.032-.128Zm-4.268-4.124.111.607.592-.112v-.08l-.48.096-.095-.543-.128.032Zm-1.695 1.486-.048-.047.32-.256.16.16a.91.91 0 0 1-.128.191.91.91 0 0 1-.144.16.83.83 0 0 1-.224.128c-.08.016-.16.032-.208 0a.255.255 0 0 1-.16-.08.271.271 0 0 1-.047-.16c0-.064.016-.143.063-.207a.554.554 0 0 1 .16-.176.764.764 0 0 1 .176-.112l.144-.032c.032 0 .08 0 .112.032l-.064.08a.209.209 0 0 0-.096-.016l-.096.016a.511.511 0 0 0-.112.08c-.048.032-.096.064-.112.112a.32.32 0 0 0-.064.095v.08c0 .048.016.096.048.128l.112.08.16-.016a.655.655 0 0 0 .336-.32l-.064-.095-.224.175Zm-.527 4.796.511-.367-.08-.096-.224.16-.271-.368-.048.032.255.367-.143.112-.32-.431-.064.048.384.543Zm-.24-1.167c.08-.016.128-.064.16-.144v-.24a.415.415 0 0 0-.144-.207c-.048-.048-.128-.064-.192-.048a.224.224 0 0 0-.128.08.564.564 0 0 1-.01.02c-.017.03-.038.069-.038.108l.016.175c.032.096.064.16.128.224.048.048.128.064.208.032Zm-.224.064c.072.07.176.095.272.064a.248.248 0 0 0 .128-.096.367.367 0 0 0 .064-.176.72.72 0 0 0-.128-.48.406.406 0 0 0-.16-.127.255.255 0 0 0-.32.096l-.012.017a.234.234 0 0 0-.052.159c0 .096 0 .16.032.255.03.111.09.211.176.288Zm.32-1.183h-.64v-.447l.032-.192.064-.112a.128.128 0 0 1 .096-.032c.048 0 .08.016.112.064l.01.028c.017.045.038.102.038.18a.4.4 0 0 1 .112-.176l.176-.16v.16l-.128.112-.096.096a.273.273 0 0 0-.048.064.253.253 0 0 0 0 .063v.065l-.016.16h.288v.127Zm-.352-.415v.271l.016.016h-.208v-.32l.032-.16a.088.088 0 0 1 .08-.047.08.08 0 0 1 .048.032.16.16 0 0 1 .032.064.641.641 0 0 1 0 .144Zm1.71-2.43v-.72l.128-.08.656.32-.128.08-.192-.096-.336.208v.224l-.127.064Zm.4-.528-.288.16v-.208l-.016-.128c.047.03.095.057.144.08l.16.096Zm2.686-.032.671-.272.112.08-.048.736-.112-.096.016-.208-.32-.24-.207.08-.112-.08Zm.655.16-.272-.192.192-.08a.592.592 0 0 0 .112-.08 1.337 1.337 0 0 0-.032.16v.192Zm1.375 2.094.608-.144.095.432.032.192-.032.112a.128.128 0 0 1-.08.064c-.047 0-.096 0-.127-.032a.447.447 0 0 1-.112-.192.411.411 0 0 1 0 .08l-.064.128-.128.191-.032-.16.096-.16.064-.095a.255.255 0 0 0 .032-.128.59.59 0 0 0-.016-.08l-.032-.144-.272.064-.032-.128Zm.432.32L20.17 15l.191-.048.08.304a.335.335 0 0 1 0 .16c0 .032-.031.064-.047.064l-.064-.016-.014-.012c-.016-.013-.034-.028-.034-.052a.841.841 0 0 0-.01-.02c-.017-.03-.038-.069-.038-.108Z" fill="#D0D0D0"></path></g></svg>