<!----><svg viewBox="0 0 65 48" fill="currentColor" xmlns="http://www.w3.org/2000/svg" role="img" preserveAspectRatio=""><title><!---->Portugal<!----></title><rect x="0.5" width="64" height="48" rx="4" fill="#D8D8D8"></rect><mask id="PT_svg__a" maskUnits="userSpaceOnUse" x="0" y="0" width="65" height="48" style="mask-type:alpha"><rect x="0.5" width="64" height="48" rx="4" fill="#fff"></rect></mask><g mask="url(#PT_svg__a)"><path fill-rule="evenodd" clip-rule="evenodd" d="M26.1 48h38.399V0H26.1v48Z" fill="red"></path><path fill-rule="evenodd" clip-rule="evenodd" d="M.5 48h25.6V0H.5v48Z" fill="#060"></path><path fill-rule="evenodd" clip-rule="evenodd" d="M34.45 30.62c-3.23-.1-18-9.32-18.1-10.8l.81-1.35c1.47 2.13 16.57 11.1 18.06 10.78l-.77 1.37Z" fill="#FF0"></path><path d="M34.45 30.62c-3.23-.1-18-9.32-18.1-10.8l.81-1.35c1.47 2.13 16.57 11.1 18.06 10.78l-.77 1.37" stroke="#000" stroke-width="0.06" stroke-linecap="round" stroke-linejoin="round"></path><path fill-rule="evenodd" clip-rule="evenodd" d="M34.52 30.66c-.05.1-.16.1-.35.08-1.2-.13-4.86-1.91-9.19-4.5-5.04-3.02-9.2-5.76-8.74-6.48l.12-.22.02.01c-.4 1.22 8.21 6.14 8.72 6.46 4.98 3.08 9.18 4.89 9.55 4.42l-.13.23ZM16.99 18.28c-.29.78 3.86 3.34 8.84 6.38 4.99 3.03 9.29 4.9 9.6 4.64l.15-.28c-.06.1-.2.13-.43.06-1.35-.39-4.86-2-9.21-4.64-4.36-2.64-8.14-5.07-8.73-6.1a.638.638 0 0 1-.06-.31h-.02l-.12.22-.02.03Z" fill="#FF0"></path><path d="m34.52 30.66-.026-.015v.002l.026.013Zm-.35.08-.003.03.003-.03Zm-9.19-4.5-.015.026.015-.026Zm-8.74-6.48.025.016.001-.001-.026-.015Zm.12-.22.013-.027a.03.03 0 0 0-.04.013l.027.014Zm.02.01.029.01a.03.03 0 0 0-.016-.037l-.013.027Zm8.72 6.46-.016.026.016-.026Zm9.55 4.42.026.015a.03.03 0 0 0-.01-.04.03.03 0 0 0-.04.007l.024.018ZM16.99 18.28l-.026-.017-.002.007.028.01Zm8.84 6.38-.016.026.016-.026Zm9.6 4.64.02.025.006-.01-.026-.015Zm.15-.28.026.013a.03.03 0 0 0-.011-.04.03.03 0 0 0-.04.01l.025.016Zm-.43.06.009-.028-.009.028Zm-9.21-4.64.016-.025-.016.025Zm-8.73-6.1-.027.013.001.002.026-.015Zm-.06-.31.03.002a.03.03 0 0 0-.03-.032v.03Zm-.02 0V18a.03.03 0 0 0-.026.016l.026.014Zm-.12.22.025.017.001-.002-.026-.015Zm17.483 12.397c-.02.04-.05.06-.1.069a.866.866 0 0 1-.22-.006l-.006.06c.094.01.173.016.236.005a.184.184 0 0 0 .144-.101l-.054-.027Zm-.32.063c-.296-.032-.746-.166-1.325-.392a28.306 28.306 0 0 1-2.086-.932c-1.605-.785-3.602-1.877-5.767-3.171l-.03.05c2.165 1.296 4.163 2.39 5.77 3.175.804.392 1.51.708 2.09.934.58.226 1.038.363 1.342.396l.006-.06Zm-9.178-4.495c-2.52-1.51-4.819-2.95-6.43-4.102-.806-.576-1.439-1.079-1.84-1.482-.202-.202-.344-.378-.422-.524-.078-.146-.086-.255-.038-.33l-.05-.033c-.067.104-.046.239.035.392.082.153.229.334.432.537.405.407 1.042.913 1.848 1.49 1.614 1.152 3.915 2.593 6.435 4.103l.03-.051Zm-8.729-6.44.12-.22-.052-.03-.12.22.052.03Zm.08-.208.02.01.027-.054-.02-.01-.026.054Zm.006-.026a.426.426 0 0 0 .027.29c.042.107.116.225.216.352.2.255.508.55.888.87.76.638 1.816 1.378 2.9 2.09 2.165 1.422 4.448 2.734 4.701 2.893l.032-.051c-.257-.162-2.534-1.47-4.7-2.892-1.084-.712-2.137-1.45-2.895-2.087-.379-.318-.682-.61-.879-.86a1.431 1.431 0 0 1-.208-.337c-.04-.1-.047-.182-.026-.25l-.056-.018Zm8.732 6.495c2.491 1.54 4.787 2.763 6.507 3.543.86.39 1.577.668 2.103.82.262.077.479.122.642.133a.744.744 0 0 0 .207-.01.223.223 0 0 0 .13-.073l-.047-.037c-.017.022-.047.04-.096.05a.685.685 0 0 1-.19.01 3.152 3.152 0 0 1-.63-.13c-.521-.151-1.235-.429-2.094-.818-1.717-.778-4.011-2-6.5-3.54l-.032.052Zm9.54 4.38-.13.23.052.029.13-.23-.052-.03ZM16.962 18.27c-.041.111-.002.247.095.4.098.153.257.331.471.53.428.4 1.077.889 1.889 1.447 1.624 1.119 3.908 2.519 6.397 4.039l.032-.051c-2.49-1.52-4.772-2.92-6.395-4.037-.812-.559-1.457-1.046-1.882-1.441a2.867 2.867 0 0 1-.461-.52c-.095-.148-.121-.263-.09-.346l-.056-.021Zm8.852 6.416c2.496 1.515 4.82 2.74 6.558 3.555.87.407 1.593.711 2.119.898.263.093.477.157.636.19.08.016.146.025.199.025.05 0 .095-.007.123-.03l-.038-.047c-.01.01-.036.017-.085.017a1 1 0 0 1-.187-.024 5.054 5.054 0 0 1-.628-.188 25.124 25.124 0 0 1-2.113-.896c-1.737-.813-4.058-2.037-6.552-3.551l-.032.05Zm9.642 4.628.15-.28-.052-.029-.15.281.052.028Zm.098-.31c-.025.041-.066.07-.13.08a.612.612 0 0 1-.265-.032l-.018.057a.669.669 0 0 0 .293.034.232.232 0 0 0 .172-.108l-.052-.031Zm-.396.047c-1.346-.388-4.853-1.997-9.202-4.636l-.032.05c4.351 2.641 7.864 4.253 9.218 4.644l.016-.058Zm-9.202-4.636c-2.18-1.32-4.215-2.588-5.778-3.653a28.763 28.763 0 0 1-1.95-1.429c-.505-.414-.848-.755-.992-1.008l-.052.03c.15.263.502.611 1.007 1.025.506.415 1.171.898 1.953 1.431 1.565 1.067 3.6 2.335 5.78 3.655l.032-.052Zm-8.719-6.088a.607.607 0 0 1-.057-.295l-.06-.003a.668.668 0 0 0 .063.324l.054-.026ZM17.15 18h-.02v.06h.02V18Zm-.046.016-.12.22.052.029.12-.22-.052-.03Zm-.119.218-.02.03.05.033.02-.03-.05-.033Z" fill="#000"></path><path fill-rule="evenodd" clip-rule="evenodd" d="M26.12 20.72c3.22-.03 7.2-.44 9.5-1.36l-.5-.8c-1.35.75-5.35 1.25-9.03 1.32-4.34-.04-7.41-.45-8.95-1.48l-.46.86c2.82 1.2 5.72 1.45 9.44 1.46Z" fill="#FF0"></path><path d="M26.12 20.72c3.22-.03 7.2-.44 9.5-1.36l-.5-.8c-1.35.75-5.35 1.25-9.03 1.32-4.34-.04-7.41-.45-8.95-1.48l-.46.86c2.82 1.2 5.72 1.45 9.44 1.46" stroke="#000" stroke-width="0.06" stroke-linecap="round" stroke-linejoin="round"></path><path fill-rule="evenodd" clip-rule="evenodd" d="M15.53 24.6c1.98 1.07 6.39 1.6 10.56 1.64 3.8.01 8.74-.58 10.59-1.56l-.05-1.07c-.58.9-5.88 1.77-10.58 1.74-4.7-.04-9.07-.76-10.53-1.7v.95h.01Zm19.78-6.03c-.24.2-1.46.63-3.6.97a38.879 38.879 0 0 1-5.58.4c-2.2 0-4.01-.16-5.38-.36-2.18-.28-3.34-.8-3.76-.94l.13-.22c.33.17 1.44.62 3.65.93 1.777.238 3.568.352 5.36.34a38.46 38.46 0 0 0 5.54-.4c2.15-.3 3.31-.84 3.49-.98l.15.26Zm.44.81c-.08.13-1.58.64-3.78 1.02a38.053 38.053 0 0 1-5.86.43 41.585 41.585 0 0 1-5.62-.36c-2.31-.36-3.5-.86-3.95-1.04l.11-.22c1.27.5 2.47.8 3.87 1.02 1.85.25 3.714.373 5.58.37 1.95.002 3.9-.142 5.83-.43 2.25-.37 3.48-.84 3.66-1.05l.16.27v-.01Z" fill="#FF0"></path><path d="m15.53 24.6.014-.026a.03.03 0 0 0-.014-.004v.03Zm10.56 1.64v.03-.03Zm10.59-1.56.014.027a.03.03 0 0 0 .016-.028l-.03.001Zm-.05-1.07.03-.001a.03.03 0 0 0-.055-.015l.025.016Zm-10.58 1.74v.03-.03Zm-10.53-1.7.016-.025a.03.03 0 0 0-.046.025h.03Zm0 .95h-.03c0 .017.013.03.03.03v-.03Zm19.79-6.03.019.023a.03.03 0 0 0 .007-.038l-.026.015Zm-3.6.97.004.03-.004-.03Zm-5.58.4v-.03.03Zm-5.38-.36.004-.03-.004.03Zm-3.76-.94-.026-.015a.03.03 0 0 0 .016.044l.01-.029Zm.13-.22.014-.027a.03.03 0 0 0-.04.012l.026.015Zm3.65.93-.004.03.004-.03Zm5.36.34v-.03.03Zm5.54-.4-.004-.03.004.03Zm3.49-.98.026-.015a.03.03 0 0 0-.045-.009l.019.024Zm.59 1.07h.03a.03.03 0 0 0-.056-.016l.026.016Zm-3.78 1.02.004.03-.004-.03Zm-5.86.43v-.03.03Zm-5.62-.36-.005.03.005-.03Zm-3.95-1.04-.027-.013a.03.03 0 0 0-.001.024.03.03 0 0 0 .017.017l.01-.028Zm.11-.22.01-.028a.03.03 0 0 0-.037.015l.027.013Zm3.87 1.02-.005.03.005-.03Zm5.58.37v-.03.03Zm5.83-.43.004.03-.004-.03Zm3.66-1.05.026-.015a.03.03 0 0 0-.049-.004l.023.02Zm.16.27-.026.015a.03.03 0 0 0 .056-.015h-.03Zm-20.235 5.236c.995.538 2.597.939 4.47 1.21 1.872.272 4.018.414 6.105.434v-.06c-2.084-.02-4.227-.162-6.097-.433s-3.464-.67-4.449-1.203l-.029.052ZM26.09 26.27a45.07 45.07 0 0 0 6.03-.409c1.942-.269 3.644-.662 4.574-1.154l-.028-.053c-.92.487-2.613.879-4.554 1.148-1.94.268-4.124.413-6.022.408v.06Zm10.62-1.591-.05-1.07-.06.002.05 1.07.06-.002Zm-.105-1.085c-.069.106-.21.215-.417.324a5.124 5.124 0 0 1-.804.32c-.65.206-1.512.398-2.504.561a42.548 42.548 0 0 1-6.83.521v.06a42.604 42.604 0 0 0 6.84-.521c.993-.164 1.858-.356 2.512-.565a5.19 5.19 0 0 0 .813-.323c.211-.11.363-.225.44-.345l-.05-.032ZM26.05 25.32c-2.349-.02-4.615-.21-6.475-.512-1.863-.303-3.315-.717-4.039-1.183l-.032.05c.735.474 2.198.89 4.061 1.192 1.864.302 4.133.493 6.484.513l.001-.06Zm-10.56-1.67v.95h.06v-.95h-.06Zm.03.98h.01v-.06h-.01v.06Zm19.77-6.083c-.056.047-.173.11-.354.183-.18.074-.422.157-.722.244-.601.174-1.44.367-2.509.537l.01.059a21.087 21.087 0 0 0 2.516-.539c.302-.087.544-.17.727-.245.182-.074.307-.14.371-.193l-.038-.046Zm-3.584.963c-1.847.267-3.71.401-5.576.4v.06a38.91 38.91 0 0 0 5.584-.4l-.008-.06Zm-5.576.4c-2.199 0-4.007-.16-5.376-.36l-.009.06c1.372.2 3.183.36 5.385.36v-.06Zm-5.376-.36c-2.177-.28-3.333-.798-3.755-.938l-.019.057c.419.14 1.582.66 3.766.94l.008-.059Zm-3.738-.895.13-.22-.052-.03-.13.22.052.03Zm.09-.208c.334.172 1.447.623 3.66.933l.008-.06c-2.208-.31-3.314-.759-3.64-.927l-.028.054Zm3.66.933c1.778.238 3.57.352 5.364.34v-.06c-1.791.012-3.58-.102-5.356-.34l-.008.06Zm5.364.34a38.49 38.49 0 0 0 5.544-.4l-.008-.06a38.43 38.43 0 0 1-5.536.4v.06Zm5.544-.4c1.077-.15 1.906-.36 2.489-.551.291-.096.521-.186.69-.261.168-.076.277-.137.325-.174l-.037-.048a1.8 1.8 0 0 1-.312.167 7.118 7.118 0 0 1-.685.259c-.58.189-1.405.399-2.478.548l.008.06Zm3.46-.995.15.26.052-.03-.15-.26-.052.03Zm.59 1.04a.089.089 0 0 1-.023.02.562.562 0 0 1-.06.034 2.39 2.39 0 0 1-.217.094c-.185.071-.448.16-.778.254-.658.192-1.582.414-2.681.604l.01.059a25.547 25.547 0 0 0 2.688-.605 9.95 9.95 0 0 0 .783-.256c.093-.036.168-.069.222-.097a.615.615 0 0 0 .067-.039.138.138 0 0 0 .04-.037l-.05-.032Zm-3.759 1.005a38.02 38.02 0 0 1-5.855.43v.06a38.089 38.089 0 0 0 5.864-.43l-.009-.06Zm-5.855.43a41.558 41.558 0 0 1-5.616-.36l-.008.06c1.864.247 3.744.367 5.624.36v-.06Zm-5.616-.36c-2.306-.36-3.494-.858-3.943-1.038l-.022.056c.45.18 1.643.681 3.956 1.042l.01-.06Zm-3.927-.997.11-.22-.054-.026-.11.22.054.026Zm.072-.205c1.272.501 2.474.802 3.876 1.022l.01-.06c-1.399-.22-2.597-.519-3.864-1.018l-.022.056Zm3.877 1.022c1.851.249 3.717.373 5.584.37v-.06a41.303 41.303 0 0 1-5.576-.37l-.008.06Zm5.584.37a39.266 39.266 0 0 0 5.834-.43l-.009-.06a39.199 39.199 0 0 1-5.825.43v.06Zm5.835-.43c1.126-.185 1.997-.396 2.61-.586.306-.096.548-.186.726-.266a2.04 2.04 0 0 0 .218-.112.53.53 0 0 0 .124-.096l-.046-.04a.475.475 0 0 1-.11.085c-.053.033-.124.069-.211.108a6.465 6.465 0 0 1-.719.264c-.61.189-1.478.399-2.602.584l.01.059Zm3.629-1.065.16.27.052-.03-.16-.27-.052.03Zm.216.255v-.01h-.06v.01h.06Z" fill="#000"></path><path fill-rule="evenodd" clip-rule="evenodd" d="M26.08 30.43c-4.56-.02-8.47-1.24-9.3-1.44l.6.94a24.981 24.981 0 0 0 8.74 1.43c3.47-.1 6.5-.37 8.63-1.41l.62-.98c-1.45.69-6.4 1.46-9.3 1.46m10.71-6.88v.25c-.28.33-2.02.83-4.2 1.19a43.637 43.637 0 0 1-6.54.45 41.487 41.487 0 0 1-6.2-.43 15.49 15.49 0 0 1-4.44-1.2v-.3c.97.65 3.6 1.12 4.47 1.26 2.043.3 4.106.443 6.17.43 2.69 0 4.85-.2 6.5-.45 1.57-.22 3.8-.81 4.24-1.2Zm0 .9v.25c-.28.34-2.02.84-4.2 1.2-2.166.31-4.352.459-6.54.44a39.952 39.952 0 0 1-6.2-.43 15.49 15.49 0 0 1-4.44-1.2v-.29c.97.64 3.59 1.12 4.47 1.26 1.58.24 3.61.42 6.17.42 2.69 0 4.84-.19 6.5-.44 1.57-.23 3.8-.82 4.24-1.21Z" fill="#FF0"></path><path d="M26.08 30.43v.03a.03.03 0 0 0 0-.06v.03Zm-9.3-1.44.007-.028a.03.03 0 0 0-.032.045l.025-.016Zm.6.94-.025.016a.03.03 0 0 0 .015.012l.01-.028Zm8.74 1.43v.03h.001v-.03Zm8.63-1.41.013.028a.03.03 0 0 0 .012-.011l-.025-.016Zm.62-.98.025.016a.03.03 0 0 0-.038-.043l.013.027Zm-9.3 1.43a.03.03 0 1 0 0 .06v-.06Zm10.71-6.85h.03a.03.03 0 0 0-.05-.022l.02.022Zm0 .25.023.02a.03.03 0 0 0 .007-.02h-.03Zm-4.2 1.19.004.03h.001l-.005-.03Zm-6.54.45v-.03.03Zm-6.2-.43.004-.03-.004.03Zm-4.44-1.2h-.03a.03.03 0 0 0 .018.027l.012-.027Zm0-.3.017-.025a.03.03 0 0 0-.047.025h.03Zm4.47 1.26-.005.03.005-.03Zm6.17.43v-.03.03Zm6.5-.45-.004-.03.004.03Zm4.24-.3h.03a.03.03 0 0 0-.05-.023l.02.024Zm0 .25.023.02a.03.03 0 0 0 .007-.02h-.03Zm-4.2 1.2.004.03h.001l-.005-.03Zm-6.54.44v-.03.03Zm-6.2-.43.005-.03h-.002l-.003.03Zm-4.44-1.2h-.03a.03.03 0 0 0 .018.027l.012-.027Zm0-.29.017-.025a.03.03 0 0 0-.047.025h.03Zm4.47 1.26-.005.03.005-.03Zm12.67-.02-.004-.03.004.03Zm-6.46 4.74c-4.555-.02-8.461-1.238-9.293-1.438l-.014.058c.828.2 4.742 1.42 9.307 1.44v-.06Zm-9.325-1.393.6.939.05-.032-.6-.94-.05.033Zm.615.951a25.01 25.01 0 0 0 8.75 1.433v-.06a24.95 24.95 0 0 1-8.73-1.43l-.02.057Zm8.751 1.433c3.47-.101 6.506-.37 8.642-1.413l-.026-.054c-2.123 1.037-5.147 1.306-8.618 1.407l.002.06Zm8.654-1.424.62-.981-.05-.032-.62.98.05.033Zm.582-1.024c-.72.342-2.316.707-4.098.986-1.78.278-3.741.47-5.189.47v.06c1.452 0 3.416-.192 5.198-.47 1.781-.28 3.386-.645 4.115-.992l-.026-.054ZM26.07 30.46h.01v-.06h-.01v.06Zm10.68-6.91v.25h.06v-.25h-.06Zm.007.23a.649.649 0 0 1-.163.125 2.519 2.519 0 0 1-.293.142 8.486 8.486 0 0 1-.917.308c-.74.21-1.72.426-2.809.606l.01.06c1.09-.181 2.072-.397 2.816-.609.372-.105.685-.21.923-.31.119-.05.22-.098.3-.145a.704.704 0 0 0 .179-.138l-.046-.039Zm-4.181 1.181a43.603 43.603 0 0 1-6.536.45v.06a43.67 43.67 0 0 0 6.544-.45l-.008-.06Zm-6.536.45a41.454 41.454 0 0 1-6.196-.431l-.008.06c2.054.299 4.128.442 6.204.43v-.06Zm-6.197-.431a15.462 15.462 0 0 1-4.43-1.198l-.025.055a15.52 15.52 0 0 0 4.449 1.203l.006-.06Zm-4.413-1.17v-.3h-.06v.3h.06Zm-.047-.275c.49.328 1.396.609 2.283.825.888.217 1.764.37 2.2.44l.009-.06a29.768 29.768 0 0 1-2.195-.438c-.888-.217-1.783-.496-2.263-.817l-.034.05Zm4.483 1.264c2.044.3 4.109.444 6.174.432v-.06a40.803 40.803 0 0 1-6.166-.431l-.008.06Zm6.174.432c2.692 0 4.853-.201 6.505-.452l-.01-.059c-1.648.25-3.806.45-6.495.45v.06Zm6.504-.452c.787-.11 1.738-.313 2.548-.537.405-.112.775-.23 1.072-.343.295-.114.521-.225.636-.327l-.04-.045c-.105.094-.322.202-.618.316-.294.113-.662.23-1.066.341-.808.224-1.757.426-2.54.536l.008.06Zm4.206-.328v.25h.06v-.25h-.06Zm.007.23a.64.64 0 0 1-.164.128 2.445 2.445 0 0 1-.292.144c-.235.1-.546.204-.917.31-.74.213-1.72.428-2.809.608l.01.06a26.19 26.19 0 0 0 2.816-.61c.372-.106.685-.212.923-.313.119-.05.22-.1.3-.147a.696.696 0 0 0 .18-.141l-.047-.038Zm-4.181 1.19c-2.165.31-4.35.458-6.536.439v.06c2.19.019 4.377-.13 6.544-.44l-.008-.059Zm-6.536.439a39.916 39.916 0 0 1-6.195-.43l-.01.06c2.055.304 4.129.448 6.205.43v-.06Zm-6.197-.43a15.462 15.462 0 0 1-4.43-1.198l-.025.055a15.518 15.518 0 0 0 4.449 1.203l.006-.06Zm-4.413-1.17v-.29h-.06v.29h.06Zm-.046-.265c.49.323 1.392.604 2.278.821a28.92 28.92 0 0 0 2.203.443l.01-.059c-.44-.07-1.314-.225-2.199-.442-.887-.217-1.78-.497-2.26-.813l-.032.05Zm4.482 1.264c1.581.24 3.613.42 6.174.42v-.06c-2.558 0-4.587-.18-6.165-.419l-.01.06Zm6.174.42c2.692 0 4.843-.19 6.505-.44l-.01-.059c-1.658.25-3.806.44-6.495.44v.06Zm6.504-.44a22.06 22.06 0 0 0 2.548-.545c.405-.113.775-.23 1.072-.345.295-.113.521-.225.636-.326l-.04-.045c-.105.093-.322.202-.618.315-.294.114-.662.23-1.066.343-.808.225-1.757.43-2.54.544l.008.06Z" fill="#000"></path><path fill-rule="evenodd" clip-rule="evenodd" d="M35.52 28.85c-.066.117-.132.234-.2.35-.54.2-2 .62-4.13.92-1.4.19-2.27.38-5.06.43a34.77 34.77 0 0 1-9.42-1.4l-.11-.25a39.016 39.016 0 0 0 9.54 1.4c2.55-.05 3.64-.24 5.03-.43 2.48-.38 3.73-.8 4.1-.91v-.02l.26-.1-.01.01Zm-.53.88c-.091.136-.184.268-.28.4-1 .36-2.6.74-3.26.84-1.771.33-3.569.498-5.37.5-4.04-.06-7.35-.85-8.9-1.53l-.13-.21.02-.04.21.09a28.705 28.705 0 0 0 8.82 1.45c1.88 0 3.75-.21 5.26-.48 2.32-.47 3.26-.82 3.55-.98l.07-.04h.01Z" fill="#FF0"></path><path d="m35.52 28.85-.022-.022-.004.007.026.015Zm-.2.35.01.029a.03.03 0 0 0 .016-.013l-.026-.015Zm-4.13.92.004.03-.004-.03Zm-5.06.43v.03-.03Zm-9.42-1.4-.027.013a.03.03 0 0 0 .018.016l.009-.028Zm-.11-.25.008-.028a.03.03 0 0 0-.035.04l.027-.011Zm9.54 1.4v.03-.03Zm5.03-.43.004.03-.004-.03Zm4.1-.91.009.028a.03.03 0 0 0 .021-.028h-.03Zm0-.02-.01-.027a.03.03 0 0 0-.02.028h.03Zm.26-.1.021.02a.03.03 0 0 0-.032-.048l.011.028Zm-.54.89.025.017a.03.03 0 0 0-.025-.046v.03Zm-.28.4.01.028a.03.03 0 0 0 .014-.01l-.024-.018Zm-3.26.84-.005-.03.005.03Zm-5.37.5v.03-.03Zm-8.9-1.53-.026.016a.03.03 0 0 0 .014.012l.012-.027Zm-.13-.21-.027-.013a.03.03 0 0 0 .002.03l.025-.016Zm.02-.04.012-.027a.03.03 0 0 0-.039.014l.027.014Zm.21.09-.012.028.003.001.009-.028Zm8.82 1.45v.03-.03Zm5.26-.48.005.03v-.001l-.005-.03Zm3.55-.98.015.026-.015-.026Zm.07-.04v-.03a.03.03 0 0 0-.015.004l.015.027Zm.514-.895c-.066.117-.132.234-.2.35l.052.03c.068-.116.134-.234.2-.35l-.052-.03Zm-.184.337c-.538.2-1.996.62-4.124.919l.008.06c2.132-.3 3.594-.721 4.136-.922l-.02-.056Zm-4.124.919c-1.4.189-2.269.379-5.057.429l.002.06c2.791-.05 3.663-.24 5.063-.43l-.008-.06Zm-5.056.429a34.742 34.742 0 0 1-9.412-1.398l-.017.057a34.798 34.798 0 0 0 9.429 1.4v-.06Zm-9.393-1.381-.11-.25-.054.024.11.25.054-.024Zm-.145-.21c3.112.86 6.32 1.33 9.547 1.4l.002-.06a38.985 38.985 0 0 1-9.533-1.397l-.016.058Zm9.549 1.4c2.552-.05 3.643-.24 5.033-.429l-.008-.06c-1.39.19-2.479.38-5.027.43l.002.06Zm5.034-.429c2.482-.38 3.733-.8 4.104-.912l-.018-.057c-.37.11-1.618.53-4.096.91l.01.06Zm4.125-.94v-.02h-.06v.02h.06Zm-.02.009.26-.101-.02-.056-.26.1.02.057Zm.229-.15-.01.01.042.042.01-.01-.042-.043Zm-.544.895c-.09.135-.184.266-.28.398l.05.035c.095-.132.189-.264.28-.4l-.05-.033Zm-.265.387c-.998.36-2.596.74-3.255.839l.01.06c.661-.1 2.263-.48 3.265-.842l-.02-.057Zm-3.256.84c-1.769.329-3.565.497-5.364.499v.06a29.532 29.532 0 0 0 5.376-.5l-.011-.06Zm-5.364.499c-4.037-.06-7.343-.849-8.888-1.527l-.024.055c1.555.682 4.869 1.473 8.912 1.532v-.06Zm-8.874-1.515-.13-.21-.052.031.13.21.052-.031Zm-.13-.181.02-.04-.053-.027-.02.04.054.027Zm-.018-.026.21.09.024-.055-.21-.09-.024.055Zm.213.091a28.733 28.733 0 0 0 8.829 1.452v-.06a28.676 28.676 0 0 1-8.81-1.449l-.02.057Zm8.829 1.452c1.882 0 3.754-.212 5.265-.482l-.01-.059c-1.509.27-3.377.48-5.255.48v.06Zm5.266-.482c2.32-.469 3.264-.82 3.559-.983l-.03-.053c-.285.158-1.22.508-3.541.977l.012.059Zm3.559-.983.07-.04-.03-.052-.07.04.03.052Zm.055-.035h.01v-.06h-.01v.06Z" fill="#000"></path><path fill-rule="evenodd" clip-rule="evenodd" d="M26.06 13.5c5.823 0 10.556 4.697 10.6 10.52 0 5.837-4.732 10.57-10.57 10.57s-10.57-4.733-10.57-10.57c-.01-5.8 4.73-10.52 10.54-10.52Zm9.52 10.26c.01 3-1.53 5.7-2.76 6.88a9.93 9.93 0 0 1-6.78 2.82c-3.03.05-5.88-1.92-6.65-2.79a10.1 10.1 0 0 1-2.75-6.74c.18-3.28 1.47-5.56 3.33-7.13a9.958 9.958 0 0 1 6.42-2.27 9.823 9.823 0 0 1 7.1 3.56c1.25 1.52 1.8 3.17 2.09 5.67Z" fill="#FF0"></path><path d="M26.06 13.47a.03.03 0 1 0 0 .06v-.06Zm10.6 10.55h.03-.03Zm-21.14 0h.03-.03Zm20.06-.26h.03v-.004l-.03.004Zm-2.76 6.88-.02-.022.02.022Zm-6.78 2.82v-.03.03Zm-6.65-2.79.023-.02h-.001l-.022.02Zm-2.75-6.74-.03-.002v.003l.03-.001Zm3.33-7.13-.019-.023.02.023Zm6.42-2.27.002-.03h-.002v.03Zm7.1 3.56.023-.02-.023.02Zm-7.43-4.56c5.807 0 10.526 4.684 10.57 10.49h.06c-.044-5.84-4.79-10.55-10.63-10.55v.06Zm10.57 10.49c0 5.82-4.719 10.54-10.54 10.54v.06c5.855 0 10.6-4.746 10.6-10.6h-.06ZM26.09 34.56c-5.821 0-10.54-4.72-10.54-10.54h-.06c0 5.854 4.745 10.6 10.6 10.6v-.06ZM15.55 24.02c-.01-5.783 4.717-10.49 10.51-10.49v-.06c-5.826 0-10.58 4.733-10.57 10.55h.06Zm20-.26c.01 2.991-1.526 5.683-2.75 6.858l.04.044c1.236-1.185 2.78-3.893 2.77-6.902h-.06Zm-2.75 6.858a9.9 9.9 0 0 1-6.76 2.812v.06a9.96 9.96 0 0 0 6.801-2.829l-.042-.043Zm-6.76 2.812c-1.509.025-2.974-.453-4.159-1.047-1.185-.594-2.087-1.302-2.468-1.733l-.045.04c.388.439 1.296 1.15 2.486 1.747 1.19.596 2.665 1.078 4.187 1.053l-.001-.06Zm-6.628-2.78a10.07 10.07 0 0 1-2.742-6.72h-.06a10.129 10.129 0 0 0 2.758 6.76l.044-.04Zm-2.742-6.718c.18-3.272 1.466-5.545 3.32-7.11l-.04-.045c-1.866 1.576-3.16 3.863-3.34 7.151l.06.004Zm3.32-7.109a9.928 9.928 0 0 1 6.4-2.263v-.06a9.989 9.989 0 0 0-6.439 2.277l.038.046Zm6.399-2.263a9.793 9.793 0 0 1 7.078 3.55l.046-.04a9.853 9.853 0 0 0-7.121-3.57l-.003.06Zm7.078 3.55c1.245 1.513 1.794 3.157 2.083 5.654l.06-.008c-.29-2.503-.842-4.159-2.097-5.685l-.046.038Z" fill="#000"></path><path fill-rule="evenodd" clip-rule="evenodd" d="M15.76 24c0 5.68 4.67 10.33 10.33 10.33S36.42 29.68 36.42 24s-4.67-10.33-10.33-10.33S15.76 18.32 15.76 24Zm10.33-10.55c5.82 0 10.56 4.74 10.56 10.56S31.91 34.57 26.1 34.57c-5.81 0-10.56-4.74-10.56-10.56s4.74-10.56 10.56-10.56h-.01Z" fill="#FF0"></path><path d="M26.09 13.42a.03.03 0 1 0 0 .06v-.06Zm.01.06a.03.03 0 1 0 0-.06v.06ZM15.73 24c0 5.697 4.683 10.36 10.36 10.36v-.06c-5.644 0-10.3-4.637-10.3-10.3h-.06Zm10.36 10.36c5.676 0 10.36-4.663 10.36-10.36h-.06c0 5.663-4.657 10.3-10.3 10.3v.06ZM36.45 24c0-5.697-4.684-10.36-10.36-10.36v.06c5.643 0 10.3 4.637 10.3 10.3h.06ZM26.09 13.64c-5.677 0-10.36 4.663-10.36 10.36h.06c0-5.663 4.656-10.3 10.3-10.3v-.06Zm0-.16c5.803 0 10.53 4.727 10.53 10.53h.06c0-5.837-4.754-10.59-10.59-10.59v.06Zm10.53 10.53c0 5.803-4.727 10.53-10.52 10.53v.06c5.826 0 10.58-4.754 10.58-10.59h-.06ZM26.1 34.54c-5.794 0-10.53-4.727-10.53-10.53h-.06c0 5.837 4.763 10.59 10.59 10.59v-.06ZM15.57 24.01c0-5.803 4.726-10.53 10.53-10.53v-.06c-5.837 0-10.59 4.753-10.59 10.59h.06ZM26.1 13.42h-.01v.06h.01v-.06Z" fill="#000"></path><path fill-rule="evenodd" clip-rule="evenodd" d="M16.66 24c0 5.2 4.26 9.44 9.44 9.44s9.44-4.25 9.44-9.44c0-5.2-4.26-9.44-9.44-9.44A9.48 9.48 0 0 0 16.66 24Zm9.44-9.67A9.701 9.701 0 0 1 35.77 24c-.017 5.335-4.335 9.658-9.67 9.68-5.3 0-9.67-4.36-9.67-9.68a9.71 9.71 0 0 1 9.67-9.67Z" fill="#FF0"></path><path d="M16.66 24h-.03.03Zm9.44-9.44v-.03.03Zm0-.23v-.03.03ZM35.77 24h.03-.03Zm-9.67 9.68v.03-.03ZM16.43 24h-.03.03Zm.2 0c0 5.217 4.274 9.47 9.47 9.47v-.06c-5.163 0-9.41-4.227-9.41-9.41h-.06Zm9.47 9.47c5.197 0 9.47-4.263 9.47-9.47h-.06c0 5.173-4.246 9.41-9.41 9.41v.06ZM35.57 24c0-5.217-4.273-9.47-9.47-9.47v.06c5.164 0 9.41 4.227 9.41 9.41h.06Zm-9.47-9.47A9.51 9.51 0 0 0 16.63 24h.06a9.45 9.45 0 0 1 9.41-9.41v-.06Zm0-.17A9.671 9.671 0 0 1 35.74 24h.06a9.731 9.731 0 0 0-9.7-9.7v.06ZM35.74 24c-.017 5.318-4.321 9.628-9.64 9.65v.06c5.352-.022 9.683-4.358 9.7-9.71h-.06Zm-9.64 9.65c-5.283 0-9.64-4.347-9.64-9.65h-.06c0 5.337 4.384 9.71 9.7 9.71v-.06ZM16.46 24a9.68 9.68 0 0 1 9.64-9.64v-.06a9.74 9.74 0 0 0-9.7 9.7h.06Z" fill="#000"></path><path fill-rule="evenodd" clip-rule="evenodd" d="M26.53 13.4h-.91v21.23h.9l.01-21.23Z" fill="#FF0"></path><path clip-rule="evenodd" d="M26.53 13.4h-.91v21.23h.9l.01-21.23Z" stroke="#000" stroke-width="0.06" stroke-linecap="round" stroke-linejoin="round"></path><path fill-rule="evenodd" clip-rule="evenodd" d="M25.53 13.28h.24v21.47h-.23V13.28h-.01Zm.9 0h.23v21.47h-.22V13.28h-.01Z" fill="#FF0"></path><path d="M25.53 13.25a.03.03 0 1 0 0 .06v-.06Zm.24.03h.03a.03.03 0 0 0-.03-.03v.03Zm0 21.47v.03a.03.03 0 0 0 .03-.03h-.03Zm-.23 0h-.03c0 .016.013.03.03.03v-.03Zm0-21.47h.03a.03.03 0 0 0-.03-.03v.03Zm.89-.03a.03.03 0 1 0 0 .06v-.06Zm.23.03h.03a.03.03 0 0 0-.03-.03v.03Zm0 21.47v.03a.03.03 0 0 0 .03-.03h-.03Zm-.22 0h-.03c0 .016.013.03.03.03v-.03Zm0-21.47h.03a.03.03 0 0 0-.03-.03v.03Zm-.91.03h.24v-.06h-.24v.06Zm.21-.03v21.47h.06V13.28h-.06Zm.03 21.44h-.23v.06h.23v-.06Zm-.2.03V13.28h-.06v21.47h.06Zm-.03-21.5h-.01v.06h.01v-.06Zm.89.06h.23v-.06h-.23v.06Zm.2-.03v21.47h.06V13.28h-.06Zm.03 21.44h-.22v.06h.22v-.06Zm-.19.03V13.28h-.06v21.47h.06Zm-.03-21.5h-.01v.06h.01v-.06Z" fill="#000"></path><path fill-rule="evenodd" clip-rule="evenodd" d="M36.66 24.42v-.78l-.64-.6-3.63-.96-5.22-.53-6.3.32-4.48 1.06-.9.67v.79l2.29-1.03 5.44-.85h5.23l3.84.42 2.66.64 1.71.85Z" fill="#FF0"></path><path clip-rule="evenodd" d="M36.66 24.42v-.78l-.64-.6-3.63-.96-5.22-.53-6.3.32-4.48 1.06-.9.67v.79l2.29-1.03 5.44-.85h5.23l3.84.42 2.66.64 1.71.85Z" stroke="#000" stroke-width="0.06" stroke-linecap="round" stroke-linejoin="round"></path><path fill-rule="evenodd" clip-rule="evenodd" d="M26.04 16.85c3.93-.02 7.36.55 8.93 1.35l.57 1c-1.36-.74-5.06-1.5-9.49-1.4-3.61.03-7.47.4-9.4 1.44l.68-1.14c1.59-.83 5.33-1.25 8.71-1.25Zm.06 4.62c2.29-.005 4.576.196 6.83.6 1.98.4 3.37.9 3.85 1.46v.27c-.58-.69-2.45-1.2-3.9-1.49-1.9-.37-4.3-.6-6.79-.6-2.321-.007-4.637.2-6.92.62-1.45.27-3.54.89-3.77 1.47v-.28c.14-.4 1.66-1.03 3.73-1.43 1.9-.37 4.33-.62 6.97-.62Zm0 .91c2.49 0 4.9.23 6.83.6 1.98.4 3.37.9 3.85 1.45v.28c-.58-.7-2.45-1.2-3.9-1.5-1.9-.36-4.3-.6-6.79-.6-2.61 0-5.05.26-6.93.62-1.5.3-3.51.9-3.76 1.48v-.29c.13-.4 1.63-1 3.73-1.43 1.89-.37 4.33-.61 6.96-.61h.01Z" fill="#FF0"></path><path d="m34.97 18.2.026-.015a.03.03 0 0 0-.012-.012l-.014.027Zm.57 1-.014.027a.03.03 0 0 0 .04-.041l-.026.014Zm-9.49-1.4v.03-.03Zm-9.4 1.44-.026-.015a.03.03 0 0 0 .04.041l-.014-.026Zm.68-1.14-.014-.027a.03.03 0 0 0-.012.012l.026.015Zm8.77 3.37v.03-.03Zm6.83.6.006-.03-.006.03Zm3.85 1.46h.03a.03.03 0 0 0-.007-.02l-.023.02Zm0 .27-.023.02a.03.03 0 0 0 .053-.02h-.03Zm-3.9-1.49.006-.03-.006.03Zm-6.79-.6v.03-.03Zm-6.92.62-.005-.03.005.03ZM15.4 23.8h-.03a.03.03 0 0 0 .058.011l-.028-.01Zm0-.28-.03-.01v.01h.03Zm3.73-1.43.006.03-.006-.03Zm13.8.89.006-.03-.006.03Zm3.85 1.45h.03a.03.03 0 0 0-.007-.02l-.023.02Zm0 .28-.023.02a.03.03 0 0 0 .053-.02h-.03Zm-3.9-1.5.006-.03-.006.03Zm-13.72.02-.006-.03.006.03Zm-3.76 1.48h-.03a.03.03 0 0 0 .058.012l-.028-.012Zm0-.29-.03-.01v.01h.03Zm3.73-1.43-.006-.03.006.03Zm6.91-6.11c1.964-.01 3.802.128 5.345.367 1.544.24 2.79.582 3.571.98l.028-.054c-.79-.402-2.043-.745-3.59-.985-1.546-.24-3.388-.378-5.354-.368v.06Zm8.904 1.335.57 1 .052-.03-.57-1-.052.03Zm.61.959c-.684-.373-1.953-.748-3.603-1.018-1.65-.27-3.685-.436-5.902-.386l.002.06c2.213-.05 4.244.115 5.89.385 1.648.27 2.91.644 3.585 1.012l.028-.053ZM26.05 17.77c-1.806.015-3.675.115-5.334.342-1.658.226-3.11.58-4.08 1.102l.028.053c.96-.518 2.403-.87 4.06-1.096 1.656-.226 3.522-.326 5.326-.34v-.06Zm-9.374 1.486.68-1.14-.052-.031-.68 1.14.052.03Zm.668-1.13c.79-.412 2.118-.724 3.674-.932a39.003 39.003 0 0 1 5.022-.314v-.06c-1.691 0-3.472.105-5.03.314-1.557.209-2.894.522-3.694.94l.028.053ZM26.1 21.5a38.218 38.218 0 0 1 6.825.6l.01-.06a38.272 38.272 0 0 0-6.835-.6v.06Zm6.824.6c.99.2 1.83.424 2.483.668.654.245 1.116.508 1.35.782l.046-.04c-.245-.286-.72-.553-1.375-.798-.657-.246-1.501-.471-2.492-.671l-.012.058Zm3.826 1.43v.27h.06v-.27h-.06Zm.053.25c-.149-.176-.378-.34-.659-.49a6.926 6.926 0 0 0-.978-.413 18.02 18.02 0 0 0-2.28-.596l-.012.059c.724.144 1.553.344 2.272.593.36.125.692.262.97.41.278.149.5.308.641.476l.046-.038Zm-3.917-1.5c-1.902-.37-4.304-.6-6.796-.6v.06c2.488 0 4.886.23 6.784.6l.012-.06Zm-6.796-.6c-2.323-.007-4.64.2-6.925.62l.01.06a37.58 37.58 0 0 1 6.915-.62v-.06Zm-6.925.62c-.727.136-1.613.359-2.348.62-.367.131-.697.272-.95.418a1.923 1.923 0 0 0-.318.221.64.64 0 0 0-.177.23l.056.022a.582.582 0 0 1 .16-.207c.08-.071.185-.143.31-.214.248-.143.574-.283.94-.413a16.28 16.28 0 0 1 2.337-.617l-.01-.06Zm-3.735 1.5v-.28h-.06v.28h.06Zm-.002-.27a.405.405 0 0 1 .108-.148c.057-.055.135-.112.23-.172.193-.12.46-.249.786-.377.654-.257 1.55-.514 2.584-.713l-.012-.06c-1.036.2-1.935.459-2.594.717-.329.13-.598.259-.795.382-.098.061-.18.121-.24.18a.462.462 0 0 0-.123.171l.056.02Zm3.708-1.41c1.898-.37 4.326-.62 6.964-.62v-.06c-2.642 0-5.074.25-6.976.62l.012.06Zm6.964.29c2.488 0 4.896.23 6.824.6l.012-.06c-1.932-.37-4.344-.6-6.836-.6v.06Zm6.824.6c.99.2 1.83.424 2.483.667.654.243 1.116.504 1.35.773l.046-.04c-.246-.28-.72-.545-1.375-.79-.657-.244-1.501-.47-2.492-.67l-.012.06Zm3.826 1.42v.28h.06v-.28h-.06Zm.053.261c-.148-.18-.378-.344-.659-.495a6.85 6.85 0 0 0-.978-.414c-.723-.25-1.554-.451-2.28-.601l-.012.058c.724.15 1.553.35 2.272.6.36.124.692.261.97.41.278.15.5.31.64.48l.047-.038Zm-3.917-1.51c-1.902-.36-4.304-.6-6.796-.6v.06c2.488 0 4.886.239 6.784.599l.012-.06Zm-6.796-.6c-2.612 0-5.054.26-6.936.62l.012.059c1.878-.36 4.316-.62 6.924-.62v-.06Zm-6.936.62c-.75.15-1.63.375-2.353.636a6 6 0 0 0-.934.413c-.248.143-.428.294-.495.448l.056.024c.058-.135.222-.277.469-.42.245-.14.565-.279.924-.409.72-.259 1.596-.484 2.345-.634l-.012-.058Zm-3.724 1.51v-.29h-.06v.29h.06Zm-.001-.282a.382.382 0 0 1 .103-.146c.056-.053.131-.11.226-.17.19-.117.453-.242.78-.369.65-.253 1.55-.51 2.598-.724l-.012-.06c-1.051.216-1.953.474-2.609.728a4.894 4.894 0 0 0-.789.375c-.096.06-.176.12-.235.177a.439.439 0 0 0-.12.17l.058.02Zm3.707-1.41c1.888-.369 4.326-.609 6.954-.609v-.06c-2.632 0-5.074.24-6.966.61l.012.06Zm6.954-.609h.01v-.06h-.01v.06Z" fill="#000"></path><path fill-rule="evenodd" clip-rule="evenodd" d="M31.34 28.4a27.484 27.484 0 0 0-5.25-.4c-6.55.08-8.66 1.35-8.92 1.73l-.5-.8c1.68-1.2 5.24-1.88 9.46-1.82 2.19.04 4.08.19 5.66.5l-.45.8v-.01ZM26.1 16.77c2.14-.02 4.26.1 5.91.4a9.584 9.584 0 0 1 3.06 1l.25.4c-.42-.47-2-.92-3.41-1.16-1.64-.29-3.67-.4-5.81-.42a36.031 36.031 0 0 0-5.95.44 9.73 9.73 0 0 0-2.96.91l.22-.33c.58-.3 1.52-.58 2.7-.81a35.76 35.76 0 0 1 5.99-.44v.01Zm0 .9a35.338 35.338 0 0 1 6.13.43c1.6.3 3.13.74 3.35.98l.17.3c-.53-.34-1.86-.73-3.56-1.05-1.7-.32-3.87-.43-6.1-.42-2.53-.01-4.5.12-6.18.42a10.91 10.91 0 0 0-3.33 1.03l.17-.31c.6-.3 1.53-.67 3.11-.96 1.75-.32 3.74-.41 6.24-.42Z" fill="#FF0"></path><path d="M31.34 28.4h.03a.03.03 0 0 0-.025-.03l-.005.03Zm-5.25-.4v.03V28Zm-8.92 1.73-.026.016a.03.03 0 0 0 .05.001l-.024-.017Zm-.5-.8-.018-.025a.03.03 0 0 0-.008.04l.026-.016Zm9.46-1.82v-.03.03Zm5.66.5.026.015a.03.03 0 0 0-.02-.044l-.006.03Zm-.45.8h-.03a.03.03 0 0 0 .056.015l-.026-.015ZM26.1 16.77h-.03a.03.03 0 0 0 .03.03v-.03Zm5.91.4-.006.03h.001l.005-.03Zm3.06 1 .025-.016a.03.03 0 0 0-.011-.01l-.014.026Zm.25.4-.023.02a.03.03 0 0 0 .048-.036l-.025.015Zm-3.41-1.16-.006.03.006-.03Zm-5.81-.42v.03-.03Zm-5.95.44.004.03-.004-.03Zm-2.96.91-.025-.017a.03.03 0 0 0 .038.043l-.013-.027Zm.22-.33-.014-.027a.03.03 0 0 0-.011.01l.025.016Zm2.7-.81-.005-.03-.001.001.006.03Zm5.99-.44h.03a.03.03 0 0 0-.03-.03v.03Zm0 .91v.03-.03Zm6.13.43.005-.03-.005.03Zm3.35.98.026-.015-.004-.005-.022.02Zm.17.3-.016.025a.03.03 0 0 0 .042-.04l-.026.014Zm-3.56-1.05-.006.03.006-.03Zm-6.1-.42v.03-.03Zm-6.18.42.004.03h.001l-.005-.03Zm-3.33 1.03-.026-.015a.03.03 0 0 0 .004.035.03.03 0 0 0 .035.006l-.013-.027Zm.17-.31-.014-.027a.03.03 0 0 0-.012.012l.026.014Zm3.11-.96-.006-.03.006.03Zm11.485 10.28a27.519 27.519 0 0 0-5.256-.4l.001.06a27.448 27.448 0 0 1 5.245.4l.01-.06Zm-5.256-.4c-3.276.04-5.444.378-6.826.754-.69.187-1.186.385-1.525.56-.337.174-.524.328-.593.43l.05.033c.06-.088.235-.236.57-.41.335-.172.826-.369 1.514-.555 1.375-.375 3.538-.712 6.811-.752v-.06Zm-8.894 1.745-.5-.802-.05.032.5.801.05-.031Zm-.508-.761c.835-.596 2.14-1.065 3.766-1.377 1.625-.312 3.568-.467 5.676-.437l.001-.06c-2.111-.03-4.058.125-5.688.438s-2.945.784-3.79 1.387l.035.049Zm9.442-1.814c2.19.04 4.077.19 5.655.5l.012-.059c-1.583-.311-3.475-.46-5.666-.5v.06Zm5.635.456-.45.8.052.03.45-.8-.052-.03Zm-.394.814v-.01h-.06v.01h.06ZM26.1 16.8c2.14-.02 4.257.1 5.904.4l.011-.06c-1.652-.3-3.774-.42-5.916-.4l.001.06Zm5.905.4a9.554 9.554 0 0 1 3.05.997l.029-.053a9.613 9.613 0 0 0-3.07-1.003l-.009.06Zm3.04.986.25.4.05-.032-.25-.4-.05.032Zm.297.363c-.109-.121-.29-.24-.52-.352a6.408 6.408 0 0 0-.827-.322 15.572 15.572 0 0 0-2.08-.494l-.01.059c.704.12 1.45.292 2.072.493.31.1.59.207.818.318.228.111.401.226.502.338l.045-.04Zm-3.427-1.168c-1.642-.29-3.674-.402-5.815-.42v.06c2.139.018 4.167.13 5.804.419l.011-.06Zm-5.815-.42a36.058 36.058 0 0 0-5.955.44l.01.059a36.003 36.003 0 0 1 5.944-.44l.001-.06Zm-5.954.44a9.76 9.76 0 0 0-2.97.912l.027.053a9.702 9.702 0 0 1 2.95-.906l-.007-.06Zm-2.931.955.22-.33-.05-.033-.22.33.05.033Zm.209-.32c.576-.297 1.512-.576 2.692-.806l-.012-.059c-1.18.23-2.124.51-2.708.812l.027.053Zm2.69-.806a35.732 35.732 0 0 1 5.985-.44l.001-.06a35.788 35.788 0 0 0-5.995.44l.01.06Zm5.956-.47v.01h.06v-.01h-.06Zm.03.94c2.05-.035 4.1.11 6.125.43l.01-.06a35.369 35.369 0 0 0-6.136-.43l.001.06Zm6.124.43c.8.15 1.581.334 2.19.511.304.089.565.175.763.255.1.04.182.077.247.112s.11.066.134.093l.044-.04a.583.583 0 0 0-.15-.106 2.48 2.48 0 0 0-.252-.115c-.201-.08-.464-.168-.77-.256a24.146 24.146 0 0 0-2.195-.513l-.01.059Zm3.33.965.17.3.052-.03-.17-.3-.052.03Zm.212.26c-.269-.173-.737-.356-1.349-.536a23.43 23.43 0 0 0-2.222-.518l-.01.059c.848.16 1.605.337 2.215.517.61.18 1.072.36 1.334.528l.032-.05Zm-3.57-1.054c-1.703-.322-3.876-.43-6.106-.42v.06c2.23-.01 4.397.098 6.094.419l.011-.06Zm-6.106-.42c-2.531-.01-4.503.118-6.186.42l.011.059c1.678-.3 3.646-.43 6.175-.42v-.06Zm-6.184.42a10.938 10.938 0 0 0-3.34 1.032l.027.053a10.88 10.88 0 0 1 3.32-1.026l-.007-.06Zm-3.3 1.073.17-.31-.052-.029-.17.31.052.029Zm.157-.298c.597-.297 1.525-.668 3.102-.957l-.01-.06c-1.583.291-2.516.663-3.119.963l.027.054Zm3.102-.957c1.747-.319 3.735-.409 6.235-.419v-.06c-2.5.01-4.493.1-6.246.42l.011.059Z" fill="#000"></path><path fill-rule="evenodd" clip-rule="evenodd" d="M26.14 26.97a32.762 32.762 0 0 1 5.73.5l-.13.23a30.044 30.044 0 0 0-5.6-.49c-2.42 0-4.99.18-7.33.86-.75.22-2.06.7-2.1 1.07l-.12-.22c.02-.34 1.15-.79 2.17-1.08 2.35-.69 4.93-.86 7.38-.87Zm-.08.92c1.82.03 3.6.1 5.33.42l-.12.22c-1.6-.3-3.32-.4-5.2-.4-2.43-.02-4.87.21-7 .82-.67.19-1.78.62-1.9.98l-.12-.2c.04-.22.7-.66 1.96-1 2.44-.7 4.72-.83 7.05-.84Z" fill="#FF0"></path><path d="M26.14 26.97v-.03.03Zm5.73.5.026.015a.03.03 0 0 0-.02-.045l-.006.03Zm-.13.23-.005.03a.03.03 0 0 0 .031-.015l-.026-.015Zm-5.6-.49v.03-.03Zm-7.33.86-.008-.028.008.029Zm-2.1 1.07-.026.014a.03.03 0 0 0 .032.015.03.03 0 0 0 .024-.026l-.03-.003Zm-.12-.22-.03-.002a.03.03 0 0 0 .004.016l.026-.014Zm2.17-1.08.008.029-.008-.03Zm7.3.05v-.03.03Zm5.33.42.026.014a.03.03 0 0 0-.021-.044l-.005.03Zm-.12.22-.005.03a.03.03 0 0 0 .032-.015l-.027-.014Zm-5.2-.4v.03-.03Zm-7 .82.008.029-.008-.03Zm-1.9.98-.026.015a.03.03 0 0 0 .055-.006l-.029-.01Zm-.12-.2-.03-.005a.03.03 0 0 0 .004.021l.026-.015Zm1.96-1 .008.03-.008-.03ZM26.14 27c1.92-.002 3.835.166 5.725.5l.01-.06a32.792 32.792 0 0 0-5.735-.5V27Zm5.704.455-.13.23.052.03.13-.23-.052-.03Zm-.099.215a30.078 30.078 0 0 0-5.605-.49v.06a30.01 30.01 0 0 1 5.595.49l.01-.06Zm-5.605-.49c-2.421 0-4.994.18-7.338.862l.017.057c2.335-.68 4.902-.86 7.321-.86v-.06Zm-7.338.862c-.376.11-.893.285-1.32.48-.214.096-.407.199-.55.301a.954.954 0 0 0-.174.154.305.305 0 0 0-.078.16l.06.006a.248.248 0 0 1 .064-.127.897.897 0 0 1 .163-.144c.138-.099.327-.2.54-.296.424-.193.937-.367 1.311-.477l-.016-.057Zm-2.066 1.083-.12-.22-.052.03.12.22.052-.03Zm-.116-.203a.218.218 0 0 1 .051-.116.747.747 0 0 1 .141-.134c.122-.093.295-.189.5-.284.411-.19.947-.375 1.456-.52l-.016-.057c-.511.145-1.05.33-1.464.523a2.882 2.882 0 0 0-.512.29.802.802 0 0 0-.153.145.276.276 0 0 0-.063.149l.06.004Zm2.148-1.053c2.346-.688 4.923-.858 7.372-.87v-.06c-2.451.012-5.034.182-7.388.872l.017.058Zm7.292.05c1.82.03 3.597.102 5.325.42l.01-.059c-1.732-.32-3.514-.39-5.334-.42l-.001.06Zm5.304.376-.12.221.053.029.12-.221-.053-.029Zm-.088.206c-1.603-.3-3.325-.401-5.206-.401v.06c1.88 0 3.597.1 5.195.4l.01-.059ZM26.07 28.1c-2.431-.02-4.875.21-7.008.82l.016.058c2.127-.608 4.564-.837 6.992-.818v-.06Zm-7.008.82a8.194 8.194 0 0 0-1.16.43 3.247 3.247 0 0 0-.496.277c-.132.095-.231.194-.264.293l.056.02c.027-.08.112-.17.243-.264.13-.092.298-.185.486-.272.374-.176.817-.33 1.151-.425l-.016-.058Zm-1.866.994-.12-.199-.052.031.12.2.052-.032Zm-.116-.178c.008-.045.05-.108.136-.185.085-.075.208-.16.371-.25.325-.178.803-.372 1.43-.541l-.015-.058c-.631.17-1.114.366-1.444.547-.165.09-.293.178-.382.258-.088.078-.143.153-.155.218l.059.011Zm1.938-.977c2.436-.698 4.713-.828 7.042-.84v-.06c-2.331.012-4.614.142-7.058.843l.016.057Z" fill="#000"></path><path fill-rule="evenodd" clip-rule="evenodd" d="m35.44 29.05-.78 1.23-2.27-2.01-5.86-3.95-6.62-3.63-3.43-1.17.73-1.36.25-.13 2.13.53 7.04 3.63 4.06 2.56 3.41 2.45 1.39 1.6-.05.25Z" fill="#FF0"></path><path clip-rule="evenodd" d="m35.44 29.05-.78 1.23-2.27-2.01-5.86-3.95-6.62-3.63-3.43-1.17.73-1.36.25-.13 2.13.53 7.04 3.63 4.06 2.56 3.41 2.45 1.39 1.6-.05.25Z" stroke="#000" stroke-width="0.06" stroke-linecap="round" stroke-linejoin="round"></path><path fill-rule="evenodd" clip-rule="evenodd" d="M35.6 29.04c.38-.76-3.72-3.85-8.81-6.86-5.2-2.95-8.96-4.69-9.65-4.17l-.14.29c0 .01 0-.02.04-.05.12-.1.33-.1.42-.1 1.18.02 4.55 1.57 9.28 4.28 2.08 1.2 8.76 5.5 8.73 6.7 0 .1.01.12-.03.18l.17-.26-.01-.01Zm-19.24-9.49c.6-.4 5.02 1.56 9.66 4.36 4.61 2.8 9.03 5.96 8.63 6.55l-.13.21-.06.05c.01-.01.08-.1 0-.31-.2-.65-3.34-3.15-8.53-6.29-5.07-3.01-9.29-4.83-9.7-4.31l.13-.26Z" fill="#FF0"></path><path d="m35.6 29.04-.027-.013a.03.03 0 0 0 .006.034l.021-.021Zm-8.81-6.86.015-.026-.015.026Zm-9.65-4.17-.02-.027-.007.014.027.013Zm-.14.29-.03-.015v.015H17Zm.04-.05.018.024.001-.001-.019-.023Zm.42-.1v-.03.03Zm9.28 4.28.015-.026-.015.026Zm8.73 6.7h-.03.03Zm-.03.18-.025-.016a.03.03 0 0 0 .05.033l-.025-.017Zm.17-.26.025.016a.03.03 0 0 0-.004-.037l-.02.021Zm-19.25-9.5-.017-.025a.03.03 0 0 0-.01.012l.027.013Zm9.66 4.36.016-.026-.016.026Zm8.63 6.55-.025-.017v.001l.025.016Zm-.13.21.02.024.006-.008-.026-.016Zm-.06.05-.021-.021a.03.03 0 0 0-.001.041.03.03 0 0 0 .041.003l-.019-.023Zm0-.31-.029.009.001.002.028-.011Zm-8.53-6.29.016-.026-.016.026Zm-9.7-4.31-.027-.013a.03.03 0 0 0 .05.032l-.023-.019Zm19.397 9.243c.054-.108.026-.252-.061-.416a2.952 2.952 0 0 0-.444-.587c-.413-.445-1.05-.998-1.857-1.62-1.615-1.245-3.914-2.77-6.46-4.276l-.03.052c2.544 1.504 4.84 3.029 6.453 4.271.806.622 1.44 1.172 1.85 1.614.204.221.351.414.435.573.085.162.1.281.06.363l.054.026Zm-8.822-6.9c-2.6-1.474-4.841-2.647-6.519-3.387-.839-.37-1.538-.631-2.07-.768a3.065 3.065 0 0 0-.676-.11c-.181-.003-.324.027-.418.098l.036.048c.078-.059.204-.089.381-.085.176.003.397.04.661.107.529.136 1.224.396 2.062.765 1.675.738 3.914 1.91 6.513 3.385l.03-.052Zm-9.692-4.156-.14.29.054.026.14-.29-.054-.026Zm-.143.303v.002a.036.036 0 0 0 .001.008s.002.007.008.013a.03.03 0 0 0 .036.005c.007-.004.01-.01.01-.01a.028.028 0 0 0 .003-.005l.001-.003.003-.007a.085.085 0 0 1 .026-.029l-.036-.048a.145.145 0 0 0-.044.05l-.006.015c0 .001 0 0 0 0l.001-.002s0-.002.002-.003c0-.001.004-.006.01-.01a.03.03 0 0 1 .044.018v.004l.001.003V18.3h-.06Zm.09-.027a.432.432 0 0 1 .206-.08c.076-.013.15-.013.194-.013v-.06c-.045 0-.122 0-.203.013a.489.489 0 0 0-.236.094l.038.046Zm.4-.093c.29.005.718.104 1.273.294.555.19 1.233.47 2.023.834 1.58.729 3.605 1.793 5.97 3.148l.029-.052c-2.365-1.355-4.391-2.42-5.974-3.15a22.281 22.281 0 0 0-2.028-.836c-.557-.191-.992-.293-1.292-.298l-.001.06Zm9.265 4.276c1.04.6 3.228 1.974 5.154 3.348.963.688 1.859 1.374 2.512 1.964.327.295.592.564.774.797.091.117.161.223.208.318a.548.548 0 0 1 .067.246l.06.002a.606.606 0 0 0-.073-.274c-.05-.1-.122-.21-.215-.329a6.83 6.83 0 0 0-.78-.805c-.657-.591-1.555-1.28-2.518-1.967-1.927-1.376-4.118-2.752-5.159-3.352l-.03.052Zm8.715 6.674.001.062v.04a.123.123 0 0 1-.026.061l.05.034a.183.183 0 0 0 .035-.089.415.415 0 0 0 .001-.047v-.061h-.06Zm.025.196.17-.26-.05-.032-.17.26.05.032Zm.166-.297-.01-.01-.042.042.01.01.042-.042Zm-19.254-9.454a.319.319 0 0 1 .143-.043 1.12 1.12 0 0 1 .234.006c.185.02.423.074.707.16.57.17 1.322.465 2.202.86 1.759.789 4.022 1.978 6.342 3.378l.03-.052c-2.32-1.4-4.586-2.59-6.348-3.381-.88-.396-1.635-.691-2.208-.863a4.264 4.264 0 0 0-.719-.162 1.183 1.183 0 0 0-.247-.006.377.377 0 0 0-.17.053l.034.05Zm9.628 4.36c2.304 1.4 4.56 2.89 6.19 4.103.816.606 1.474 1.143 1.903 1.565.214.21.37.391.46.537a.604.604 0 0 1 .082.186c.01.051.004.089-.015.117l.05.034a.207.207 0 0 0 .024-.163.662.662 0 0 0-.09-.206 3.2 3.2 0 0 0-.47-.548c-.43-.424-1.091-.963-1.907-1.57-1.633-1.215-3.89-2.705-6.196-4.106l-.032.052Zm8.62 6.51-.13.21.05.03.13-.21-.05-.03Zm-.124.202-.06.05.038.046.06-.05-.038-.046Zm-.02.094c.02-.02.09-.122.007-.342l-.056.022c.038.1.04.17.032.214a.172.172 0 0 1-.015.048l-.01.016.042.042Zm.008-.34c-.027-.087-.101-.201-.217-.338a5.798 5.798 0 0 0-.479-.49 22.478 22.478 0 0 0-1.709-1.398c-1.46-1.1-3.543-2.51-6.138-4.08l-.031.05c2.594 1.57 4.675 2.98 6.133 4.078.73.549 1.302 1.02 1.704 1.393.202.188.36.35.474.485.115.137.182.243.205.318l.058-.018Zm-8.544-6.307c-2.535-1.505-4.859-2.713-6.6-3.48-.87-.384-1.597-.657-2.131-.802a3.07 3.07 0 0 0-.656-.12.75.75 0 0 0-.215.019.25.25 0 0 0-.137.08l.048.038a.19.19 0 0 1 .105-.06.692.692 0 0 1 .197-.017c.16.006.377.046.642.118.53.144 1.253.416 2.122.799 1.74.765 4.06 1.972 6.595 3.477l.03-.052Zm-9.688-4.27.13-.26-.054-.027-.13.26.054.026Z" fill="#000"></path><path fill-rule="evenodd" clip-rule="evenodd" d="M19.764 25.177a6.257 6.257 0 0 0 1.867 4.448 6.29 6.29 0 0 0 4.458 1.877 6.338 6.338 0 0 0 4.48-1.855 6.295 6.295 0 0 0 1.856-4.46V16.74l-12.66-.02v8.458Z" fill="#fff"></path><path clip-rule="evenodd" d="M19.764 25.177a6.257 6.257 0 0 0 1.867 4.448 6.29 6.29 0 0 0 4.458 1.877 6.338 6.338 0 0 0 4.48-1.855 6.295 6.295 0 0 0 1.856-4.46V16.74l-12.66-.02v8.458Z" stroke="#000" stroke-width="0.07"></path><path fill-rule="evenodd" clip-rule="evenodd" d="M29.727 19.46v5.215l-.01.544a3.542 3.542 0 0 1-1.067 2.56 3.627 3.627 0 0 1-2.56 1.067c-1.003 0-1.888-.427-2.55-1.088a3.623 3.623 0 0 1-1.066-2.56v-5.76l7.253.021Zm-9.728 5.727a6.018 6.018 0 0 0 1.792 4.267 6.084 6.084 0 0 0 4.288 1.793 6.068 6.068 0 0 0 4.288-1.771 6.01 6.01 0 0 0 1.78-4.267v-8.213H20.02v8.192h-.021Z" fill="red"></path><path d="M29.727 19.46h.025v-.025h-.025v.024Zm0 5.215.025.001h-.025Zm-.01.544h-.025.025Zm-1.067 2.56-.018-.017.018.017Zm-2.56 1.067v.024-.024Zm-2.55-1.088.017-.018-.017.018Zm-1.066-2.56h-.025.025Zm0-5.76v-.024h-.025v.024h.025Zm-2.475 5.75v-.025h-.025v.025h.025Zm1.792 4.267.017-.018-.017.017Zm4.288 1.792v.024-.024Zm4.288-1.771-.018-.018.018.018Zm1.78-4.267h.026-.025Zm0-8.213h.026v-.025h-.025v.024Zm-12.127 0v-.025h-.025v.024h.025Zm0 8.192v.024h.025v-.024h-.025Zm9.682-5.729v5.216h.05V19.46h-.05Zm0 5.216-.01.544.05.001.01-.544-.05-.001Zm-.01.545a3.517 3.517 0 0 1-1.06 2.542l.035.035a3.568 3.568 0 0 0 1.075-2.578h-.05Zm-1.06 2.542a3.601 3.601 0 0 1-2.543 1.058v.05a3.652 3.652 0 0 0 2.578-1.073l-.035-.035ZM26.09 28.82c-.996 0-1.875-.423-2.533-1.08l-.035.035c.666.665 1.557 1.096 2.568 1.096v-.05Zm-2.533-1.08a3.598 3.598 0 0 1-1.058-2.542h-.05a3.648 3.648 0 0 0 1.073 2.577l.035-.035ZM22.5 25.199v-5.76h-.05v5.76h.05Zm-.025-5.736 7.253.021v-.05l-7.253-.02v.05Zm-2.5 5.725a6.043 6.043 0 0 0 1.799 4.284l.035-.035a5.993 5.993 0 0 1-1.784-4.25h-.05Zm1.799 4.284a6.109 6.109 0 0 0 4.305 1.8v-.05a6.06 6.06 0 0 1-4.27-1.785l-.035.035Zm4.306 1.8a6.093 6.093 0 0 0 4.305-1.779l-.035-.035a6.043 6.043 0 0 1-4.27 1.764v.05Zm4.305-1.779a6.035 6.035 0 0 0 1.789-4.284h-.05a5.984 5.984 0 0 1-1.774 4.249l.035.035Zm1.789-4.284v-8.213h-.05v8.213h.05Zm-.025-8.238H20.02v.05h12.128v-.05Zm-12.153.024v8.192h.05v-8.192h-.05Zm.025 8.168h-.021v.05h.02v-.05Z" fill="#000"></path><path fill-rule="evenodd" clip-rule="evenodd" d="M20.788 19.14c.011-.587.427-.726.427-.726.01 0 .458.15.458.736h-.885" fill="#FF0"></path><path fill-rule="evenodd" clip-rule="evenodd" d="M20.319 19.107h1.813c.032 0 .064.032.064.075 0 .053-.032.085-.064.085h-1.813c-.032 0-.064-.032-.064-.085 0-.043.032-.075.075-.075h-.011Zm.106-.683-.074.672h.448c0-.554.427-.64.427-.64.01 0 .426.118.437.64h.448l-.085-.682h-1.601v.01Z" fill="#FF0"></path><path d="m20.425 18.424.025.003v-.003h-.025Zm-.074.672-.025-.002-.003.027h.028v-.025Zm.448 0v.025h.025v-.025h-.025Zm.427-.64v-.025h-.005l.005.025Zm.437.64h-.025v.025h.025v-.025Zm.448 0v.025h.028l-.003-.028-.025.003Zm-.085-.682.025-.003-.003-.022h-.022v.025Zm-1.601 0v-.025H20.4v.025h.025Zm-.106.718h1.813v-.05h-1.813v.05Zm1.813 0c.015 0 .039.019.039.05h.05c0-.054-.04-.1-.09-.1v.05Zm.039.05c0 .044-.025.06-.04.06v.05c.051 0 .09-.048.09-.11h-.05Zm-.04.06H20.32v.05h1.813v-.05Zm-1.812 0c-.014 0-.04-.016-.04-.06h-.05c0 .062.04.11.09.11v-.05Zm-.04-.06c0-.029.022-.05.05-.05v-.05c-.056 0-.1.044-.1.1h.05Zm.05-.1h-.01v.05h.01v-.05Zm.071-.66-.074.672.05.005.074-.672-.05-.005Zm-.05.7h.449v-.05h-.448v.05Zm.474-.026c0-.27.103-.422.204-.508a.535.535 0 0 1 .202-.107l-.004-.025-.005-.024h-.002a.128.128 0 0 0-.019.005.589.589 0 0 0-.204.112c-.112.096-.222.263-.222.547h.05Zm.402-.615h-.003l.003.001.013.004c.011.004.028.01.047.02.039.018.09.048.141.093.102.09.206.244.21.498l.05-.001a.702.702 0 0 0-.226-.534.653.653 0 0 0-.222-.128l-.006-.002h-.007v.05Zm.437.64h.448v-.05h-.448v.05Zm.473-.028-.085-.682-.05.006.085.682.05-.006Zm-.11-.704h-1.601v.05h1.6v-.05Zm-1.626.025v.01h.05v-.01h-.05Z" fill="#000"></path><path fill-rule="evenodd" clip-rule="evenodd" d="m21.428 17.454.032.683h-.459l.032-.694h.395v.011Zm-.49-.288h.127v.085h.096v-.085h.14v.096h.095v-.107h.128v.214c0 .042-.02.064-.054.064h-.469c-.032 0-.064-.02-.064-.054v-.213Zm-.534 1.131h1.643c.031 0 .064.032.064.074 0 .043-.033.075-.064.075h-1.654c-.043 0-.064-.032-.064-.075 0-.042.021-.074.064-.074h.011Zm-.043-.16h1.74c.031 0 .063.042.063.085a.069.069 0 0 1-.064.064h-1.739c-.032 0-.064-.032-.064-.075 0-.032.032-.064.064-.064v-.01Zm.62.96c0-.352.244-.448.244-.448s.245.106.245.448h-.49Z" fill="#FF0"></path><path d="M21.428 17.454h-.025v.001h.025Zm.032.683v.025h.026v-.026l-.026.001Zm-.459 0-.025-.001-.001.026h.026v-.025Zm.032-.694v-.025h-.024v.024l.024.001Zm.395 0h.025v-.025h-.025v.025Zm-.49-.277v-.025h-.026v.025h.025Zm.127 0h.025v-.025h-.025v.025Zm0 .085h-.025v.025h.025v-.025Zm.096 0v.025h.025v-.025h-.025Zm0-.085v-.025h-.025v.025h.025Zm.14 0h.024v-.025H21.3v.025Zm0 .096h-.026v.025h.025v-.025Zm.095 0v.025h.025v-.025h-.025Zm0-.107v-.025h-.025v.025h.025Zm.128 0h.025v-.025h-.025v.025Zm-1.163.982v-.025h-.025v.025h.025Zm0 .01v.025h.025v-.025h-.025Zm.864.502.01-.023-.01-.004-.009.004.01.023Zm.245.448v.025h.025v-.025h-.025Zm-.067-1.642.032.683.05-.002-.032-.683-.05.002Zm.057.657h-.459v.05h.46v-.05Zm-.434.026.032-.694-.05-.002-.032.694.05.002Zm.007-.67h.395v-.05h-.395v.05Zm.37-.025v.011h.05v-.01h-.05Zm-.466-.252h.128v-.05h-.128v.05Zm.103-.025v.085h.05v-.085h-.05Zm.025.11h.096v-.05h-.096v.05Zm.121-.025v-.085h-.05v.085h.05Zm-.025-.06h.14v-.05h-.14v.05Zm.114-.025v.096h.05v-.096h-.05Zm.025.121h.096v-.05H21.3v.05Zm.121-.025v-.107h-.05v.107h.05Zm-.025-.082h.128v-.05h-.128v.05Zm.103-.025v.214h.05v-.214h-.05Zm0 .214c0 .017-.004.027-.008.031-.004.005-.01.008-.02.008v.05a.075.075 0 0 0 .057-.025.095.095 0 0 0 .021-.064h-.05Zm-.029.04h-.469v.05h.47v-.05Zm-.469 0c-.024 0-.039-.016-.039-.03h-.05c0 .052.05.08.09.08v-.05Zm-.039-.03v-.213h-.05v.213h.05Zm-.558.943h1.643v-.05h-1.643v.05Zm1.643 0c.015 0 .04.019.04.05h.05c0-.055-.043-.1-.09-.1v.05Zm.04.05c0 .03-.025.05-.04.05v.05c.047 0 .09-.047.09-.1h-.05Zm-.04.05h-1.654v.05h1.654v-.05Zm-1.654 0c-.015 0-.023-.006-.028-.013a.062.062 0 0 1-.01-.038h-.05c0 .025.005.05.02.07.016.02.04.03.068.03v-.05Zm-.039-.05c0-.018.005-.03.01-.038.006-.007.014-.012.03-.012v-.05a.084.084 0 0 0-.068.03.108.108 0 0 0-.022.07h.05Zm.04-.05h.01v-.05h-.01v.05Zm-.033-.16h1.74v-.05h-1.74v.05Zm1.74 0c.004 0 .014.004.023.017a.074.074 0 0 1 .015.043h.05a.124.124 0 0 0-.025-.074c-.014-.019-.037-.036-.064-.036v.05Zm.038.06a.04.04 0 0 1-.012.026.04.04 0 0 1-.027.013v.05a.09.09 0 0 0 .062-.027.09.09 0 0 0 .027-.062h-.05Zm-.039.04h-1.739v.05h1.74v-.05Zm-1.739 0c-.015 0-.039-.02-.039-.05h-.05c0 .053.04.1.09.1v-.05Zm-.039-.05a.04.04 0 0 1 .013-.027.04.04 0 0 1 .026-.013v-.05a.089.089 0 0 0-.062.027.09.09 0 0 0-.027.062h.05Zm.064-.065v-.01h-.05v.01h.05Zm.62.95c0-.17.058-.276.115-.34a.383.383 0 0 1 .113-.085l-.009-.023-.009-.023h-.001l-.003.001a.429.429 0 0 0-.128.097.537.537 0 0 0-.129.373h.05Zm.22-.448-.01.023h.001l.007.004a.413.413 0 0 1 .105.085.49.49 0 0 1 .116.336h.05a.539.539 0 0 0-.129-.369.464.464 0 0 0-.13-.102l-.01.023Zm.244.423h-.49v.05h.49v-.05Z" fill="#000"></path><mask id="PT_svg__b" maskUnits="userSpaceOnUse" x="0" y="0" width="65" height="48" style="mask-type:alpha"><path fill-rule="evenodd" clip-rule="evenodd" d="M.5 48h64V0H.5v48Z" fill="#fff"></path></mask><g mask="url(#PT_svg__b)"><path fill-rule="evenodd" clip-rule="evenodd" d="M20.447 18.137h.427v-.363h-.427v.363Z" fill="#FF0"></path><path clip-rule="evenodd" d="M20.447 18.137h.427v-.363h-.427v.363Z" stroke="#000" stroke-width="0.05"></path><path fill-rule="evenodd" clip-rule="evenodd" d="M21.578 18.137h.426v-.363h-.426v.363Z" fill="#FF0"></path><path clip-rule="evenodd" d="M21.578 18.137h.426v-.363h-.426v.363Z" stroke="#000" stroke-width="0.05"></path><path fill-rule="evenodd" clip-rule="evenodd" d="M20.372 17.497h.128v.107h.096v-.107h.128v.107h.096v-.107h.128v.213c0 .043-.02.064-.054.064h-.458a.064.064 0 0 1-.064-.064v-.213Z" fill="#FF0"></path><path clip-rule="evenodd" d="M20.372 17.497h.128v.107h.096v-.107h.128v.107h.096v-.107h.128v.213c0 .043-.02.064-.054.064h-.458a.064.064 0 0 1-.064-.064v-.213Z" stroke="#000" stroke-width="0.05"></path><path fill-rule="evenodd" clip-rule="evenodd" d="M21.503 17.497h.128v.107h.096v-.107h.128v.107h.096v-.107h.128v.213c0 .043-.021.064-.054.064h-.458a.063.063 0 0 1-.064-.064v-.213Z" fill="#FF0"></path><path clip-rule="evenodd" d="M21.503 17.497h.128v.107h.096v-.107h.128v.107h.096v-.107h.128v.213c0 .043-.021.064-.054.064h-.458a.063.063 0 0 1-.064-.064v-.213Z" stroke="#000" stroke-width="0.05"></path><path fill-rule="evenodd" clip-rule="evenodd" d="M21.183 17.668c0-.064.096-.064.096 0v.17h-.096v-.17ZM20.617 17.902c0-.064.085-.064.085 0v.128h-.085v-.128ZM21.748 17.902c0-.064.085-.064.085 0v.128h-.085v-.128Z" fill="#000"></path><path fill-rule="evenodd" clip-rule="evenodd" d="M20.788 24.078c.011-.587.427-.726.427-.726.01 0 .458.15.458.737h-.885" fill="#FF0"></path><path fill-rule="evenodd" clip-rule="evenodd" d="M20.319 24.046h1.813c.032 0 .064.032.064.075 0 .053-.032.085-.064.085h-1.813c-.032 0-.064-.032-.064-.085 0-.043.032-.075.075-.075h-.011Zm.106-.683-.074.672h.448c0-.554.427-.64.427-.64.01 0 .426.118.437.64h.448l-.085-.682h-1.601v.01Z" fill="#FF0"></path><path d="m20.425 23.363.025.003v-.003h-.025Zm-.074.672-.025-.003-.003.028h.028v-.025Zm.448 0v.025h.025v-.025h-.025Zm.427-.64v-.025l-.005.001.005.025Zm.437.64h-.025v.025h.025v-.025Zm.448 0v.025h.028l-.003-.028-.025.003Zm-.085-.682.025-.003-.003-.022h-.022v.025Zm-1.601 0v-.025H20.4v.025h.025Zm-.106.718h1.813v-.05h-1.813v.05Zm1.813 0c.015 0 .039.018.039.05h.05c0-.054-.04-.1-.09-.1v.05Zm.039.05c0 .044-.025.06-.04.06v.05c.051 0 .09-.048.09-.11h-.05Zm-.04.06H20.32v.05h1.813v-.05Zm-1.812 0c-.014 0-.04-.016-.04-.06h-.05c0 .062.04.11.09.11v-.05Zm-.04-.06c0-.03.022-.05.05-.05v-.05c-.056 0-.1.043-.1.1h.05Zm.05-.1h-.01v.05h.01v-.05Zm.071-.66-.074.671.05.006.074-.672-.05-.006Zm-.05.699h.449v-.05h-.448v.05Zm.474-.025c0-.27.103-.422.204-.508a.538.538 0 0 1 .187-.102l.012-.004h.003l-.004-.025-.005-.025h-.002l-.004.002a.581.581 0 0 0-.219.116c-.112.095-.222.261-.222.546h.05Zm.402-.614h-.003.003a.6.6 0 0 1 .202.117c.101.09.204.244.21.497h.05a.701.701 0 0 0-.227-.534.654.654 0 0 0-.206-.123l-.016-.005-.006-.001-.007-.001v.05Zm.437.639h.448v-.05h-.448v.05Zm.473-.028-.085-.682-.05.006.085.682.05-.006Zm-.11-.704h-1.601v.05h1.6v-.05Zm-1.626.025v.01h.05v-.01h-.05Z" fill="#000"></path><path fill-rule="evenodd" clip-rule="evenodd" d="m21.428 22.393.032.683h-.459l.032-.694h.395v.01Zm-.49-.288h.127v.085h.096v-.085h.14v.096h.095v-.106h.128v.213c0 .043-.02.064-.054.064h-.469c-.032 0-.064-.021-.064-.054v-.213Zm-.534 1.13h1.643c.031 0 .064.033.064.075 0 .043-.033.075-.064.075h-1.654c-.043 0-.064-.032-.064-.075 0-.042.021-.074.064-.074h.011Zm-.043-.16h1.74c.031 0 .063.044.063.086a.069.069 0 0 1-.064.064h-1.739c-.032 0-.064-.032-.064-.075 0-.031.032-.064.064-.064v-.01Zm.62.96c0-.351.244-.447.244-.447s.245.106.245.448h-.49Z" fill="#FF0"></path><path d="M21.428 22.393h-.025.025Zm.032.683v.025h.026v-.027l-.026.002Zm-.459 0-.025-.002-.001.027h.026v-.025Zm.032-.694v-.025h-.024v.024h.024Zm.395 0h.025v-.025h-.025v.025Zm-.49-.277v-.025h-.026v.025h.025Zm.127 0h.025v-.025h-.025v.025Zm0 .085h-.025v.025h.025v-.025Zm.096 0v.025h.025v-.025h-.025Zm0-.085v-.025h-.025v.025h.025Zm.14 0h.024v-.025H21.3v.025Zm0 .096h-.026v.025h.025V22.2Zm.095 0v.025h.025V22.2h-.025Zm0-.106v-.025h-.025v.025h.025Zm.128 0h.025v-.025h-.025v.025Zm-1.163.98v-.024h-.025v.025h.025Zm0 .01v.026h.025v-.025h-.025Zm.864.503.01-.023-.01-.004-.009.003.01.024Zm.245.448v.025h.025v-.025h-.025Zm-.067-1.642.032.683.05-.003-.032-.683-.05.003Zm.057.657h-.459v.05h.46v-.05Zm-.434.026.032-.694-.05-.002-.032.694.05.002Zm.007-.67h.395v-.05h-.395v.05Zm.37-.025v.01h.05v-.01h-.05Zm-.466-.252h.128v-.05h-.128v.05Zm.103-.025v.085h.05v-.085h-.05Zm.025.11h.096v-.05h-.096v.05Zm.121-.025v-.085h-.05v.085h.05Zm-.025-.06h.14v-.05h-.14v.05Zm.114-.025v.096h.05v-.096h-.05Zm.025.12h.096v-.05H21.3v.05Zm.121-.024v-.106h-.05v.106h.05Zm-.025-.081h.128v-.05h-.128v.05Zm.103-.025v.213h.05v-.213h-.05Zm0 .213c0 .017-.004.027-.008.031s-.01.008-.02.008v.05a.075.075 0 0 0 .057-.025.096.096 0 0 0 .021-.064h-.05Zm-.029.039h-.469v.05h.47v-.05Zm-.469 0c-.024 0-.039-.016-.039-.03h-.05c0 .053.05.08.09.08v-.05Zm-.039-.03v-.212h-.05v.213h.05Zm-.558.944h1.643v-.05h-1.643v.05Zm1.643 0c.015 0 .04.018.04.049h.05c0-.054-.043-.1-.09-.1v.05Zm.04.049c0 .031-.025.05-.04.05v.05c.047 0 .09-.046.09-.1h-.05Zm-.04.05h-1.654v.05h1.654v-.05Zm-1.654 0c-.015 0-.023-.005-.028-.012a.062.062 0 0 1-.01-.038h-.05c0 .025.005.05.02.069.016.02.04.03.068.03v-.05Zm-.039-.05c0-.018.005-.03.01-.037.006-.007.014-.012.03-.012v-.05a.084.084 0 0 0-.068.03.108.108 0 0 0-.022.069h.05Zm.04-.05h.01v-.05h-.01v.05Zm-.033-.16h1.74v-.05h-1.74v.05Zm1.74 0c.004 0 .014.005.023.017.01.012.015.029.015.044h.05a.124.124 0 0 0-.025-.074c-.014-.019-.037-.036-.064-.036v.05Zm.038.06a.04.04 0 0 1-.012.027.04.04 0 0 1-.027.013v.05a.09.09 0 0 0 .062-.028.09.09 0 0 0 .027-.061h-.05Zm-.039.04h-1.739v.05h1.74v-.05Zm-1.739 0c-.015 0-.039-.019-.039-.05h-.05c0 .054.04.1.09.1v-.05Zm-.039-.05a.04.04 0 0 1 .013-.026.04.04 0 0 1 .026-.013v-.05a.09.09 0 0 0-.062.027.09.09 0 0 0-.027.062h.05Zm.064-.064v-.01h-.05v.01h.05Zm.62.95c0-.17.058-.276.115-.34a.383.383 0 0 1 .113-.085l-.009-.023-.009-.024h-.001l-.003.002a.429.429 0 0 0-.128.097.537.537 0 0 0-.129.373h.05Zm.22-.448-.01.022.001.001.007.004a.413.413 0 0 1 .105.085.49.49 0 0 1 .116.336h.05a.539.539 0 0 0-.129-.37.464.464 0 0 0-.13-.101l-.01.023Zm.244.423h-.49v.05h.49v-.05Z" fill="#000"></path><path fill-rule="evenodd" clip-rule="evenodd" d="M20.447 23.075h.427v-.362h-.427v.362Z" fill="#FF0"></path><path clip-rule="evenodd" d="M20.447 23.075h.427v-.362h-.427v.362Z" stroke="#000" stroke-width="0.05"></path><path fill-rule="evenodd" clip-rule="evenodd" d="M21.578 23.075h.426v-.362h-.426v.362Z" fill="#FF0"></path><path clip-rule="evenodd" d="M21.578 23.075h.426v-.362h-.426v.362Z" stroke="#000" stroke-width="0.05"></path><path fill-rule="evenodd" clip-rule="evenodd" d="M20.372 22.436h.128v.105h.096v-.105h.128v.105h.096v-.105h.128v.212c0 .044-.02.064-.054.064h-.458a.064.064 0 0 1-.064-.064v-.212Z" fill="#FF0"></path><path clip-rule="evenodd" d="M20.372 22.436h.128v.105h.096v-.105h.128v.105h.096v-.105h.128v.212c0 .044-.02.064-.054.064h-.458a.064.064 0 0 1-.064-.064v-.212Z" stroke="#000" stroke-width="0.05"></path><path fill-rule="evenodd" clip-rule="evenodd" d="M21.503 22.436h.128v.105h.096v-.105h.128v.105h.096v-.105h.128v.212c0 .044-.021.064-.054.064h-.458a.063.063 0 0 1-.064-.064v-.212Z" fill="#FF0"></path><path clip-rule="evenodd" d="M21.503 22.436h.128v.105h.096v-.105h.128v.105h.096v-.105h.128v.212c0 .044-.021.064-.054.064h-.458a.063.063 0 0 1-.064-.064v-.212Z" stroke="#000" stroke-width="0.05"></path><path fill-rule="evenodd" clip-rule="evenodd" d="M21.183 22.606c0-.064.096-.064.096 0v.171h-.096v-.171ZM20.617 22.84c0-.063.085-.063.085 0v.129h-.085v-.128ZM21.748 22.84c0-.063.085-.063.085 0v.129h-.085v-.128Z" fill="#000"></path><path fill-rule="evenodd" clip-rule="evenodd" d="M22.713 29.226c-.41-.421-.214-.814-.214-.814.007-.007.429-.22.845.193l-.623.628" fill="#FF0"></path><path fill-rule="evenodd" clip-rule="evenodd" d="m22.36 29.536 1.277-1.287c.023-.023.068-.023.098.007.039.038.039.083.016.105l-1.278 1.287c-.022.023-.068.023-.105-.014-.03-.03-.031-.076-.001-.106l-.007.008Zm-.41-.557.425.527.316-.319c-.394-.39-.154-.754-.154-.754.008-.006.384-.219.762.141l.316-.317-.545-.42-1.127 1.135.007.007Z" fill="#FF0"></path><path d="m22.36 29.536-.019-.016.037.034-.018-.018Zm1.277-1.287-.018-.018.018.018Zm.098.007-.018.018.018-.018Zm.016.105-.017-.018.017.018Zm-1.278 1.287-.018-.017.018.017Zm-.105-.014-.018.017.018-.017Zm-.001-.106.019.017-.037-.035.018.018Zm-.417-.549.02-.016-.002-.002-.018.018Zm.425.527-.02.016.018.022.02-.02-.018-.018Zm.316-.319.018.018.017-.018-.017-.018-.018.018Zm-.154-.754-.016-.021-.005.007.02.014Zm.762.141-.017.018.017.017.018-.017-.018-.018Zm.316-.317.018.018.02-.02-.023-.018-.015.02Zm-.545-.42.015-.02-.017-.014-.016.015.018.018Zm-1.127 1.135-.018-.018-.017.018.017.018.018-.018Zm.435.582 1.277-1.287-.036-.035-1.277 1.287.036.035Zm1.276-1.287c.012-.012.041-.015.063.007l.036-.036c-.038-.038-.1-.04-.134-.007l.035.036Zm.063.007c.033.032.026.06.017.069l.034.036c.037-.035.03-.097-.016-.14l-.035.035Zm.016.07-1.278 1.287.036.035 1.278-1.287-.036-.036Zm-1.278 1.287c-.01.01-.039.016-.07-.015l-.035.036c.043.043.106.05.14.013l-.035-.034Zm-.07-.014c-.02-.022-.02-.052 0-.071l-.036-.036a.099.099 0 0 0 0 .141l.037-.034Zm-.037-.105-.007.008.038.033.007-.008-.038-.033Zm-.418-.517.425.527.04-.032-.426-.527-.039.032Zm.463.529.316-.32-.036-.035-.316.32.036.035Zm.316-.355c-.192-.19-.228-.37-.218-.503a.54.54 0 0 1 .065-.216l.001-.002v-.001l-.02-.014-.021-.014v.002l-.003.003a.587.587 0 0 0-.072.238c-.011.147.03.343.232.543l.036-.036Zm-.157-.716.003-.001a.323.323 0 0 1 .06-.027.606.606 0 0 1 .166-.034.651.651 0 0 1 .5.201l.035-.036a.701.701 0 0 0-.538-.215.656.656 0 0 0-.256.072l.03.04Zm.765.139.316-.317-.036-.035-.316.317.036.035Zm.313-.355-.545-.42-.03.039.545.42.03-.039Zm-.578-.418-1.127 1.136.036.035 1.127-1.136-.036-.035Zm-1.127 1.17.007.008.036-.036-.008-.007-.035.036Z" fill="#000"></path><path fill-rule="evenodd" clip-rule="evenodd" d="m21.968 27.584.507.458-.323.325-.47-.511.278-.28.008.008Zm-.55.145.09-.091.061.06.067-.068-.06-.06.098-.098.067.067.068-.068-.075-.075.09-.091.151.15c.03.03.031.061.008.083l-.33.333c-.023.023-.06.03-.084.008l-.15-.15Zm.426 1.175 1.158-1.166c.022-.022.068-.022.098.007.03.03.03.076.008.099l-1.165 1.173c-.03.03-.068.023-.099-.007-.03-.03-.037-.069-.007-.099l.007-.007Zm-.143-.083 1.225-1.233c.022-.023.075-.016.105.015.023.022.023.067.001.09l-1.225 1.234c-.023.022-.068.022-.098-.007-.023-.024-.023-.068 0-.091l-.008-.008Zm1.117.238c-.25-.248-.145-.49-.145-.49s.248-.098.491.142l-.346.348Z" fill="#FF0"></path><path d="m21.968 27.584-.017.018.017-.018Zm.507.458.018.018.019-.019-.02-.018-.017.019Zm-.323.325-.018.017.018.02.018-.02-.018-.017Zm-.47-.511-.017-.018-.017.017.016.018.018-.017Zm.278-.28.018-.018-.018-.017-.018.017.018.018Zm-.542.153-.017-.018-.018.018.018.018.017-.018Zm.09-.091.018-.018-.018-.017-.017.017.017.018Zm.061.06-.017.018.018.017.017-.018-.018-.017Zm.067-.068.018.018.018-.018-.018-.018-.018.018Zm-.06-.06-.018-.018-.018.018.018.018.017-.018Zm.098-.098.018-.018-.018-.017-.017.017.017.018Zm.067.067-.017.018.017.017.018-.017-.018-.018Zm.068-.068.018.018.018-.018-.018-.018-.018.018Zm-.075-.075-.018-.018-.017.018.018.018.017-.018Zm.09-.091.017-.018-.018-.017-.018.018.018.017Zm.151.15.018-.018-.018.018Zm.008.083-.017-.018.017.018Zm-.33.333-.018-.018.017.018Zm-.084.008-.017.018.017-.018Zm.275 1.025.018.018-.018-.018Zm1.158-1.166-.017-.018.017.018Zm.098.007.018-.018-.018.018Zm.008.099.018.018-.018-.018Zm-1.165 1.173.018.018-.018-.018Zm-.099-.007-.017.018.017-.018Zm-.007-.099-.017-.018.017.018Zm-.136-.09-.018-.018-.016.017.015.017.02-.016Zm1.225-1.233.018.018-.018-.018Zm.105.015-.018.017.001.001.017-.018Zm.001.09.018.018-.018-.018Zm-1.225 1.234.018.018-.018-.018Zm-.098-.007-.018.017v.001l.018-.018Zm0-.091.017.017.016-.016-.015-.017-.019.016Zm.964-.26-.009-.023-.01.003-.004.01.023.01Zm.491.142.018.018.018-.018-.018-.018-.018.018Zm-1.213-1.108.508.457.033-.037-.507-.458-.034.037Zm.506.421-.323.325.036.036.323-.325-.035-.036Zm-.286.326-.47-.51-.037.033.47.51.037-.033Zm-.471-.476.278-.28-.036-.036-.277.28.035.036Zm.243-.28.008.008.035-.036-.008-.008-.035.036Zm-.507.153.09-.091-.035-.036-.09.091.035.036Zm.055-.091.06.06.036-.036-.061-.06-.035.036Zm.096.06.067-.069-.035-.035-.067.068.035.035Zm.067-.104-.061-.06-.035.036.06.06.036-.036Zm-.061-.024.099-.098-.035-.036-.1.098.036.036Zm.064-.098.067.067.035-.036-.067-.067-.035.036Zm.102.067.068-.068-.035-.036-.068.068.035.036Zm.068-.104-.075-.075-.035.036.075.075.035-.036Zm-.075-.04.09-.09-.037-.035-.089.09.036.035Zm.054-.09.152.15.035-.036-.152-.15-.035.036Zm.152.15c.012.012.016.022.016.029 0 .005-.001.011-.008.018l.035.036a.072.072 0 0 0 .023-.059.098.098 0 0 0-.031-.06l-.035.036Zm.008.047-.332.333.036.036.331-.333-.036-.036Zm-.332.334c-.016.016-.038.016-.047.007l-.035.036c.036.035.09.02.118-.009l-.036-.034Zm-.047.007-.151-.15-.035.036.15.15.036-.036Zm.275 1.06 1.158-1.165-.035-.036-1.159 1.166.036.036Zm1.158-1.165c.005-.005.014-.01.027-.009.012 0 .026.006.036.016l.035-.036a.106.106 0 0 0-.069-.03.086.086 0 0 0-.064.023l.035.036Zm.063.007c.022.021.018.052.007.064l.036.034c.033-.034.03-.096-.008-.134l-.035.036Zm.008.063L21.924 29l.036.036 1.165-1.173-.036-.036ZM21.925 29c-.01.01-.02.013-.03.012a.061.061 0 0 1-.034-.019l-.035.036c.018.018.04.03.065.033a.085.085 0 0 0 .069-.026l-.035-.036Zm-.064-.007a.06.06 0 0 1-.019-.034c0-.01.002-.02.012-.03l-.035-.035a.085.085 0 0 0-.027.07.11.11 0 0 0 .034.065l.035-.036Zm-.007-.063.007-.007-.035-.036-.007.007.035.036Zm-.136-.09 1.225-1.233-.035-.036-1.226 1.233.036.036Zm1.225-1.234c.004-.003.013-.007.028-.005.015.002.03.01.041.02l.036-.034a.122.122 0 0 0-.07-.035c-.024-.004-.052 0-.07.02l.035.034Zm.07.016c.005.005.01.015.01.027a.04.04 0 0 1-.01.028l.036.034a.09.09 0 0 0 .024-.063.087.087 0 0 0-.025-.062l-.035.036Zm0 .054L21.79 28.91l.035.036 1.225-1.234-.035-.036ZM21.79 28.91c-.012.011-.041.014-.063-.007l-.035.036c.038.037.098.04.133.007l-.035-.036Zm-.063-.006a.042.042 0 0 1-.01-.03.04.04 0 0 1 .01-.027l-.037-.034a.09.09 0 0 0-.023.062c0 .022.007.046.024.063l.036-.034Zm0-.09-.007-.008-.037.032.006.009.038-.034Zm1.109.228a.487.487 0 0 1-.159-.321.377.377 0 0 1 .018-.14h.001v-.001l-.023-.01-.023-.01v.001l-.001.003-.004.009a.428.428 0 0 0-.018.15.536.536 0 0 0 .174.355l.035-.036Zm-.163-.472.01.023h.001l.008-.003a.414.414 0 0 1 .134-.014.493.493 0 0 1 .32.154l.036-.036a.543.543 0 0 0-.353-.168.462.462 0 0 0-.161.02h-.003l.008.024Zm.474.124-.346.348.035.036.346-.348-.035-.036Z" fill="#000"></path><path fill-rule="evenodd" clip-rule="evenodd" d="m21.804 28.203.257.255-.3.303-.257-.255.3-.303Z" fill="#FF0"></path><path clip-rule="evenodd" d="m21.804 28.203.257.255-.3.303-.257-.255.3-.303Z" stroke="#000" stroke-width="0.05"></path><path fill-rule="evenodd" clip-rule="evenodd" d="m22.601 27.4.257.256-.3.303-.258-.256.301-.303Z" fill="#FF0"></path><path clip-rule="evenodd" d="m22.601 27.4.257.256-.3.303-.258-.256.301-.303Z" stroke="#000" stroke-width="0.05"></path><path fill-rule="evenodd" clip-rule="evenodd" d="m21.254 28.363.09-.09.076.074.067-.068-.075-.075.09-.09.076.074.067-.068-.076-.075.091-.09.151.15c.03.03.03.06.008.082l-.323.325a.064.064 0 0 1-.09.001l-.152-.15Z" fill="#FF0"></path><path clip-rule="evenodd" d="m21.254 28.363.09-.09.076.074.067-.068-.075-.075.09-.09.076.074.067-.068-.076-.075.091-.09.151.15c.03.03.03.06.008.082l-.323.325a.064.064 0 0 1-.09.001l-.152-.15Z" stroke="#000" stroke-width="0.05"></path><path fill-rule="evenodd" clip-rule="evenodd" d="m22.051 27.56.09-.09.076.075.067-.069-.075-.075.09-.09.076.075.067-.067-.076-.075.091-.091.151.15c.03.028.03.06.008.081l-.323.326a.064.064 0 0 1-.09 0l-.152-.15Z" fill="#FF0"></path><path clip-rule="evenodd" d="m22.051 27.56.09-.09.076.075.067-.069-.075-.075.09-.09.076.075.067-.067-.076-.075.091-.091.151.15c.03.028.03.06.008.081l-.323.326a.064.064 0 0 1-.09 0l-.152-.15Z" stroke="#000" stroke-width="0.05"></path><path fill-rule="evenodd" clip-rule="evenodd" d="M21.947 27.908c-.045-.045.022-.113.067-.068l.12.12-.066.068-.121-.12ZM21.715 28.475c-.045-.045.015-.105.06-.061l.09.09-.06.06-.09-.09ZM22.512 27.672c-.045-.045.015-.105.06-.061l.09.09-.06.062-.09-.091Z" fill="#000"></path><path fill-rule="evenodd" clip-rule="evenodd" d="M25.663 19.14c.01-.587.427-.726.427-.726.01 0 .458.15.458.736h-.885" fill="#FF0"></path><path fill-rule="evenodd" clip-rule="evenodd" d="M25.193 19.107h1.813c.032 0 .064.032.064.075 0 .053-.032.085-.064.085h-1.813c-.032 0-.064-.032-.064-.085 0-.043.032-.075.075-.075h-.01Zm.107-.683-.075.672h.448c0-.554.427-.64.427-.64.01 0 .426.118.437.64h.448l-.085-.682h-1.6v.01Z" fill="#FF0"></path><path d="m25.3 18.424.025.003v-.003H25.3Zm-.075.672-.024-.002-.004.027h.028v-.025Zm.448 0v.025h.025v-.025h-.025Zm.427-.64v-.025h-.005l.005.025Zm.437.64h-.025v.025h.025v-.025Zm.448 0v.025h.029l-.004-.028-.025.003Zm-.085-.682.025-.003-.003-.022H26.9v.025Zm-1.6 0v-.025h-.025v.025h.025Zm-.107.718h1.813v-.05h-1.813v.05Zm1.813 0c.016 0 .04.019.04.05h.05c0-.054-.041-.1-.09-.1v.05Zm.04.05c0 .044-.026.06-.04.06v.05c.05 0 .09-.048.09-.11h-.05Zm-.04.06h-1.813v.05h1.813v-.05Zm-1.813 0c-.013 0-.039-.016-.039-.06h-.05c0 .062.04.11.09.11v-.05Zm-.039-.06c0-.029.021-.05.05-.05v-.05c-.056 0-.1.044-.1.1h.05Zm.05-.1h-.01v.05h.01v-.05Zm.072-.66-.075.672.05.005.074-.672-.05-.005Zm-.05.7h.447v-.05h-.448v.05Zm.472-.026c0-.27.104-.422.205-.508a.535.535 0 0 1 .186-.103l.013-.003h.003v-.001l-.005-.025-.005-.024h-.001l-.004.001a.476.476 0 0 0-.066.022.589.589 0 0 0-.153.095c-.113.095-.223.262-.223.546h.05Zm.402-.615h-.003l.003.001.013.004a.602.602 0 0 1 .188.113c.103.09.206.244.211.498l.05-.001a.702.702 0 0 0-.227-.534.65.65 0 0 0-.222-.128l-.005-.002H26.1v.05Zm.437.64h.448v-.05h-.448v.05Zm.473-.028-.085-.682-.05.006.086.682.05-.006Zm-.11-.704h-1.6v.05h1.6v-.05Zm-1.625.025v.01h.05v-.01h-.05Z" fill="#000"></path><path fill-rule="evenodd" clip-rule="evenodd" d="m26.303 17.454.032.683h-.46l.033-.694h.395v.011Zm-.491-.288h.128v.085h.096v-.085h.139v.096h.096v-.107h.128v.214c0 .042-.021.064-.054.064h-.47c-.03 0-.063-.02-.063-.054v-.213Zm-.533 1.131h1.643c.032 0 .064.032.064.074 0 .043-.032.075-.064.075h-1.654c-.042 0-.064-.032-.064-.075 0-.042.022-.074.064-.074h.01Zm-.043-.16h1.739c.032 0 .064.042.064.085a.069.069 0 0 1-.064.064h-1.74c-.031 0-.063-.032-.063-.075 0-.032.032-.064.064-.064v-.01Zm.619.96c0-.352.245-.448.245-.448s.245.106.245.448h-.49Z" fill="#FF0"></path><path d="M26.303 17.454h-.025v.001h.025Zm.032.683v.025h.026l-.001-.026-.025.001Zm-.46 0-.024-.001-.002.026h.027v-.025Zm.033-.694v-.025h-.024l-.001.024.025.001Zm.395 0h.025v-.025h-.025v.025Zm-.491-.277v-.025h-.025v.025h.025Zm.128 0h.025v-.025h-.025v.025Zm0 .085h-.025v.025h.025v-.025Zm.096 0v.025h.025v-.025h-.025Zm0-.085v-.025h-.025v.025h.025Zm.139 0h.025v-.025h-.025v.025Zm0 .096h-.025v.025h.025v-.025Zm.096 0v.025h.025v-.025h-.025Zm0-.107v-.025h-.025v.025h.025Zm.128 0h.025v-.025h-.025v.025Zm-1.163.982v-.025h-.025v.025h.025Zm0 .01v.025h.025v-.025h-.025Zm.864.502.01-.023-.01-.004-.01.004.01.023Zm.245.448v.025h.025v-.025h-.025Zm-.067-1.642.032.683.05-.002-.032-.683-.05.002Zm.057.657h-.46v.05h.46v-.05Zm-.434.026.032-.694-.05-.002-.032.694.05.002Zm.007-.67h.395v-.05h-.395v.05Zm.37-.025v.011h.05v-.01h-.05Zm-.466-.252h.128v-.05h-.128v.05Zm.103-.025v.085h.05v-.085h-.05Zm.025.11h.096v-.05h-.096v.05Zm.12-.025v-.085h-.05v.085h.05Zm-.024-.06h.139v-.05h-.14v.05Zm.114-.025v.096h.05v-.096h-.05Zm.025.121h.096v-.05h-.096v.05Zm.12-.025v-.107h-.05v.107h.05Zm-.024-.082h.128v-.05h-.128v.05Zm.103-.025v.214h.05v-.214h-.05Zm0 .214c0 .017-.005.027-.009.031-.004.005-.01.008-.02.008v.05a.075.075 0 0 0 .058-.025.095.095 0 0 0 .02-.064h-.05Zm-.03.04h-.468v.05h.469v-.05Zm-.468 0a.048.048 0 0 1-.029-.01c-.007-.006-.01-.013-.01-.02h-.05c0 .026.013.046.03.06.017.012.038.02.059.02v-.05Zm-.04-.03v-.213h-.05v.213h.05Zm-.557.943h1.643v-.05h-1.643v.05Zm1.643 0c.016 0 .039.018.039.05h.05c0-.054-.041-.1-.09-.1v.05Zm.039.05c0 .03-.024.05-.04.05v.05c.049 0 .09-.047.09-.1h-.05Zm-.04.05h-1.653v.05h1.654v-.05Zm-1.653 0c-.014 0-.023-.006-.029-.013a.06.06 0 0 1-.01-.038h-.05c0 .026.006.05.022.07.015.02.039.03.067.03v-.05Zm-.04-.05c0-.018.005-.03.011-.038.006-.007.015-.012.029-.012v-.05a.084.084 0 0 0-.067.03.108.108 0 0 0-.022.07h.05Zm.04-.05h.01v-.05h-.01v.05Zm-.032-.16h1.739v-.05h-1.74v.05Zm1.739 0c.005 0 .014.004.024.017.009.012.015.027.015.043h.05a.124.124 0 0 0-.025-.074c-.015-.019-.037-.036-.064-.036v.05Zm.039.06a.04.04 0 0 1-.013.026.04.04 0 0 1-.026.013v.05a.09.09 0 0 0 .061-.027.09.09 0 0 0 .028-.062h-.05Zm-.04.04h-1.738v.05h1.739v-.05Zm-1.738 0c-.016 0-.04-.02-.04-.05h-.05c0 .053.041.1.09.1v-.05Zm-.04-.05a.04.04 0 0 1 .013-.027.04.04 0 0 1 .027-.013v-.05a.09.09 0 0 0-.062.027.09.09 0 0 0-.027.062h.05Zm.065-.065v-.01h-.05v.01h.05Zm.619.95c0-.17.059-.276.116-.34a.38.38 0 0 1 .111-.084h.002l-.01-.024-.009-.023-.003.001a.22.22 0 0 0-.039.021.429.429 0 0 0-.09.076.537.537 0 0 0-.128.373h.05Zm.22-.448-.01.023h.002a.316.316 0 0 1 .032.019c.022.015.05.038.08.07a.49.49 0 0 1 .116.336h.05a.539.539 0 0 0-.13-.369.46.46 0 0 0-.127-.1l-.002-.001h-.001l-.01.022Zm.245.423h-.49v.05h.49v-.05Z" fill="#000"></path><path fill-rule="evenodd" clip-rule="evenodd" d="M25.321 18.137h.427v-.363h-.427v.363Z" fill="#FF0"></path><path clip-rule="evenodd" d="M25.321 18.137h.427v-.363h-.427v.363Z" stroke="#000" stroke-width="0.05"></path><path fill-rule="evenodd" clip-rule="evenodd" d="M26.452 18.137h.427v-.363h-.427v.363Z" fill="#FF0"></path><path clip-rule="evenodd" d="M26.452 18.137h.427v-.363h-.427v.363Z" stroke="#000" stroke-width="0.05"></path><path fill-rule="evenodd" clip-rule="evenodd" d="M25.247 17.497h.128v.107h.096v-.107h.128v.107h.096v-.107h.128v.213c0 .043-.021.064-.053.064h-.46a.064.064 0 0 1-.063-.064v-.213Z" fill="#FF0"></path><path clip-rule="evenodd" d="M25.247 17.497h.128v.107h.096v-.107h.128v.107h.096v-.107h.128v.213c0 .043-.021.064-.053.064h-.46a.064.064 0 0 1-.063-.064v-.213Z" stroke="#000" stroke-width="0.05"></path><path fill-rule="evenodd" clip-rule="evenodd" d="M26.377 17.497h.128v.107h.096v-.107h.128v.107h.096v-.107h.128v.213c0 .043-.02.064-.054.064h-.458a.064.064 0 0 1-.064-.064v-.213Z" fill="#FF0"></path><path clip-rule="evenodd" d="M26.377 17.497h.128v.107h.096v-.107h.128v.107h.096v-.107h.128v.213c0 .043-.02.064-.054.064h-.458a.064.064 0 0 1-.064-.064v-.213Z" stroke="#000" stroke-width="0.05"></path><path fill-rule="evenodd" clip-rule="evenodd" d="M26.058 17.668c0-.064.096-.064.096 0v.17h-.096v-.17ZM25.492 17.902c0-.064.085-.064.085 0v.128h-.085v-.128ZM26.623 17.902c0-.064.085-.064.085 0v.128h-.085v-.128Z" fill="#000"></path><path fill-rule="evenodd" clip-rule="evenodd" d="M31.39 19.14c-.01-.587-.426-.726-.426-.726-.01 0-.458.15-.458.736h.885" fill="#FF0"></path><path fill-rule="evenodd" clip-rule="evenodd" d="M31.86 19.107h-1.813c-.032 0-.064.032-.064.075 0 .053.032.085.064.085h1.813c.032 0 .064-.032.064-.085a.073.073 0 0 0-.074-.075h.01Zm-.106-.683.074.672h-.448c0-.554-.426-.64-.426-.64-.011 0-.427.118-.438.64h-.448l.085-.682h1.6v.01Z" fill="#FF0"></path><path d="M31.754 18.424h-.025v.003l.025-.003Zm.074.672v.025h.028l-.003-.027-.025.002Zm-.448 0h-.025v.025h.025v-.025Zm-.426-.64.005-.025h-.005v.025Zm-.438.64v.025h.024v-.024h-.024Zm-.448 0-.025-.003-.003.028h.028v-.025Zm.085-.682v-.025h-.022l-.003.022.025.003Zm1.6 0h.026v-.025h-.025v.025Zm.107.668h-1.813v.05h1.813v-.05Zm-1.813 0c-.048 0-.09.046-.09.1h.05c0-.031.024-.05.04-.05v-.05Zm-.09.1c0 .062.04.11.09.11v-.05c-.014 0-.04-.016-.04-.06h-.05Zm.09.11h1.813v-.05h-1.813v.05Zm1.813 0c.05 0 .089-.048.089-.11h-.05c0 .044-.025.06-.04.06v.05Zm.089-.11c0-.056-.043-.1-.1-.1v.05c.029 0 .05.021.05.05h.05Zm-.1-.05h.01v-.05h-.01v.05Zm-.12-.705.074.672.05-.005-.074-.672-.05.005Zm.099.644h-.448v.05h.448v-.05Zm-.423.025c0-.284-.11-.45-.222-.546a.586.586 0 0 0-.218-.117h-.004l-.002-.001-.005.024-.005.025h.004a.298.298 0 0 1 .058.02.534.534 0 0 1 .14.087c.1.086.204.239.204.508h.05Zm-.451-.665-.008.001-.005.002a.398.398 0 0 0-.07.026.652.652 0 0 0-.153.102.702.702 0 0 0-.227.534h.05a.653.653 0 0 1 .21-.497.605.605 0 0 1 .203-.117h.003-.003v-.05Zm-.438.64h-.448v.05h.448v-.05Zm-.423.028.085-.681-.05-.007-.085.682.05.006Zm.06-.66h1.6v-.05h-1.6v.05Zm1.576-.025v.01h.05v-.01h-.05Z" fill="#000"></path><path fill-rule="evenodd" clip-rule="evenodd" d="m30.751 17.454-.032.683h.458l-.031-.694h-.395v.011Zm.49-.288h-.128v.085h-.095v-.085h-.139v.096h-.096v-.107h-.128v.214c0 .042.021.064.053.064h.469c.032 0 .064-.02.064-.054v-.213Zm.534 1.131h-1.643c-.032 0-.064.032-.064.074 0 .043.032.075.064.075h1.654c.042 0 .064-.032.064-.075 0-.042-.022-.074-.064-.074h-.011Zm.042-.16h-1.738c-.032 0-.064.042-.064.085 0 .032.032.064.064.064h1.738c.033 0 .064-.032.064-.075a.068.068 0 0 0-.064-.064v-.01Zm-.618.96c0-.352-.245-.448-.245-.448s-.246.106-.246.448h.491Z" fill="#FF0"></path><path d="m30.751 17.454.025.001h-.025Zm-.032.683-.025-.001-.001.026h.026v-.025Zm.458 0v.025h.026l-.001-.026-.025.001Zm-.031-.694.025-.001-.001-.024h-.024v.025Zm-.395 0v-.025h-.025v.025h.025Zm.49-.277h.025v-.025h-.025v.025Zm-.128 0v-.025h-.025v.025h.025Zm0 .085v.025h.025v-.025h-.025Zm-.095 0h-.025v.025h.025v-.025Zm0-.085h.025v-.025h-.025v.025Zm-.139 0v-.025h-.025v.025h.025Zm0 .096v.025h.025v-.025h-.025Zm-.096 0h-.025v.025h.025v-.025Zm0-.107h.025v-.025h-.025v.025Zm-.128 0v-.025h-.025v.025h.025Zm1.162.982h.025v-.025h-.025v.025Zm0 .01h-.025v.025h.025v-.025Zm-.863.502.01-.023-.01-.004-.01.004.01.023Zm-.246.448h-.025v.025h.025v-.025Zm.018-1.644-.032.683.05.002.032-.683-.05-.002Zm-.007.71h.458v-.05h-.458v.05Zm.483-.027-.031-.694-.05.002.031.694.05-.002Zm-.056-.718h-.395v.05h.395v-.05Zm-.42.025v.011h.05v-.01h-.05Zm.515-.302h-.128v.05h.128v-.05Zm-.153.025v.085h.05v-.085h-.05Zm.025.06h-.095v.05h.095v-.05Zm-.07.025v-.085h-.05v.085h.05Zm-.025-.11h-.139v.05h.139v-.05Zm-.164.025v.096h.05v-.096h-.05Zm.025.071h-.096v.05h.096v-.05Zm-.071.025v-.107h-.05v.107h.05Zm-.025-.132h-.128v.05h.128v-.05Zm-.153.025v.214h.05v-.214h-.05Zm0 .214c0 .025.006.047.02.064a.074.074 0 0 0 .058.025v-.05c-.01 0-.016-.003-.02-.008-.004-.004-.008-.014-.008-.03h-.05Zm.078.09h.469v-.05h-.469v.05Zm.469 0c.04 0 .089-.028.089-.08h-.05c0 .014-.015.03-.039.03v.05Zm.089-.08v-.213h-.05v.213h.05Zm.509.893h-1.643v.05h1.643v-.05Zm-1.643 0c-.048 0-.089.046-.089.1h.05c0-.032.023-.05.039-.05v-.05Zm-.089.1c0 .053.04.1.089.1v-.05c-.016 0-.039-.02-.039-.05h-.05Zm.089.1h1.654v-.05h-1.654v.05Zm1.654 0a.084.084 0 0 0 .067-.032.11.11 0 0 0 .022-.069h-.05a.06.06 0 0 1-.01.038c-.006.007-.015.012-.029.012v.05Zm.089-.1a.108.108 0 0 0-.022-.07.084.084 0 0 0-.067-.03v.05c.014 0 .023.005.028.012.007.008.011.02.011.037h.05Zm-.089-.1h-.011v.05h.011v-.05Zm.031-.16h-1.738v.05h1.738v-.05Zm-1.738 0c-.027 0-.05.017-.064.036a.124.124 0 0 0-.025.074h.05c0-.016.006-.032.015-.043.01-.013.019-.017.024-.017v-.05Zm-.089.11a.09.09 0 0 0 .027.062.09.09 0 0 0 .062.027v-.05a.04.04 0 0 1-.026-.013.04.04 0 0 1-.013-.026h-.05Zm.089.09h1.738v-.05h-1.738v.05Zm1.738 0c.05 0 .089-.047.089-.1h-.05c0 .031-.023.05-.039.05v.05Zm.089-.1a.09.09 0 0 0-.027-.063.09.09 0 0 0-.062-.027v.05c.009 0 .018.004.027.013a.04.04 0 0 1 .012.026h.05Zm-.064-.065v-.01h-.05v.01h.05Zm-.618.95c0-.182-.064-.3-.129-.373a.429.429 0 0 0-.128-.097h-.003v-.001l-.01.023-.01.023h.001l.002.001.006.003a.383.383 0 0 1 .104.081c.058.064.117.17.117.34h.05Zm-.27-.448-.01-.023h-.001l-.003.002a.354.354 0 0 0-.038.022.457.457 0 0 0-.09.078.538.538 0 0 0-.129.37h.05c0-.165.059-.271.117-.336a.41.41 0 0 1 .105-.086l.007-.003h.002v-.001l-.01-.023Zm-.246.473h.491v-.05h-.491v.05Z" fill="#000"></path><path fill-rule="evenodd" clip-rule="evenodd" d="M31.306 18.137h.426v-.363h-.426v.363Z" fill="#FF0"></path><path clip-rule="evenodd" d="M31.306 18.137h.426v-.363h-.426v.363Z" stroke="#000" stroke-width="0.05"></path><path fill-rule="evenodd" clip-rule="evenodd" d="M30.175 18.137h.427v-.363h-.427v.363Z" fill="#FF0"></path><path clip-rule="evenodd" d="M30.175 18.137h.427v-.363h-.427v.363Z" stroke="#000" stroke-width="0.05"></path><path fill-rule="evenodd" clip-rule="evenodd" d="M31.807 17.497h-.128v.107h-.096v-.107h-.128v.107h-.096v-.107h-.128v.213c0 .043.02.064.054.064h.458a.063.063 0 0 0 .064-.064v-.213Z" fill="#FF0"></path><path clip-rule="evenodd" d="M31.807 17.497h-.128v.107h-.096v-.107h-.128v.107h-.096v-.107h-.128v.213c0 .043.02.064.054.064h.458a.063.063 0 0 0 .064-.064v-.213Z" stroke="#000" stroke-width="0.05"></path><path fill-rule="evenodd" clip-rule="evenodd" d="M30.676 17.497h-.128v.107h-.096v-.107h-.128v.107h-.096v-.107H30.1v.213c0 .043.021.064.053.064h.46a.064.064 0 0 0 .063-.064v-.213Z" fill="#FF0"></path><path clip-rule="evenodd" d="M30.676 17.497h-.128v.107h-.096v-.107h-.128v.107h-.096v-.107H30.1v.213c0 .043.021.064.053.064h.46a.064.064 0 0 0 .063-.064v-.213Z" stroke="#000" stroke-width="0.05"></path><path fill-rule="evenodd" clip-rule="evenodd" d="M30.996 17.668c0-.064-.096-.064-.096 0v.17h.096v-.17ZM31.561 17.902c0-.064-.084-.064-.084 0v.128h.084v-.128ZM30.43 17.902c0-.064-.084-.064-.084 0v.128h.085v-.128Z" fill="#000"></path><path fill-rule="evenodd" clip-rule="evenodd" d="M31.39 24.078c-.01-.587-.426-.726-.426-.726-.01 0-.458.15-.458.737h.885" fill="#FF0"></path><path fill-rule="evenodd" clip-rule="evenodd" d="M31.86 24.046h-1.813c-.032 0-.064.032-.064.075 0 .053.032.085.064.085h1.813c.032 0 .064-.032.064-.085a.073.073 0 0 0-.074-.075h.01Zm-.106-.683.074.672h-.448c0-.554-.426-.64-.426-.64-.011 0-.427.118-.438.64h-.448l.085-.682h1.6v.01Z" fill="#FF0"></path><path d="M31.754 23.363h-.025v.003l.025-.003Zm.074.672v.025h.028l-.003-.028-.025.003Zm-.448 0h-.025v.025h.025v-.025Zm-.426-.64.005-.024h-.005v.025Zm-.438.64v.025h.024v-.025h-.024Zm-.448 0-.025-.003-.003.028h.028v-.025Zm.085-.682v-.025h-.022l-.003.022.025.003Zm1.6 0h.026v-.025h-.025v.025Zm.107.668h-1.813v.05h1.813v-.05Zm-1.813 0c-.048 0-.09.046-.09.1h.05c0-.032.024-.05.04-.05v-.05Zm-.09.1c0 .062.04.11.09.11v-.05c-.014 0-.04-.016-.04-.06h-.05Zm.09.11h1.813v-.05h-1.813v.05Zm1.813 0c.05 0 .089-.048.089-.11h-.05c0 .044-.025.06-.04.06v.05Zm.089-.11c0-.057-.043-.1-.1-.1v.05c.029 0 .05.02.05.05h.05Zm-.1-.05h.01v-.05h-.01v.05Zm-.12-.705.074.672.05-.006-.074-.672-.05.006Zm.099.644h-.448v.05h.448v-.05Zm-.423.025c0-.285-.11-.451-.222-.546a.583.583 0 0 0-.223-.117h-.001l-.005.024-.005.024.004.001.012.004a.537.537 0 0 1 .186.102c.1.086.204.238.204.508h.05Zm-.451-.664h-.008l-.005.002-.017.005a.65.65 0 0 0-.206.123.701.701 0 0 0-.227.533l.05.001a.65.65 0 0 1 .21-.497.598.598 0 0 1 .203-.116l.003-.001h-.003v-.05Zm-.438.639h-.448v.05h.448v-.05Zm-.423.028.085-.682-.05-.006-.085.682.05.006Zm.06-.66h1.6v-.05h-1.6v.05Zm1.576-.025v.01h.05v-.01h-.05Z" fill="#000"></path><path fill-rule="evenodd" clip-rule="evenodd" d="m30.751 22.393-.032.683h.458l-.031-.694h-.395v.01Zm.49-.288h-.128v.085h-.095v-.085h-.139v.096h-.096v-.106h-.128v.213c0 .043.021.064.053.064h.469c.032 0 .064-.021.064-.054v-.213Zm.534 1.13h-1.643c-.032 0-.064.033-.064.075 0 .043.032.075.064.075h1.654c.042 0 .064-.032.064-.075 0-.042-.022-.074-.064-.074h-.011Zm.042-.16h-1.738c-.032 0-.064.044-.064.086 0 .032.032.064.064.064h1.738c.033 0 .064-.032.064-.075 0-.031-.031-.064-.064-.064v-.01Zm-.618.96c0-.351-.245-.447-.245-.447s-.246.106-.246.448h.491Z" fill="#FF0"></path><path d="M30.751 22.393h.025-.025Zm-.032.683-.025-.002-.001.027h.026v-.025Zm.458 0v.025h.026l-.001-.026h-.025Zm-.031-.694.025-.002-.001-.023h-.024v.025Zm-.395 0v-.025h-.025v.025h.025Zm.49-.277h.025v-.025h-.025v.025Zm-.128 0v-.025h-.025v.025h.025Zm0 .085v.025h.025v-.025h-.025Zm-.095 0h-.025v.025h.025v-.025Zm0-.085h.025v-.025h-.025v.025Zm-.139 0v-.025h-.025v.025h.025Zm0 .096v.025h.025V22.2h-.025Zm-.096 0h-.025v.025h.025V22.2Zm0-.106h.025v-.025h-.025v.025Zm-.128 0v-.025h-.025v.025h.025Zm1.162.98h.025v-.024h-.025v.025Zm0 .01h-.025v.026h.025v-.025Zm-.863.503.01-.024-.01-.003-.01.004.01.023Zm-.246.448h-.025v.025h.025v-.025Zm.018-1.645-.032.683.05.003.032-.683-.05-.003Zm-.007.71h.458v-.05h-.458v.05Zm.483-.026-.031-.694-.05.002.031.694.05-.003Zm-.056-.718h-.395v.05h.395v-.05Zm-.42.025v.01h.05v-.01h-.05Zm.515-.302h-.128v.05h.128v-.05Zm-.153.025v.085h.05v-.085h-.05Zm.025.06h-.095v.05h.095v-.05Zm-.07.025v-.085h-.05v.085h.05Zm-.025-.11h-.139v.05h.139v-.05Zm-.164.025v.096h.05v-.096h-.05Zm.025.07h-.096v.05h.096v-.05Zm-.071.026v-.106h-.05v.106h.05Zm-.025-.131h-.128v.05h.128v-.05Zm-.153.025v.213h.05v-.213h-.05Zm0 .213c0 .025.006.047.02.064a.073.073 0 0 0 .058.025v-.05c-.01 0-.016-.004-.02-.008s-.008-.014-.008-.031h-.05Zm.078.089h.469v-.05h-.469v.05Zm.469 0c.04 0 .089-.027.089-.08h-.05c0 .014-.015.03-.039.03v.05Zm.089-.08v-.212h-.05v.213h.05Zm.509.894h-1.643v.05h1.643v-.05Zm-1.643 0c-.048 0-.089.045-.089.099h.05c0-.031.023-.05.039-.05v-.05Zm-.089.099c0 .054.04.1.089.1v-.05c-.016 0-.039-.019-.039-.05h-.05Zm.089.1h1.654v-.05h-1.654v.05Zm1.654 0a.084.084 0 0 0 .067-.031.11.11 0 0 0 .022-.07h-.05a.06.06 0 0 1-.01.039c-.006.007-.015.012-.029.012v.05Zm.089-.1a.108.108 0 0 0-.022-.069.084.084 0 0 0-.067-.03v.05c.014 0 .023.005.028.012.007.007.011.02.011.037h.05Zm-.089-.1h-.011v.05h.011v-.05Zm.031-.16h-1.738v.05h1.738v-.05Zm-1.738 0c-.027 0-.05.018-.064.037a.124.124 0 0 0-.025.074h.05c0-.015.006-.032.015-.044.01-.012.02-.016.024-.016v-.05Zm-.089.11a.09.09 0 0 0 .027.062.09.09 0 0 0 .062.028v-.05a.04.04 0 0 1-.026-.013.04.04 0 0 1-.013-.026h-.05Zm.089.09h1.738v-.05h-1.738v.05Zm1.738 0c.05 0 .089-.047.089-.1h-.05c0 .032-.023.05-.039.05v.05Zm.089-.1a.09.09 0 0 0-.027-.061.089.089 0 0 0-.062-.028v.05c.008 0 .018.004.026.012a.04.04 0 0 1 .013.027h.05Zm-.064-.064v-.01h-.05v.01h.05Zm-.618.95c0-.183-.064-.3-.129-.373a.429.429 0 0 0-.128-.097l-.003-.001-.01.023-.01.023h.003l.006.004a.383.383 0 0 1 .104.082c.058.063.117.17.117.339h.05Zm-.27-.448-.01-.023h-.001l-.003.001a.354.354 0 0 0-.038.023.457.457 0 0 0-.09.078.538.538 0 0 0-.129.369h.05c0-.165.059-.271.117-.336a.41.41 0 0 1 .105-.085l.007-.004h.002l-.01-.023Zm-.246.473h.491v-.05h-.491v.05Z" fill="#000"></path><path fill-rule="evenodd" clip-rule="evenodd" d="M31.306 23.075h.426v-.362h-.426v.362Z" fill="#FF0"></path><path clip-rule="evenodd" d="M31.306 23.075h.426v-.362h-.426v.362Z" stroke="#000" stroke-width="0.05"></path><path fill-rule="evenodd" clip-rule="evenodd" d="M30.175 23.075h.427v-.362h-.427v.362Z" fill="#FF0"></path><path clip-rule="evenodd" d="M30.175 23.075h.427v-.362h-.427v.362Z" stroke="#000" stroke-width="0.05"></path><path fill-rule="evenodd" clip-rule="evenodd" d="M31.807 22.436h-.128v.105h-.096v-.105h-.128v.105h-.096v-.105h-.128v.212c0 .044.02.064.054.064h.458a.063.063 0 0 0 .064-.064v-.212Z" fill="#FF0"></path><path clip-rule="evenodd" d="M31.807 22.436h-.128v.105h-.096v-.105h-.128v.105h-.096v-.105h-.128v.212c0 .044.02.064.054.064h.458a.063.063 0 0 0 .064-.064v-.212Z" stroke="#000" stroke-width="0.05"></path><path fill-rule="evenodd" clip-rule="evenodd" d="M30.676 22.436h-.128v.105h-.096v-.105h-.128v.105h-.096v-.105H30.1v.212c0 .044.021.064.053.064h.46a.064.064 0 0 0 .063-.064v-.212Z" fill="#FF0"></path><path clip-rule="evenodd" d="M30.676 22.436h-.128v.105h-.096v-.105h-.128v.105h-.096v-.105H30.1v.212c0 .044.021.064.053.064h.46a.064.064 0 0 0 .063-.064v-.212Z" stroke="#000" stroke-width="0.05"></path><path fill-rule="evenodd" clip-rule="evenodd" d="M30.996 22.606c0-.064-.096-.064-.096 0v.171h.096v-.171ZM31.561 22.84c0-.063-.084-.063-.084 0v.129h.084v-.128ZM30.43 22.84c0-.063-.084-.063-.084 0v.129h.085v-.128Z" fill="#000"></path><path fill-rule="evenodd" clip-rule="evenodd" d="M29.466 29.226c.409-.421.214-.814.214-.814-.007-.007-.43-.22-.845.193l.623.628" fill="#FF0"></path><path fill-rule="evenodd" clip-rule="evenodd" d="M29.82 29.536 28.54 28.25c-.022-.023-.068-.023-.098.007-.038.038-.038.083-.016.105l1.278 1.287c.023.023.068.023.106-.014a.074.074 0 0 0 0-.106l.008.008Zm.408-.557-.424.527-.316-.319c.394-.39.154-.754.154-.754-.008-.006-.384-.219-.762.141l-.316-.317.544-.42 1.128 1.135-.008.007Z" fill="#FF0"></path><path d="m29.82 29.536-.018.018.035-.035-.018.017ZM28.54 28.25l-.018.017.018-.017Zm-.114.112.018-.018-.018.018Zm1.278 1.287-.017.018.017-.018Zm.106-.014.018.018-.018-.018Zm0-.106.018-.018-.035.036.017-.018Zm.417-.549-.016-.019-.003.003.02.016Zm-.424.527-.017.018.02.02.017-.022-.02-.016Zm-.316-.319-.017-.018-.018.018.018.018.017-.018Zm.154-.754.023-.014-.008-.006-.015.02Zm-.762.141-.017.018.017.017.018-.017-.018-.018Zm-.316-.317-.015-.02-.022.018.02.02.017-.018Zm.544-.42.018-.018-.016-.016-.017.013.015.02Zm1.128 1.135.017.019.02-.018-.019-.018-.018.017Zm-.399.546-1.278-1.287-.035.036 1.278 1.287.035-.035Zm-1.278-1.286c-.033-.035-.096-.031-.133.006l.035.036c.022-.022.052-.018.062-.008l.036-.034Zm-.133.006c-.044.044-.051.106-.016.14l.035-.035c-.009-.009-.016-.037.016-.07l-.035-.035Zm-.016.14 1.278 1.288.035-.035-1.278-1.288-.035.036Zm1.278 1.288c.035.036.096.03.14-.014l-.034-.036c-.032.031-.06.025-.071.014l-.035.036Zm.141-.015a.099.099 0 0 0 0-.14l-.035.035c.02.02.02.05 0 .07l.035.035Zm-.035-.105.008.008.035-.036-.008-.008-.035.036Zm.415-.583-.424.527.039.032.424-.527-.04-.032Zm-.387.525-.316-.319-.035.036.316.319.035-.036Zm-.316-.283c.202-.2.243-.396.232-.543a.587.587 0 0 0-.072-.238l-.002-.003v-.001l-.022.013-.02.014a.217.217 0 0 1 .008.014.537.537 0 0 1 .058.204c.01.133-.026.315-.217.504l.035.036Zm.151-.792a.656.656 0 0 0-.256-.072.7.7 0 0 0-.538.215l.035.036a.651.651 0 0 1 .5-.2.607.607 0 0 1 .227.06l.002.001.03-.04Zm-.759.143-.316-.317-.035.036.316.317.035-.035Zm-.318-.28.544-.42-.031-.04-.544.421.03.04Zm.51-.422 1.129 1.136.035-.035-1.128-1.136-.035.035Zm1.13 1.1-.008.006.033.038.008-.007-.033-.038Z" fill="#000"></path><path fill-rule="evenodd" clip-rule="evenodd" d="m30.21 27.584-.507.458.323.325.47-.511-.278-.28-.008.008Zm.55.145-.09-.091-.06.06-.068-.068.061-.06-.098-.098-.068.067-.068-.068.076-.075-.09-.091-.152.15c-.03.03-.03.061-.008.083l.331.333c.022.023.06.03.083.008l.151-.15Zm-.426 1.175-1.158-1.166c-.022-.022-.068-.022-.098.007-.03.03-.03.076-.008.099l1.165 1.173c.031.03.068.023.1-.007.03-.03.037-.069.006-.099l-.007-.007Zm.144-.083-1.226-1.233c-.022-.023-.075-.016-.105.015-.023.022-.023.067 0 .09l1.225 1.234c.022.022.067.022.098-.007.022-.024.022-.068 0-.091l.008-.008Zm-1.118.238c.25-.248.145-.49.145-.49s-.248-.098-.49.142l.345.348Z" fill="#FF0"></path><path d="m30.21 27.584.017.019.001-.001-.018-.018Zm-.507.458-.016-.019-.02.018.019.019.017-.018Zm.323.325-.017.018.018.018.018-.02-.019-.016Zm.47-.511.019.017.016-.018-.017-.017-.018.018Zm-.278-.28.018-.018-.018-.017-.017.017.017.018Zm.542.153.018.018.018-.018-.018-.018-.018.018Zm-.09-.091.018-.018-.017-.017-.018.017.017.018Zm-.06.06-.018.017.017.018.018-.017-.018-.018Zm-.068-.068-.017-.018-.018.018.018.018.017-.018Zm.061-.06.018.018.018-.018-.018-.018-.018.018Zm-.098-.098.018-.018-.017-.017-.018.017.017.018Zm-.068.067-.017.018.017.017.018-.017-.018-.018Zm-.068-.068-.017-.018-.018.018.018.018.017-.018Zm.076-.075.018.018.018-.018-.018-.018-.018.018Zm-.09-.091.018-.018-.017-.017-.018.017.017.018Zm-.152.15-.017-.018.017.018Zm-.008.083.018-.018-.018.018Zm.331.333.018-.017-.018.017Zm.083.008.018.018-.018-.018Zm-.275 1.025-.017.018.017-.018Zm-1.158-1.166.018-.018-.018.018Zm-.098.007-.017-.018.017.018Zm-.008.099-.018.017.018-.017Zm1.165 1.173-.017.018.017-.018Zm.1-.007.017.018-.018-.018Zm.006-.099-.017.018.017-.018Zm.137-.09.018.018.018-.018-.018-.018-.018.018Zm-1.226-1.233-.018.017.018-.017Zm-.105.015.018.018-.018-.018Zm0 .09.018-.018-.018.018Zm1.225 1.234-.017.018.017-.018Zm.098-.007.018.018v-.001l-.018-.017Zm0-.091-.017-.018-.018.018.017.017.018-.017Zm-.965-.26.023-.01-.004-.01-.01-.003-.009.023Zm-.49.142-.017-.018-.018.018.018.018.017-.018Zm1.179-1.146-.507.458.033.038.507-.459-.033-.037Zm-.508.495.323.325.035-.036-.323-.325-.035.036Zm.359.324.47-.511-.037-.034-.47.511.037.034Zm.47-.546-.279-.28-.035.036.278.28.035-.036Zm-.314-.28-.008.008.035.036.008-.008-.035-.036Zm.577.153-.09-.09-.035.035.09.09.035-.035Zm-.125-.09-.061.06.035.035.06-.06-.034-.036Zm-.026.06-.067-.069-.035.036.067.067.035-.035Zm-.067-.033.06-.06-.034-.036-.061.06.035.036Zm.061-.096-.098-.098-.035.036.098.098.035-.036Zm-.133-.098-.068.067.035.036.068-.067-.035-.036Zm-.033.067-.068-.068-.035.036.068.068.035-.036Zm-.068-.032.076-.075-.035-.036-.076.075.035.036Zm.076-.11-.09-.092-.035.036.09.09.035-.035Zm-.125-.092-.152.15.035.036.152-.15-.035-.036Zm-.152.15a.097.097 0 0 0-.031.06.074.074 0 0 0 .023.059l.035-.036c-.007-.006-.009-.013-.008-.019 0-.006.004-.016.016-.028l-.035-.036Zm-.008.119.33.333.036-.036-.33-.333-.036.036Zm.33.332c.028.03.082.044.119.01l-.035-.037c-.01.01-.032.01-.048-.007l-.036.034Zm.119.009.151-.15-.035-.036-.151.15.035.036Zm-.275.99-1.158-1.167-.035.036 1.158 1.166.035-.036Zm-1.158-1.167a.086.086 0 0 0-.065-.023.106.106 0 0 0-.068.03l.035.036a.055.055 0 0 1 .036-.016c.012 0 .022.004.027.009l.035-.036Zm-.133.007c-.038.038-.041.1-.009.134l.036-.034c-.01-.012-.014-.043.008-.064l-.035-.036Zm-.008.135 1.165 1.173.035-.036-1.165-1.173-.035.036Zm1.165 1.173c.02.02.044.029.07.026a.111.111 0 0 0 .064-.033l-.035-.036a.061.061 0 0 1-.035.02c-.009 0-.018-.003-.03-.013l-.034.036Zm.134-.007a.11.11 0 0 0 .034-.065.083.083 0 0 0-.027-.07l-.035.036c.01.01.013.02.012.029a.06.06 0 0 1-.02.034l.036.036Zm.007-.135-.007-.007-.035.036.007.007.035-.036Zm.137-.09L29.27 27.57l-.035.036 1.226 1.233.035-.036Zm-1.226-1.232c-.018-.02-.047-.024-.07-.02a.122.122 0 0 0-.07.035l.035.034a.073.073 0 0 1 .041-.02c.016-.002.025.002.028.005l.036-.034Zm-.14.014a.087.087 0 0 0-.025.063.09.09 0 0 0 .025.063l.035-.036a.04.04 0 0 1-.01-.027c0-.012.004-.022.01-.027l-.035-.036Zm0 .126 1.225 1.234.035-.036-1.225-1.234-.035.036Zm1.225 1.234c.033.033.094.03.133-.007l-.035-.036c-.023.022-.053.018-.063.007l-.035.036Zm.134-.008a.093.093 0 0 0 .023-.063.09.09 0 0 0-.024-.062l-.036.034a.04.04 0 0 1 .01.028.044.044 0 0 1-.01.03l.037.033Zm0-.09.007-.008-.035-.036-.008.008.035.036Zm-1.111.23a.536.536 0 0 0 .174-.355.436.436 0 0 0-.022-.16l-.001-.002-.024.009-.023.01.001.002a.177.177 0 0 1 .01.035c.006.025.011.06.009.104a.487.487 0 0 1-.16.321l.036.036Zm.127-.508.01-.023h-.002l-.002-.002a.462.462 0 0 0-.161-.02.54.54 0 0 0-.352.17l.035.035a.49.49 0 0 1 .32-.154.412.412 0 0 1 .141.017h.002l.01-.023Zm-.507.16.345.348.035-.036-.345-.348-.035.036Z" fill="#000"></path><path fill-rule="evenodd" clip-rule="evenodd" d="m30.375 28.203-.258.255.3.303.258-.255-.3-.303Z" fill="#FF0"></path><path clip-rule="evenodd" d="m30.375 28.203-.258.255.3.303.258-.255-.3-.303Z" stroke="#000" stroke-width="0.05"></path><path fill-rule="evenodd" clip-rule="evenodd" d="m29.578 27.4-.257.256.3.303.258-.256-.301-.303Z" fill="#FF0"></path><path clip-rule="evenodd" d="m29.578 27.4-.257.256.3.303.258-.256-.301-.303Z" stroke="#000" stroke-width="0.05"></path><path fill-rule="evenodd" clip-rule="evenodd" d="m30.924 28.363-.09-.09-.076.074-.067-.068.075-.075-.09-.09-.076.074-.067-.068.076-.075-.09-.09-.152.15c-.03.03-.03.06-.008.082l.323.325a.064.064 0 0 0 .091.001l.151-.15Z" fill="#FF0"></path><path clip-rule="evenodd" d="m30.924 28.363-.09-.09-.076.074-.067-.068.075-.075-.09-.09-.076.074-.067-.068.076-.075-.09-.09-.152.15c-.03.03-.03.06-.008.082l.323.325a.064.064 0 0 0 .091.001l.151-.15Z" stroke="#000" stroke-width="0.05"></path><path fill-rule="evenodd" clip-rule="evenodd" d="m30.128 27.56-.09-.09-.076.075-.068-.069.076-.075-.09-.09-.076.075-.068-.067.076-.075-.09-.091-.152.15c-.03.028-.03.06-.007.081l.323.326a.064.064 0 0 0 .09 0l.152-.15Z" fill="#FF0"></path><path clip-rule="evenodd" d="m30.128 27.56-.09-.09-.076.075-.068-.069.076-.075-.09-.09-.076.075-.068-.067.076-.075-.09-.091-.152.15c-.03.028-.03.06-.007.081l.323.326a.064.064 0 0 0 .09 0l.152-.15Z" stroke="#000" stroke-width="0.05"></path><path fill-rule="evenodd" clip-rule="evenodd" d="M30.232 27.908c.045-.045-.022-.113-.067-.068l-.121.12.067.068.12-.12ZM30.464 28.475c.045-.045-.015-.105-.06-.061l-.091.09.06.06.09-.09ZM29.668 27.672c.044-.045-.015-.105-.061-.061l-.09.09.06.062.09-.091Z" fill="#000"></path><path fill-rule="evenodd" clip-rule="evenodd" d="M25.31 24.26a.883.883 0 0 0 .236.607.768.768 0 0 0 .564.256.785.785 0 0 0 .567-.256.887.887 0 0 0 .233-.608v-1.152h-1.6v1.152Z" fill="#039"></path><path fill-rule="evenodd" clip-rule="evenodd" d="M25.684 23.385a.16.16 0 1 1 0 .32.16.16 0 0 1 0-.32ZM26.57 23.385a.16.16 0 1 1 0 .32.16.16 0 0 1 0-.32ZM26.122 23.811a.16.16 0 1 1 0 .32.16.16 0 0 1 0-.32ZM25.684 24.26a.16.16 0 1 1 0 .32.16.16 0 0 1 0-.32ZM26.57 24.26a.16.16 0 1 1 0 .32.16.16 0 0 1 0-.32Z" fill="#fff"></path><path fill-rule="evenodd" clip-rule="evenodd" d="M25.31 21.486a.882.882 0 0 0 .236.608.768.768 0 0 0 .564.256.785.785 0 0 0 .567-.256.885.885 0 0 0 .233-.608v-1.152h-1.6v1.152Z" fill="#039"></path><path fill-rule="evenodd" clip-rule="evenodd" d="M25.684 20.611a.16.16 0 1 1 0 .32.16.16 0 0 1 0-.32ZM26.57 20.611a.16.16 0 1 1 0 .32.16.16 0 0 1 0-.32ZM26.122 21.038a.16.16 0 1 1 0 .32.16.16 0 0 1 0-.32ZM25.684 21.486a.16.16 0 1 1 0 .32.16.16 0 0 1 0-.32ZM26.57 21.486a.16.16 0 1 1 0 .32.16.16 0 0 1 0-.32Z" fill="#fff"></path><path fill-rule="evenodd" clip-rule="evenodd" d="M23.092 24.26a.887.887 0 0 0 .234.607.768.768 0 0 0 .566.256.78.78 0 0 0 .565-.256.883.883 0 0 0 .235-.608v-1.152h-1.6v1.152Z" fill="#039"></path><path fill-rule="evenodd" clip-rule="evenodd" d="M23.465 23.385a.16.16 0 1 1 0 .32.16.16 0 0 1 0-.32ZM24.35 23.385a.16.16 0 1 1 0 .32.16.16 0 0 1 0-.32ZM23.903 23.811a.16.16 0 1 1 0 .32.16.16 0 0 1 0-.32ZM23.465 24.26a.16.16 0 1 1 0 .32.16.16 0 0 1 0-.32ZM24.35 24.26a.16.16 0 1 1 0 .32.16.16 0 0 1 0-.32Z" fill="#fff"></path><path fill-rule="evenodd" clip-rule="evenodd" d="M27.53 24.26a.883.883 0 0 0 .234.607.768.768 0 0 0 .565.256.78.78 0 0 0 .565-.256.883.883 0 0 0 .235-.608v-1.152h-1.6v1.152Z" fill="#039"></path><path fill-rule="evenodd" clip-rule="evenodd" d="M27.903 23.385a.16.16 0 1 1 0 .32.16.16 0 0 1 0-.32ZM28.788 23.385a.16.16 0 1 1 0 .32.16.16 0 0 1 0-.32ZM28.34 23.811a.16.16 0 1 1 0 .32.16.16 0 0 1 0-.32ZM27.903 24.26a.16.16 0 1 1 0 .32.16.16 0 0 1 0-.32ZM28.788 24.26a.16.16 0 1 1 0 .32.16.16 0 0 1 0-.32Z" fill="#fff"></path><path fill-rule="evenodd" clip-rule="evenodd" d="M25.31 27.012a.88.88 0 0 0 .236.607.764.764 0 0 0 .564.256.781.781 0 0 0 .567-.256.885.885 0 0 0 .233-.607V25.86h-1.6v1.152Z" fill="#039"></path><path fill-rule="evenodd" clip-rule="evenodd" d="M25.684 26.137a.16.16 0 1 1 0 .32.16.16 0 0 1 0-.32ZM26.57 26.137a.16.16 0 1 1 0 .32.16.16 0 0 1 0-.32ZM26.122 26.564a.16.16 0 1 1 0 .32.16.16 0 0 1 0-.32ZM25.684 27.012a.16.16 0 1 1 0 .32.16.16 0 0 1 0-.32ZM26.57 27.012a.16.16 0 1 1 0 .32.16.16 0 0 1 0-.32Z" fill="#fff"></path></g></g></svg>