<!----><svg viewBox="0 0 64 48" fill="currentColor" xmlns="http://www.w3.org/2000/svg" role="img" preserveAspectRatio=""><title><!---->Slovenia<!----></title><rect width="64" height="48" rx="4" fill="#D8D8D8"></rect><mask id="SI_svg__a" maskUnits="userSpaceOnUse" x="0" y="0" width="64" height="48" style="mask-type:luminance"><rect width="64" height="48" rx="4" fill="#fff"></rect></mask><g mask="url(#SI_svg__a)"><path d="M-3.598 0H92.15v47.906H-3.598V0Z" fill="#fff"></path><path d="M-3.598 31.935H92.15v15.972H-3.598V31.934Z" fill="#DE2918"></path><path d="M-3.598 15.972H92.15v15.963H-3.598V15.972Z" fill="#08399C"></path><path d="M23.556 8.702c-.374 5.764-.599 8.926-1.468 10.386-.954 1.572-1.87 2.723-5.582 4.117-3.703-1.394-4.62-2.545-5.573-4.117-.88-1.46-1.094-4.622-1.468-10.386l.542-.187c1.104-.337 1.926-.608 2.534-.73.87-.187 1.618-.393 3.955-.44 2.338.038 3.086.262 3.955.45.599.13 1.46.374 2.553.72l.552.187Z" fill="#DE2918"></path><path d="M23.013 8.515c-.355 5.754-.654 8.393-1.122 9.656-.898 2.17-2.319 3.359-5.386 4.491-3.067-1.132-4.488-2.32-5.395-4.491-.467-1.273-.748-3.902-1.103-9.666 1.085-.336 1.926-.598 2.534-.72.87-.187 1.617-.402 3.955-.44 2.338.038 3.085.253 3.955.44.866.197 1.72.438 2.562.72v.01Z" fill="#08399C"></path><path d="m16.505 10.274.14.346.655.094-.421.252.402.272-.589.093-.187.318-.187-.327-.561-.075.374-.28-.393-.253.627-.094.14-.346Z" fill="#FC0"></path><path d="m21.676 16.805-.364-.281-.253-.43-.505-.44-.27-.44-.506-.459-.243-.44-.28-.214-.169-.178-.467.402-.243.44-.309.28-.346-.27-.252-.45-.963-1.712-.963 1.712-.253.45-.346.27-.308-.28-.253-.44-.458-.402-.178.168-.27.225-.244.44-.505.458-.271.44-.505.44-.252.43-.365.28a6.158 6.158 0 0 0 1.74 3.397 10.002 10.002 0 0 0 3.421 1.918 9.731 9.731 0 0 0 3.441-1.918c.543-.561 1.552-1.806 1.74-3.396Z" fill="#fff"></path><path fill-rule="evenodd" clip-rule="evenodd" d="m14.957 7.857-.003-.007.009-.01-.006.017Zm0 0-.134.33-.627.094.393.252-.374.28.561.085.187.318.187-.318.59-.093-.403-.272.42-.252-.654-.085-.146-.34Zm3.087.004-.005-.01h.01l-.005.01Zm0 0-.145.335-.617.094.393.253-.374.28.56.075.188.328.187-.319.589-.093-.412-.271.43-.253-.654-.094-.145-.335Z" fill="#FC0"></path><path fill-rule="evenodd" clip-rule="evenodd" d="M20.18 18.994h.682l.346-.57-.018-.038-1.01.187-.645-.056-.786-.374h-.879l-.757.374-.608.056-.598-.056-.767-.374h-.879l-.776.383-.645.047-1.047-.178-.01.019.337.58.71.01.646-.057.785-.374h.888l.758.374.598.056.608-.056.757-.374h.88l.775.374.655.047Zm-6.695.842-.692.047h-.01l-.42-.524v-.019l.467.122.646-.056.785-.374h.888l.758.374.608.056.598-.056.767-.374h.879l.776.374.645.047.486-.131h.01l-.45.56-.7-.046-.777-.374h-.879l-.767.374-.598.047-.598-.047-.767-.374h-.879l-.776.374Z" fill="#08399C"></path></g></svg>