<!----><svg viewBox="0 0 65 48" fill="currentColor" xmlns="http://www.w3.org/2000/svg" role="img" preserveAspectRatio=""><title><!---->Slovakia<!----></title><rect x="0.5" width="64" height="48" rx="4" fill="#D8D8D8"></rect><mask id="SK_svg__a" maskUnits="userSpaceOnUse" x="0" y="0" width="65" height="48" style="mask-type:alpha"><rect x="0.5" width="64" height="48" rx="4" fill="#fff"></rect></mask><g mask="url(#SK_svg__a)"><path d="M.5 0h64v48H.5V0Z" fill="#EE1C25"></path><path d="M.5 0h64v32H.5V0Z" fill="#0B4EA2"></path><path d="M.5 0h64v16H.5V0Z" fill="#fff"></path><path d="M23.8 37.08c-4.3-2.07-10.46-6.19-10.46-14.32 0-8.14.4-11.84.4-11.84h20.13s.39 3.7.39 11.84S28.1 35 23.8 37.08Z" fill="#fff"></path><path d="M23.8 36c-3.95-1.9-9.6-5.68-9.6-13.14 0-7.46.36-10.86.36-10.86h18.48s.35 3.4.35 10.86C33.4 30.33 27.75 34.1 23.8 36Z" fill="#EE1C25"></path><path d="M24.64 20.9c1.07.02 3.16.06 5.01-.56 0 0-.04.67-.04 1.44 0 .77.05 1.44.05 1.44-1.7-.57-3.81-.58-5.02-.57v4.12h-1.68v-4.12c-1.2-.01-3.31 0-5.01.57 0 0 .05-.67.05-1.44 0-.78-.05-1.44-.05-1.44 1.85.62 3.94.58 5 .56v-2.59c-.97 0-2.37.04-3.96.57 0 0 .05-.66.05-1.44 0-.77-.05-1.44-.05-1.44 1.59.53 2.99.58 3.96.57-.05-1.64-.53-3.7-.53-3.7s.99.07 1.38.07c.4 0 1.38-.07 1.38-.07s-.48 2.06-.53 3.7c.97.01 2.37-.04 3.96-.57 0 0-.05.67-.05 1.44 0 .78.05 1.44.05 1.44a11.9 11.9 0 0 0-3.97-.57v2.6-.01Z" fill="#fff"></path><path d="M23.8 26.33c-1.99 0-3.05 2.75-3.05 2.75s-.6-1.3-2.22-1.3c-1.1 0-1.9.97-2.42 1.88 2 3.17 5.19 5.13 7.69 6.34 2.5-1.2 5.7-3.17 7.69-6.34-.52-.9-1.32-1.88-2.42-1.88-1.62 0-2.22 1.3-2.22 1.3s-1.05-2.75-3.05-2.75Z" fill="#0B4EA2"></path></g></svg>