<!----><svg viewBox="0 0 65 48" fill="currentColor" xmlns="http://www.w3.org/2000/svg" role="img" preserveAspectRatio=""><title><!---->United Kingdom<!----></title><rect x="0.5" width="64" height="48" rx="4" fill="#D8D8D8"></rect><mask id="GB_svg__a" maskUnits="userSpaceOnUse" x="0" y="0" width="65" height="48" style="mask-type:alpha"><rect x="0.5" width="64" height="48" rx="4" fill="#fff"></rect></mask><g mask="url(#GB_svg__a)"><path d="M-15.5 0h95.956v47.928H-15.5V0Z" fill="#012169"></path><path fill-rule="evenodd" clip-rule="evenodd" d="M-15.5 5.354V0h10.73l37.248 18.607-10.724 5.357L-15.5 5.354Zm47.978 23.967L-4.77 47.928H-15.5v-5.354l37.254-18.61 10.724 5.357Zm0 0 10.724-5.357 37.254 18.61v5.354h-10.73L32.479 29.321Zm10.724-5.357-10.724-5.357L69.727 0h10.73v5.354l-37.255 18.61Z" fill="#fff"></path><path fill-rule="evenodd" clip-rule="evenodd" d="M24.485 15.98V0H40.47v15.98h39.985v15.97H40.471v15.978H24.485V31.95H-15.5V15.98h39.985Z" fill="#fff"></path><path fill-rule="evenodd" clip-rule="evenodd" d="M27.68 19.171V0h9.596v19.171h43.18v9.586h-43.18v19.171H27.68V28.757H-15.5V19.17h43.18ZM-15.5 47.928 16.482 31.95h7.16L-8.35 47.93h-7.15ZM16.482 15.98-15.5 0v3.576L9.332 15.979h7.15Zm24.842 0L73.306 0h7.15L48.474 15.98h-7.15Zm7.15 15.97 31.982 15.98v-3.577L55.624 31.95h-7.15Z" fill="#C8102E"></path></g></svg>